<svg width="417" height="292" viewBox="0 0 417 292" fill="none" xmlns="http://www.w3.org/2000/svg">
<path d="M380.61 287.69C383.43 277.13 392.61 241.69 398.88 205.74C406.33 162.86 412.88 103.74 383.04 79.01C353.2 54.28 314.04 83.77 293.58 74.25C273.12 64.73 272.15 17.07 217.18 2.77999C162.21 -11.51 131.45 38.04 107.18 64.72C82.91 91.4 56 73.29 20.57 101.88C-14.43 130.15 15.25 258.17 41.15 287.69H380.61Z" fill="#A90100"/>
<path opacity="0.8" d="M380.61 287.69C383.43 277.13 392.61 241.69 398.88 205.74C406.33 162.86 412.88 103.74 383.04 79.01C353.2 54.28 314.04 83.77 293.58 74.25C273.12 64.73 272.15 17.07 217.18 2.77999C162.21 -11.51 131.45 38.04 107.18 64.72C82.91 91.4 56 73.29 20.57 101.88C-14.43 130.15 15.25 258.17 41.15 287.69H380.61Z" fill="white"/>
<path d="M127.91 40.45V71.59" stroke="white" stroke-linecap="round" stroke-linejoin="round"/>
<path d="M133.78 36.38V71.59" stroke="white" stroke-linecap="round" stroke-linejoin="round"/>
<path d="M139.65 36.38V71.59" stroke="white" stroke-linecap="round" stroke-linejoin="round"/>
<path d="M145.52 36.38V71.59" stroke="white" stroke-linecap="round" stroke-linejoin="round"/>
<path d="M183.64 35.86H148.42" stroke="white" stroke-linecap="round" stroke-linejoin="round"/>
<path d="M183.64 41.73H148.42" stroke="white" stroke-linecap="round" stroke-linejoin="round"/>
<path d="M183.64 47.6H148.42" stroke="white" stroke-linecap="round" stroke-linejoin="round"/>
<path d="M183.64 53.48H148.42" stroke="white" stroke-linecap="round" stroke-linejoin="round"/>
<path d="M183.64 59.35H148.42" stroke="white" stroke-linecap="round" stroke-linejoin="round"/>
<path d="M183.64 65.22H148.42" stroke="white" stroke-linecap="round" stroke-linejoin="round"/>
<path d="M183.64 71.09H148.42" stroke="white" stroke-linecap="round" stroke-linejoin="round"/>
<path d="M186.67 36.38V71.59" stroke="white" stroke-linecap="round" stroke-linejoin="round"/>
<path d="M192.54 36.38V71.59" stroke="white" stroke-linecap="round" stroke-linejoin="round"/>
<path d="M198.41 36.38V71.59" stroke="white" stroke-linecap="round" stroke-linejoin="round"/>
<path d="M204.28 36.38V71.59" stroke="white" stroke-linecap="round" stroke-linejoin="round"/>
<path d="M210.16 36.38V71.59" stroke="white" stroke-linecap="round" stroke-linejoin="round"/>
<path d="M216.03 36.38V71.59" stroke="white" stroke-linecap="round" stroke-linejoin="round"/>
<path d="M221.9 36.38V71.59" stroke="white" stroke-linecap="round" stroke-linejoin="round"/>
<path d="M260.02 35.86H224.8" stroke="white" stroke-linecap="round" stroke-linejoin="round"/>
<path d="M260.02 41.73H224.8" stroke="white" stroke-linecap="round" stroke-linejoin="round"/>
<path d="M260.02 47.6H224.8" stroke="white" stroke-linecap="round" stroke-linejoin="round"/>
<path d="M260.02 53.48H224.8" stroke="white" stroke-linecap="round" stroke-linejoin="round"/>
<path d="M260.02 59.35H224.8" stroke="white" stroke-linecap="round" stroke-linejoin="round"/>
<path d="M260.02 65.22H224.8" stroke="white" stroke-linecap="round" stroke-linejoin="round"/>
<path d="M260.02 71.09H224.8" stroke="white" stroke-linecap="round" stroke-linejoin="round"/>
<path d="M263.05 36.38V71.59" stroke="white" stroke-linecap="round" stroke-linejoin="round"/>
<path d="M268.92 41.41V71.59" stroke="white" stroke-linecap="round" stroke-linejoin="round"/>
<path d="M69.19 92.91H39.92" stroke="white" stroke-linecap="round" stroke-linejoin="round"/>
<path d="M69.19 98.78H33.98" stroke="white" stroke-linecap="round" stroke-linejoin="round"/>
<path d="M69.19 104.66H33.98" stroke="white" stroke-linecap="round" stroke-linejoin="round"/>
<path d="M69.19 110.53H33.98" stroke="white" stroke-linecap="round" stroke-linejoin="round"/>
<path d="M72.22 85.7V111.03" stroke="white" stroke-linecap="round" stroke-linejoin="round"/>
<path d="M78.09 85.06V111.03" stroke="white" stroke-linecap="round" stroke-linejoin="round"/>
<path d="M83.97 82.81V111.03" stroke="white" stroke-linecap="round" stroke-linejoin="round"/>
<path d="M89.84 80.56V111.03" stroke="white" stroke-linecap="round" stroke-linejoin="round"/>
<path d="M95.71 75.82V111.03" stroke="white" stroke-linecap="round" stroke-linejoin="round"/>
<path d="M101.58 75.82V111.03" stroke="white" stroke-linecap="round" stroke-linejoin="round"/>
<path d="M107.45 75.82V111.03" stroke="white" stroke-linecap="round" stroke-linejoin="round"/>
<path d="M145.57 75.3H110.36" stroke="white" stroke-linecap="round" stroke-linejoin="round"/>
<path d="M145.57 81.17H110.36" stroke="white" stroke-linecap="round" stroke-linejoin="round"/>
<path d="M145.57 87.04H110.36" stroke="white" stroke-linecap="round" stroke-linejoin="round"/>
<path d="M145.57 92.91H110.36" stroke="white" stroke-linecap="round" stroke-linejoin="round"/>
<path d="M145.57 98.78H110.36" stroke="white" stroke-linecap="round" stroke-linejoin="round"/>
<path d="M145.57 104.66H110.36" stroke="white" stroke-linecap="round" stroke-linejoin="round"/>
<path d="M145.57 110.53H110.36" stroke="white" stroke-linecap="round" stroke-linejoin="round"/>
<path d="M148.6 75.82V111.03" stroke="white" stroke-linecap="round" stroke-linejoin="round"/>
<path d="M154.47 75.82V111.03" stroke="white" stroke-linecap="round" stroke-linejoin="round"/>
<path d="M160.34 75.82V111.03" stroke="white" stroke-linecap="round" stroke-linejoin="round"/>
<path d="M166.22 75.82V111.03" stroke="white" stroke-linecap="round" stroke-linejoin="round"/>
<path d="M172.09 75.82V111.03" stroke="white" stroke-linecap="round" stroke-linejoin="round"/>
<path d="M177.96 75.82V111.03" stroke="white" stroke-linecap="round" stroke-linejoin="round"/>
<path d="M183.83 75.82V111.03" stroke="white" stroke-linecap="round" stroke-linejoin="round"/>
<path d="M221.95 75.3H186.74" stroke="white" stroke-linecap="round" stroke-linejoin="round"/>
<path d="M221.95 81.17H186.74" stroke="white" stroke-linecap="round" stroke-linejoin="round"/>
<path d="M221.95 87.04H186.74" stroke="white" stroke-linecap="round" stroke-linejoin="round"/>
<path d="M221.95 92.91H186.74" stroke="white" stroke-linecap="round" stroke-linejoin="round"/>
<path d="M221.95 98.78H186.74" stroke="white" stroke-linecap="round" stroke-linejoin="round"/>
<path d="M221.95 104.66H186.74" stroke="white" stroke-linecap="round" stroke-linejoin="round"/>
<path d="M221.95 110.53H186.74" stroke="white" stroke-linecap="round" stroke-linejoin="round"/>
<path d="M224.98 75.82V111.03" stroke="white" stroke-linecap="round" stroke-linejoin="round"/>
<path d="M230.85 75.82V111.03" stroke="white" stroke-linecap="round" stroke-linejoin="round"/>
<path d="M236.72 75.82V111.03" stroke="white" stroke-linecap="round" stroke-linejoin="round"/>
<path d="M242.6 75.82V111.03" stroke="white" stroke-linecap="round" stroke-linejoin="round"/>
<path d="M248.47 75.82V111.03" stroke="white" stroke-linecap="round" stroke-linejoin="round"/>
<path d="M254.34 75.82V111.03" stroke="white" stroke-linecap="round" stroke-linejoin="round"/>
<path d="M260.21 75.82V111.03" stroke="white" stroke-linecap="round" stroke-linejoin="round"/>
<path d="M298.33 75.3H263.12" stroke="white" stroke-linecap="round" stroke-linejoin="round"/>
<path d="M298.33 81.17H263.12" stroke="white" stroke-linecap="round" stroke-linejoin="round"/>
<path d="M298.33 87.04H263.12" stroke="white" stroke-linecap="round" stroke-linejoin="round"/>
<path d="M298.33 92.91H263.12" stroke="white" stroke-linecap="round" stroke-linejoin="round"/>
<path d="M298.33 98.78H263.12" stroke="white" stroke-linecap="round" stroke-linejoin="round"/>
<path d="M298.33 104.66H263.12" stroke="white" stroke-linecap="round" stroke-linejoin="round"/>
<path d="M298.33 110.53H263.12" stroke="white" stroke-linecap="round" stroke-linejoin="round"/>
<path d="M301.36 75.82V111.03" stroke="white" stroke-linecap="round" stroke-linejoin="round"/>
<path d="M307.23 83.45V111.03" stroke="white" stroke-linecap="round" stroke-linejoin="round"/>
<path d="M313.1 83.45V111.03" stroke="white" stroke-linecap="round" stroke-linejoin="round"/>
<path d="M318.98 81.53V111.03" stroke="white" stroke-linecap="round" stroke-linejoin="round"/>
<path d="M324.85 79.28V111.03" stroke="white" stroke-linecap="round" stroke-linejoin="round"/>
<path d="M330.72 78V111.03" stroke="white" stroke-linecap="round" stroke-linejoin="round"/>
<path d="M336.59 75.82V111.03" stroke="white" stroke-linecap="round" stroke-linejoin="round"/>
<path d="M374.71 81.17H339.49" stroke="white" stroke-linecap="round" stroke-linejoin="round"/>
<path d="M374.71 87.04H339.49" stroke="white" stroke-linecap="round" stroke-linejoin="round"/>
<path d="M374.71 92.91H339.49" stroke="white" stroke-linecap="round" stroke-linejoin="round"/>
<path d="M374.71 98.78H339.49" stroke="white" stroke-linecap="round" stroke-linejoin="round"/>
<path d="M374.71 104.66H339.49" stroke="white" stroke-linecap="round" stroke-linejoin="round"/>
<path d="M374.71 110.53H339.49" stroke="white" stroke-linecap="round" stroke-linejoin="round"/>
<path d="M33.91 115.72V150.93" stroke="white" stroke-linecap="round" stroke-linejoin="round"/>
<path d="M39.78 115.72V150.93" stroke="white" stroke-linecap="round" stroke-linejoin="round"/>
<path d="M45.65 115.72V150.93" stroke="white" stroke-linecap="round" stroke-linejoin="round"/>
<path d="M51.53 115.72V150.93" stroke="white" stroke-linecap="round" stroke-linejoin="round"/>
<path d="M57.4 115.72V150.93" stroke="white" stroke-linecap="round" stroke-linejoin="round"/>
<path d="M63.27 115.72V150.93" stroke="white" stroke-linecap="round" stroke-linejoin="round"/>
<path d="M69.14 115.72V150.93" stroke="white" stroke-linecap="round" stroke-linejoin="round"/>
<path d="M107.26 115.19H72.04" stroke="white" stroke-linecap="round" stroke-linejoin="round"/>
<path d="M107.26 121.06H72.04" stroke="white" stroke-linecap="round" stroke-linejoin="round"/>
<path d="M107.26 126.94H72.04" stroke="white" stroke-linecap="round" stroke-linejoin="round"/>
<path d="M107.26 132.81H72.04" stroke="white" stroke-linecap="round" stroke-linejoin="round"/>
<path d="M107.26 138.68H72.04" stroke="white" stroke-linecap="round" stroke-linejoin="round"/>
<path d="M107.26 144.55H72.04" stroke="white" stroke-linecap="round" stroke-linejoin="round"/>
<path d="M107.26 150.42H72.04" stroke="white" stroke-linecap="round" stroke-linejoin="round"/>
<path d="M110.29 115.72V150.93" stroke="white" stroke-linecap="round" stroke-linejoin="round"/>
<path d="M116.16 115.72V150.93" stroke="white" stroke-linecap="round" stroke-linejoin="round"/>
<path d="M122.03 115.72V150.93" stroke="white" stroke-linecap="round" stroke-linejoin="round"/>
<path d="M127.91 115.72V150.93" stroke="white" stroke-linecap="round" stroke-linejoin="round"/>
<path d="M133.78 115.72V150.93" stroke="white" stroke-linecap="round" stroke-linejoin="round"/>
<path d="M139.65 115.72V150.93" stroke="white" stroke-linecap="round" stroke-linejoin="round"/>
<path d="M145.52 115.72V150.93" stroke="white" stroke-linecap="round" stroke-linejoin="round"/>
<path d="M183.64 115.19H148.42" stroke="white" stroke-linecap="round" stroke-linejoin="round"/>
<path d="M183.64 121.06H148.42" stroke="white" stroke-linecap="round" stroke-linejoin="round"/>
<path d="M183.64 126.94H148.42" stroke="white" stroke-linecap="round" stroke-linejoin="round"/>
<path d="M183.64 132.81H148.42" stroke="white" stroke-linecap="round" stroke-linejoin="round"/>
<path d="M183.64 138.68H148.42" stroke="white" stroke-linecap="round" stroke-linejoin="round"/>
<path d="M183.64 144.55H148.42" stroke="white" stroke-linecap="round" stroke-linejoin="round"/>
<path d="M183.64 150.42H148.42" stroke="white" stroke-linecap="round" stroke-linejoin="round"/>
<path d="M186.67 115.72V150.93" stroke="white" stroke-linecap="round" stroke-linejoin="round"/>
<path d="M192.54 115.72V150.93" stroke="white" stroke-linecap="round" stroke-linejoin="round"/>
<path d="M198.41 115.72V150.93" stroke="white" stroke-linecap="round" stroke-linejoin="round"/>
<path d="M204.28 115.72V150.93" stroke="white" stroke-linecap="round" stroke-linejoin="round"/>
<path d="M210.16 115.72V150.93" stroke="white" stroke-linecap="round" stroke-linejoin="round"/>
<path d="M216.03 115.72V150.93" stroke="white" stroke-linecap="round" stroke-linejoin="round"/>
<path d="M221.9 115.72V150.93" stroke="white" stroke-linecap="round" stroke-linejoin="round"/>
<path d="M260.02 115.19H224.8" stroke="white" stroke-linecap="round" stroke-linejoin="round"/>
<path d="M260.02 121.06H224.8" stroke="white" stroke-linecap="round" stroke-linejoin="round"/>
<path d="M260.02 126.94H224.8" stroke="white" stroke-linecap="round" stroke-linejoin="round"/>
<path d="M260.02 132.81H224.8" stroke="white" stroke-linecap="round" stroke-linejoin="round"/>
<path d="M260.02 138.68H224.8" stroke="white" stroke-linecap="round" stroke-linejoin="round"/>
<path d="M260.02 144.55H224.8" stroke="white" stroke-linecap="round" stroke-linejoin="round"/>
<path d="M260.02 150.42H224.8" stroke="white" stroke-linecap="round" stroke-linejoin="round"/>
<path d="M263.05 115.72V150.93" stroke="white" stroke-linecap="round" stroke-linejoin="round"/>
<path d="M268.92 115.72V150.93" stroke="white" stroke-linecap="round" stroke-linejoin="round"/>
<path d="M274.79 115.72V150.93" stroke="white" stroke-linecap="round" stroke-linejoin="round"/>
<path d="M280.66 115.72V150.93" stroke="white" stroke-linecap="round" stroke-linejoin="round"/>
<path d="M286.54 115.72V150.93" stroke="white" stroke-linecap="round" stroke-linejoin="round"/>
<path d="M292.41 115.72V150.93" stroke="white" stroke-linecap="round" stroke-linejoin="round"/>
<path d="M298.28 115.72V150.93" stroke="white" stroke-linecap="round" stroke-linejoin="round"/>
<path d="M336.39 115.19H301.18" stroke="white" stroke-linecap="round" stroke-linejoin="round"/>
<path d="M336.39 121.06H301.18" stroke="white" stroke-linecap="round" stroke-linejoin="round"/>
<path d="M336.39 126.94H301.18" stroke="white" stroke-linecap="round" stroke-linejoin="round"/>
<path d="M336.39 132.81H301.18" stroke="white" stroke-linecap="round" stroke-linejoin="round"/>
<path d="M336.39 138.68H301.18" stroke="white" stroke-linecap="round" stroke-linejoin="round"/>
<path d="M336.39 144.55H301.18" stroke="white" stroke-linecap="round" stroke-linejoin="round"/>
<path d="M336.39 150.42H301.18" stroke="white" stroke-linecap="round" stroke-linejoin="round"/>
<path d="M339.43 115.72V150.93" stroke="white" stroke-linecap="round" stroke-linejoin="round"/>
<path d="M345.3 115.72V150.93" stroke="white" stroke-linecap="round" stroke-linejoin="round"/>
<path d="M351.17 115.72V150.93" stroke="white" stroke-linecap="round" stroke-linejoin="round"/>
<path d="M357.04 115.72V150.93" stroke="white" stroke-linecap="round" stroke-linejoin="round"/>
<path d="M362.92 115.72V150.93" stroke="white" stroke-linecap="round" stroke-linejoin="round"/>
<path d="M368.79 115.72V150.93" stroke="white" stroke-linecap="round" stroke-linejoin="round"/>
<path d="M374.66 115.72V150.93" stroke="white" stroke-linecap="round" stroke-linejoin="round"/>
<path d="M69.19 154.63H33.98" stroke="white" stroke-linecap="round" stroke-linejoin="round"/>
<path d="M69.19 160.5H33.98" stroke="white" stroke-linecap="round" stroke-linejoin="round"/>
<path d="M69.19 166.37H33.98" stroke="white" stroke-linecap="round" stroke-linejoin="round"/>
<path d="M69.19 172.25H33.98" stroke="white" stroke-linecap="round" stroke-linejoin="round"/>
<path d="M69.19 178.12H33.98" stroke="white" stroke-linecap="round" stroke-linejoin="round"/>
<path d="M69.19 183.99H33.98" stroke="white" stroke-linecap="round" stroke-linejoin="round"/>
<path d="M69.19 189.86H33.98" stroke="white" stroke-linecap="round" stroke-linejoin="round"/>
<path d="M72.22 155.15V190.36" stroke="white" stroke-linecap="round" stroke-linejoin="round"/>
<path d="M78.09 155.15V190.36" stroke="white" stroke-linecap="round" stroke-linejoin="round"/>
<path d="M83.97 155.15V190.36" stroke="white" stroke-linecap="round" stroke-linejoin="round"/>
<path d="M89.84 155.15V190.36" stroke="white" stroke-linecap="round" stroke-linejoin="round"/>
<path d="M95.71 155.15V190.36" stroke="white" stroke-linecap="round" stroke-linejoin="round"/>
<path d="M101.58 155.15V190.36" stroke="white" stroke-linecap="round" stroke-linejoin="round"/>
<path d="M107.45 155.15V190.36" stroke="white" stroke-linecap="round" stroke-linejoin="round"/>
<path d="M145.57 154.63H110.36" stroke="white" stroke-linecap="round" stroke-linejoin="round"/>
<path d="M145.57 160.5H110.36" stroke="white" stroke-linecap="round" stroke-linejoin="round"/>
<path d="M145.57 166.37H110.36" stroke="white" stroke-linecap="round" stroke-linejoin="round"/>
<path d="M145.57 172.25H110.36" stroke="white" stroke-linecap="round" stroke-linejoin="round"/>
<path d="M145.57 178.12H110.36" stroke="white" stroke-linecap="round" stroke-linejoin="round"/>
<path d="M145.57 183.99H110.36" stroke="white" stroke-linecap="round" stroke-linejoin="round"/>
<path d="M145.57 189.86H110.36" stroke="white" stroke-linecap="round" stroke-linejoin="round"/>
<path d="M148.6 155.15V190.36" stroke="white" stroke-linecap="round" stroke-linejoin="round"/>
<path d="M154.47 155.15V190.36" stroke="white" stroke-linecap="round" stroke-linejoin="round"/>
<path d="M160.34 155.15V190.36" stroke="white" stroke-linecap="round" stroke-linejoin="round"/>
<path d="M166.22 155.15V190.36" stroke="white" stroke-linecap="round" stroke-linejoin="round"/>
<path d="M172.09 155.15V190.36" stroke="white" stroke-linecap="round" stroke-linejoin="round"/>
<path d="M177.96 155.15V190.36" stroke="white" stroke-linecap="round" stroke-linejoin="round"/>
<path d="M183.83 155.15V190.36" stroke="white" stroke-linecap="round" stroke-linejoin="round"/>
<path d="M221.95 154.63H186.74" stroke="white" stroke-linecap="round" stroke-linejoin="round"/>
<path d="M221.95 160.5H186.74" stroke="white" stroke-linecap="round" stroke-linejoin="round"/>
<path d="M221.95 166.37H186.74" stroke="white" stroke-linecap="round" stroke-linejoin="round"/>
<path d="M221.95 172.25H186.74" stroke="white" stroke-linecap="round" stroke-linejoin="round"/>
<path d="M221.95 178.12H186.74" stroke="white" stroke-linecap="round" stroke-linejoin="round"/>
<path d="M221.95 183.99H186.74" stroke="white" stroke-linecap="round" stroke-linejoin="round"/>
<path d="M221.95 189.86H186.74" stroke="white" stroke-linecap="round" stroke-linejoin="round"/>
<path d="M224.98 155.15V190.36" stroke="white" stroke-linecap="round" stroke-linejoin="round"/>
<path d="M230.85 155.15V190.36" stroke="white" stroke-linecap="round" stroke-linejoin="round"/>
<path d="M236.72 155.15V190.36" stroke="white" stroke-linecap="round" stroke-linejoin="round"/>
<path d="M242.6 155.15V190.36" stroke="white" stroke-linecap="round" stroke-linejoin="round"/>
<path d="M248.47 155.15V190.36" stroke="white" stroke-linecap="round" stroke-linejoin="round"/>
<path d="M254.34 155.15V190.36" stroke="white" stroke-linecap="round" stroke-linejoin="round"/>
<path d="M260.21 155.15V190.36" stroke="white" stroke-linecap="round" stroke-linejoin="round"/>
<path d="M298.33 154.63H263.12" stroke="white" stroke-linecap="round" stroke-linejoin="round"/>
<path d="M298.33 160.5H263.12" stroke="white" stroke-linecap="round" stroke-linejoin="round"/>
<path d="M298.33 166.37H263.12" stroke="white" stroke-linecap="round" stroke-linejoin="round"/>
<path d="M298.33 172.25H263.12" stroke="white" stroke-linecap="round" stroke-linejoin="round"/>
<path d="M298.33 178.12H263.12" stroke="white" stroke-linecap="round" stroke-linejoin="round"/>
<path d="M298.33 183.99H263.12" stroke="white" stroke-linecap="round" stroke-linejoin="round"/>
<path d="M298.33 189.86H263.12" stroke="white" stroke-linecap="round" stroke-linejoin="round"/>
<path d="M301.36 155.15V190.36" stroke="white" stroke-linecap="round" stroke-linejoin="round"/>
<path d="M307.23 155.15V190.36" stroke="white" stroke-linecap="round" stroke-linejoin="round"/>
<path d="M313.1 155.15V190.36" stroke="white" stroke-linecap="round" stroke-linejoin="round"/>
<path d="M318.98 155.15V190.36" stroke="white" stroke-linecap="round" stroke-linejoin="round"/>
<path d="M324.85 155.15V190.36" stroke="white" stroke-linecap="round" stroke-linejoin="round"/>
<path d="M330.72 155.15V190.36" stroke="white" stroke-linecap="round" stroke-linejoin="round"/>
<path d="M336.59 155.15V190.36" stroke="white" stroke-linecap="round" stroke-linejoin="round"/>
<path d="M374.71 154.63H339.49" stroke="white" stroke-linecap="round" stroke-linejoin="round"/>
<path d="M374.71 160.5H339.49" stroke="white" stroke-linecap="round" stroke-linejoin="round"/>
<path d="M374.71 166.37H339.49" stroke="white" stroke-linecap="round" stroke-linejoin="round"/>
<path d="M374.71 172.25H339.49" stroke="white" stroke-linecap="round" stroke-linejoin="round"/>
<path d="M374.71 178.12H339.49" stroke="white" stroke-linecap="round" stroke-linejoin="round"/>
<path d="M374.71 183.99H339.49" stroke="white" stroke-linecap="round" stroke-linejoin="round"/>
<path d="M374.71 189.86H339.49" stroke="white" stroke-linecap="round" stroke-linejoin="round"/>
<path d="M33.91 195.05V230.26" stroke="white" stroke-linecap="round" stroke-linejoin="round"/>
<path d="M39.78 195.05V230.26" stroke="white" stroke-linecap="round" stroke-linejoin="round"/>
<path d="M45.65 195.05V230.26" stroke="white" stroke-linecap="round" stroke-linejoin="round"/>
<path d="M51.53 195.05V230.26" stroke="white" stroke-linecap="round" stroke-linejoin="round"/>
<path d="M57.4 195.05V230.26" stroke="white" stroke-linecap="round" stroke-linejoin="round"/>
<path d="M63.27 195.05V230.26" stroke="white" stroke-linecap="round" stroke-linejoin="round"/>
<path d="M69.14 195.05V230.26" stroke="white" stroke-linecap="round" stroke-linejoin="round"/>
<path d="M107.26 194.53H72.04" stroke="white" stroke-linecap="round" stroke-linejoin="round"/>
<path d="M107.26 200.4H72.04" stroke="white" stroke-linecap="round" stroke-linejoin="round"/>
<path d="M107.26 206.27H72.04" stroke="white" stroke-linecap="round" stroke-linejoin="round"/>
<path d="M107.26 212.14H72.04" stroke="white" stroke-linecap="round" stroke-linejoin="round"/>
<path d="M107.26 218.01H72.04" stroke="white" stroke-linecap="round" stroke-linejoin="round"/>
<path d="M107.26 223.89H72.04" stroke="white" stroke-linecap="round" stroke-linejoin="round"/>
<path d="M107.26 229.76H72.04" stroke="white" stroke-linecap="round" stroke-linejoin="round"/>
<path d="M110.29 195.05V230.26" stroke="white" stroke-linecap="round" stroke-linejoin="round"/>
<path d="M116.16 195.05V230.26" stroke="white" stroke-linecap="round" stroke-linejoin="round"/>
<path d="M122.03 195.05V230.26" stroke="white" stroke-linecap="round" stroke-linejoin="round"/>
<path d="M127.91 195.05V230.26" stroke="white" stroke-linecap="round" stroke-linejoin="round"/>
<path d="M133.78 195.05V230.26" stroke="white" stroke-linecap="round" stroke-linejoin="round"/>
<path d="M139.65 195.05V230.26" stroke="white" stroke-linecap="round" stroke-linejoin="round"/>
<path d="M145.52 195.05V230.26" stroke="white" stroke-linecap="round" stroke-linejoin="round"/>
<path d="M183.64 194.53H148.42" stroke="white" stroke-linecap="round" stroke-linejoin="round"/>
<path d="M183.64 200.4H148.42" stroke="white" stroke-linecap="round" stroke-linejoin="round"/>
<path d="M183.64 206.27H148.42" stroke="white" stroke-linecap="round" stroke-linejoin="round"/>
<path d="M183.64 212.14H148.42" stroke="white" stroke-linecap="round" stroke-linejoin="round"/>
<path d="M183.64 218.01H148.42" stroke="white" stroke-linecap="round" stroke-linejoin="round"/>
<path d="M183.64 223.89H148.42" stroke="white" stroke-linecap="round" stroke-linejoin="round"/>
<path d="M183.64 229.76H148.42" stroke="white" stroke-linecap="round" stroke-linejoin="round"/>
<path d="M186.67 195.05V230.26" stroke="white" stroke-linecap="round" stroke-linejoin="round"/>
<path d="M192.54 195.05V230.26" stroke="white" stroke-linecap="round" stroke-linejoin="round"/>
<path d="M198.41 195.05V230.26" stroke="white" stroke-linecap="round" stroke-linejoin="round"/>
<path d="M204.28 195.05V230.26" stroke="white" stroke-linecap="round" stroke-linejoin="round"/>
<path d="M210.16 195.05V230.26" stroke="white" stroke-linecap="round" stroke-linejoin="round"/>
<path d="M216.03 195.05V230.26" stroke="white" stroke-linecap="round" stroke-linejoin="round"/>
<path d="M221.9 195.05V230.26" stroke="white" stroke-linecap="round" stroke-linejoin="round"/>
<path d="M260.02 194.53H224.8" stroke="white" stroke-linecap="round" stroke-linejoin="round"/>
<path d="M260.02 200.4H224.8" stroke="white" stroke-linecap="round" stroke-linejoin="round"/>
<path d="M260.02 206.27H224.8" stroke="white" stroke-linecap="round" stroke-linejoin="round"/>
<path d="M260.02 212.14H224.8" stroke="white" stroke-linecap="round" stroke-linejoin="round"/>
<path d="M260.02 218.01H224.8" stroke="white" stroke-linecap="round" stroke-linejoin="round"/>
<path d="M260.02 223.89H224.8" stroke="white" stroke-linecap="round" stroke-linejoin="round"/>
<path d="M260.02 229.76H224.8" stroke="white" stroke-linecap="round" stroke-linejoin="round"/>
<path d="M263.05 195.05V230.26" stroke="white" stroke-linecap="round" stroke-linejoin="round"/>
<path d="M268.92 195.05V230.26" stroke="white" stroke-linecap="round" stroke-linejoin="round"/>
<path d="M274.79 195.05V230.26" stroke="white" stroke-linecap="round" stroke-linejoin="round"/>
<path d="M280.66 195.05V230.26" stroke="white" stroke-linecap="round" stroke-linejoin="round"/>
<path d="M286.54 195.05V230.26" stroke="white" stroke-linecap="round" stroke-linejoin="round"/>
<path d="M292.41 195.05V230.26" stroke="white" stroke-linecap="round" stroke-linejoin="round"/>
<path d="M298.28 195.05V230.26" stroke="white" stroke-linecap="round" stroke-linejoin="round"/>
<path d="M336.39 194.53H301.18" stroke="white" stroke-linecap="round" stroke-linejoin="round"/>
<path d="M336.39 200.4H301.18" stroke="white" stroke-linecap="round" stroke-linejoin="round"/>
<path d="M336.39 206.27H301.18" stroke="white" stroke-linecap="round" stroke-linejoin="round"/>
<path d="M336.39 212.14H301.18" stroke="white" stroke-linecap="round" stroke-linejoin="round"/>
<path d="M336.39 218.01H301.18" stroke="white" stroke-linecap="round" stroke-linejoin="round"/>
<path d="M336.39 223.89H301.18" stroke="white" stroke-linecap="round" stroke-linejoin="round"/>
<path d="M336.39 229.76H301.18" stroke="white" stroke-linecap="round" stroke-linejoin="round"/>
<path d="M339.43 195.05V230.26" stroke="white" stroke-linecap="round" stroke-linejoin="round"/>
<path d="M345.3 195.05V230.26" stroke="white" stroke-linecap="round" stroke-linejoin="round"/>
<path d="M351.17 195.05V230.26" stroke="white" stroke-linecap="round" stroke-linejoin="round"/>
<path d="M357.04 195.05V230.26" stroke="white" stroke-linecap="round" stroke-linejoin="round"/>
<path d="M362.92 195.05V230.26" stroke="white" stroke-linecap="round" stroke-linejoin="round"/>
<path d="M368.79 195.05V230.26" stroke="white" stroke-linecap="round" stroke-linejoin="round"/>
<path d="M374.66 195.05V230.26" stroke="white" stroke-linecap="round" stroke-linejoin="round"/>
<path d="M400.94 228.53C400.94 228.53 401.72 225.67 401.74 225.53C402.05 223.36 401.35 219 399.15 217.94C398.779 217.772 398.377 217.685 397.97 217.683C397.562 217.681 397.159 217.765 396.787 217.929C396.414 218.093 396.08 218.334 395.807 218.635C395.534 218.937 395.327 219.293 395.2 219.68C394.61 221.31 395.36 223.3 396.25 224.68C397.29 226.23 400.93 228.52 400.94 228.53Z" fill="#A90100"/>
<path d="M357.45 227.58C359.2 228.35 363.5 228.25 363.51 228.25C363.52 228.25 362.58 225.44 362.51 225.25C361.57 223.25 358.58 220.01 356.16 220.34C355.759 220.405 355.375 220.555 355.035 220.778C354.695 221.001 354.406 221.293 354.186 221.636C353.966 221.978 353.821 222.363 353.76 222.765C353.698 223.167 353.722 223.578 353.83 223.97C354.22 225.68 356 226.93 357.45 227.58Z" fill="#A90100"/>
<path d="M364.12 218.86C364.02 219.55 363.93 220.29 363.84 221.11C363.69 222.61 363.54 224.31 363.49 226.17C363.428 228.171 363.479 230.174 363.64 232.17C363.816 234.408 364.187 236.627 364.75 238.8V238.88C364.36 238.27 363.23 236.61 363.12 236.5C361.69 234.84 357.96 232.5 355.7 233.45C355.331 233.619 355.001 233.864 354.732 234.168C354.464 234.473 354.263 234.831 354.142 235.219C354.021 235.607 353.984 236.016 354.032 236.419C354.079 236.823 354.212 237.211 354.42 237.56C355.25 239.08 357.24 239.83 358.86 240.06C360.68 240.33 364.52 239.22 364.86 239.13C365.489 241.326 366.264 243.477 367.18 245.57C367.71 246.79 368.28 248 368.87 249.21C368.52 248.7 368.2 248.21 368.15 248.21C366.72 246.55 362.98 244.21 360.72 245.15C360.35 245.32 360.02 245.566 359.752 245.871C359.483 246.177 359.282 246.536 359.162 246.925C359.041 247.313 359.003 247.723 359.051 248.127C359.099 248.531 359.232 248.92 359.44 249.27C360.27 250.79 362.27 251.54 363.88 251.77C365.49 252 368.81 251.13 369.68 250.88L370.37 252.27C371.48 254.48 372.6 256.69 373.63 258.88C373.99 259.65 374.32 260.43 374.63 261.2C374.32 260.75 374.06 260.37 374.01 260.31C372.58 258.66 368.84 256.31 366.59 257.26C366.219 257.429 365.889 257.674 365.619 257.979C365.35 258.285 365.147 258.643 365.026 259.032C364.904 259.421 364.865 259.831 364.913 260.235C364.96 260.64 365.092 261.03 365.3 261.38C366.14 262.9 368.13 263.65 369.75 263.88C371.37 264.11 374.36 263.32 375.39 263.03C375.71 263.84 376.02 264.64 376.3 265.43C376.47 265.98 376.67 266.49 376.81 267.05C376.95 267.61 377.12 268.14 377.27 268.68C377.52 269.73 377.79 270.8 378.01 271.83C378.16 272.54 378.3 273.23 378.44 273.91C378.09 273.14 377.37 271.64 377.29 271.52C376.13 269.67 372.79 266.78 370.41 267.38C370.019 267.492 369.655 267.685 369.343 267.946C369.031 268.208 368.778 268.532 368.6 268.898C368.421 269.264 368.322 269.664 368.308 270.071C368.295 270.478 368.367 270.883 368.52 271.26C369.12 272.88 370.97 273.92 372.52 274.4C374.25 274.93 378.05 274.4 378.52 274.4C378.75 275.54 378.96 276.65 379.14 277.7C379.72 281 380.14 283.81 380.35 285.9H382C381.7 283.77 381.25 280.9 380.57 277.43C380.34 276.28 380.07 275.05 379.79 273.78C380.937 273.324 382.056 272.8 383.14 272.21C384.614 273.48 386.256 274.54 388.02 275.36C387.58 276.43 387.15 277.47 386.72 278.45C385.4 281.45 384.18 284.03 383.23 285.9H385.04C385.89 284.08 386.94 281.75 388.04 279.01C388.49 277.92 388.95 276.75 389.4 275.54C389.86 275.64 393.64 276.4 395.4 276.01C397 275.65 398.93 274.75 399.64 273.17C399.818 272.805 399.917 272.407 399.932 272.002C399.946 271.597 399.876 271.193 399.725 270.816C399.575 270.439 399.347 270.098 399.057 269.815C398.766 269.531 398.42 269.312 398.04 269.17C395.72 268.39 392.17 271.03 390.87 272.79C390.8 272.9 390.09 274.11 389.66 274.89C389.84 274.4 390.03 273.89 390.21 273.41C390.58 272.41 390.92 271.41 391.29 270.28C391.45 269.75 391.62 269.21 391.78 268.66C391.94 268.11 392.07 267.53 392.22 266.96C392.53 265.64 392.79 264.28 393.01 262.9C393.9 263.23 397.01 264.33 398.7 264.21C400.39 264.09 402.37 263.5 403.31 262.05C403.544 261.715 403.704 261.334 403.78 260.933C403.857 260.531 403.847 260.119 403.753 259.721C403.658 259.324 403.481 258.951 403.232 258.626C402.984 258.302 402.669 258.034 402.31 257.84C400.13 256.72 396.23 258.79 394.68 260.34C394.58 260.43 393.59 261.66 393.06 262.34C393.19 261.51 393.33 260.69 393.43 259.85C393.73 257.42 393.96 254.95 394.2 252.49L394.44 250.23C394.75 250.35 398.44 251.74 400.31 251.61C401.94 251.5 403.99 250.9 404.93 249.45C405.164 249.116 405.324 248.736 405.4 248.335C405.476 247.935 405.467 247.522 405.372 247.126C405.278 246.729 405.1 246.357 404.852 246.033C404.603 245.71 404.289 245.443 403.93 245.25C401.75 244.12 397.85 246.19 396.3 247.74C396.18 247.85 394.76 249.63 394.42 250.1C394.6 248.44 394.79 246.79 395.04 245.18C395.374 242.996 395.845 240.835 396.45 238.71C396.6 238.76 400.45 240.23 402.36 240.1C403.99 239.98 406.03 239.39 406.98 237.94C407.212 237.604 407.371 237.224 407.446 236.823C407.522 236.422 407.512 236.009 407.418 235.612C407.324 235.215 407.147 234.842 406.899 234.518C406.651 234.194 406.338 233.925 405.98 233.73C403.81 232.61 399.9 234.68 398.35 236.22C398.25 236.32 397.17 237.68 396.67 238.33L396.55 238.27C397.219 236.148 398.076 234.09 399.11 232.12C399.67 231.03 400.26 230.02 400.86 229.05C401.56 229.4 404.76 230.95 406.46 231.05C408.16 231.15 410.19 230.74 411.29 229.41C411.59 229.116 411.823 228.761 411.973 228.369C412.124 227.977 412.187 227.557 412.159 227.138C412.132 226.719 412.014 226.311 411.814 225.942C411.614 225.573 411.336 225.252 411 225C409 223.65 404.85 225.28 403.14 226.64C403.05 226.71 402.19 227.57 401.57 228.21C401.85 227.77 402.12 227.32 402.4 226.91C403.4 225.37 404.46 224.02 405.4 222.83C405.93 222.16 406.4 221.56 406.89 221.01C407.75 221.01 411.22 220.89 412.74 220.18C414.26 219.47 415.91 218.18 416.26 216.49C416.358 216.095 416.371 215.684 416.3 215.284C416.229 214.883 416.074 214.502 415.845 214.166C415.617 213.829 415.321 213.544 414.975 213.33C414.63 213.115 414.243 212.975 413.84 212.92C411.4 212.66 408.51 216 407.62 218C407.54 218.17 406.62 221 406.7 221H406.75C406.29 221.52 405.8 222.09 405.28 222.72C404.28 223.89 403.28 225.22 402.2 226.72C401.035 228.353 399.967 230.052 399 231.81C397.883 233.785 396.946 235.857 396.2 238C396.203 238.027 396.203 238.053 396.2 238.08C396.2 237.36 396.2 235.35 396.2 235.2C395.92 233.03 394.1 229 391.69 228.56C391.289 228.496 390.878 228.518 390.486 228.624C390.093 228.729 389.727 228.917 389.412 229.173C389.097 229.43 388.839 229.75 388.656 230.113C388.473 230.476 388.369 230.874 388.35 231.28C388.21 233.01 389.46 234.73 390.68 235.82C391.9 236.91 395.87 238.24 396.17 238.33C395.466 240.514 394.908 242.742 394.5 245C394.26 246.31 394.07 247.64 393.89 249C393.89 248.38 393.89 247.83 393.89 247.75C393.61 245.58 391.79 241.56 389.38 241.11C388.978 241.042 388.566 241.059 388.172 241.161C387.777 241.262 387.408 241.446 387.089 241.7C386.77 241.954 386.508 242.272 386.321 242.634C386.133 242.996 386.024 243.393 386 243.8C385.86 245.52 387.11 247.25 388.32 248.33C389.53 249.41 392.79 250.52 393.65 250.79C393.59 251.3 393.52 251.79 393.46 252.33C393.17 254.78 392.88 257.24 392.53 259.64C392.41 260.48 392.26 261.31 392.11 262.14C392.11 261.59 392.11 261.14 392.11 261.05C391.83 258.89 390.01 254.86 387.6 254.41C387.198 254.346 386.786 254.368 386.393 254.474C386 254.581 385.634 254.769 385.318 255.027C385.003 255.284 384.746 255.606 384.563 255.97C384.381 256.334 384.278 256.733 384.26 257.14C384.11 258.86 385.36 260.59 386.58 261.68C387.8 262.77 390.74 263.75 391.76 264.08C391.58 264.93 391.4 265.77 391.19 266.58C391.03 267.13 390.92 267.68 390.73 268.22C390.54 268.76 390.38 269.3 390.21 269.83C389.84 270.83 389.47 271.89 389.09 272.83C388.82 273.52 388.56 274.16 388.3 274.83C388.43 273.99 388.66 272.34 388.66 272.2C388.632 270.278 388.112 268.394 387.15 266.73C387.17 266.514 387.17 266.296 387.15 266.08C387.099 265.677 386.964 265.289 386.754 264.942C386.543 264.594 386.261 264.295 385.927 264.064C385.593 263.833 385.214 263.675 384.815 263.6C384.416 263.525 384.005 263.535 383.61 263.63C381.24 264.26 379.74 268.41 379.61 270.63C379.61 270.75 379.68 272.16 379.75 273.05C379.63 272.53 379.52 272.05 379.39 271.5C379.14 270.5 378.87 269.42 378.57 268.3C378.41 267.77 378.25 267.23 378.08 266.68C377.91 266.13 377.7 265.58 377.51 265.02C377.04 263.74 376.51 262.47 375.93 261.2C376.85 260.98 380.09 260.15 381.4 259.15C382.71 258.15 384.07 256.53 384.05 254.8C384.065 254.391 383.994 253.983 383.84 253.603C383.687 253.223 383.454 252.88 383.159 252.597C382.863 252.314 382.511 252.096 382.125 251.959C381.739 251.821 381.328 251.767 380.92 251.8C378.49 252.07 376.37 255.95 375.92 258.09C375.92 258.22 375.75 259.8 375.69 260.66C375.34 259.9 375 259.14 374.62 258.38C373.53 256.19 372.36 254 371.2 251.82L370.15 249.82C370.48 249.74 374.36 248.82 375.81 247.72C377.26 246.62 378.49 245.1 378.47 243.37C378.489 242.96 378.419 242.55 378.267 242.169C378.114 241.788 377.882 241.444 377.586 241.16C377.289 240.876 376.936 240.658 376.548 240.522C376.161 240.386 375.749 240.334 375.34 240.37C372.91 240.63 370.79 244.51 370.34 246.65C370.34 246.81 370.1 249.08 370.08 249.65C369.31 248.18 368.56 246.7 367.88 245.21C366.952 243.207 366.154 241.146 365.49 239.04C365.64 239.04 369.69 238.04 371.19 236.94C372.48 235.94 373.86 234.31 373.84 232.59C373.857 232.18 373.787 231.772 373.634 231.391C373.481 231.011 373.248 230.667 372.952 230.383C372.656 230.1 372.303 229.882 371.917 229.745C371.53 229.609 371.119 229.556 370.71 229.59C368.28 229.85 366.16 233.73 365.71 235.87C365.71 236.01 365.53 237.74 365.47 238.56H365.33C364.72 236.419 364.305 234.226 364.09 232.01C363.95 230.8 363.89 229.63 363.85 228.49C364.62 228.39 368.14 227.92 369.6 227.04C371.06 226.16 372.6 224.73 372.72 223.04C372.776 222.637 372.747 222.227 372.635 221.837C372.522 221.446 372.328 221.084 372.065 220.774C371.803 220.463 371.478 220.211 371.112 220.035C370.746 219.859 370.346 219.762 369.94 219.75C367.49 219.75 364.94 223.36 364.29 225.45C364.29 225.56 364 226.75 363.84 227.62C363.84 227.11 363.84 226.57 363.84 226.08C363.84 224.23 363.96 222.53 364.08 221.03C364.15 220.18 364.24 219.41 364.32 218.69C365.03 218.2 367.86 216.2 368.73 214.77C369.6 213.34 370.28 211.36 369.65 209.77C369.512 209.386 369.296 209.036 369.014 208.741C368.732 208.447 368.392 208.215 368.015 208.06C367.638 207.906 367.232 207.832 366.825 207.844C366.418 207.856 366.017 207.953 365.65 208.13C363.48 209.25 362.91 213.63 363.27 215.79C363.26 216 364.08 218.89 364.12 218.86Z" fill="#A90100"/>
<path d="M394.74 175.06C394.74 175.06 395.52 172.2 395.55 172.01C395.85 169.85 395.16 165.48 392.95 164.42C392.58 164.252 392.178 164.165 391.772 164.163C391.365 164.161 390.963 164.245 390.591 164.409C390.219 164.574 389.886 164.814 389.614 165.116C389.341 165.418 389.136 165.773 389.01 166.16C388.42 167.79 389.17 169.78 390.01 171.16C391.1 172.76 394.74 175.06 394.74 175.06Z" fill="#A90100"/>
<path d="M351.25 174.11C353.01 174.88 357.31 174.78 357.31 174.78C357.31 174.78 356.38 171.97 356.31 171.78C355.37 169.78 352.39 166.55 349.96 166.87C349.558 166.937 349.175 167.087 348.835 167.311C348.494 167.536 348.205 167.829 347.986 168.172C347.766 168.515 347.621 168.9 347.56 169.303C347.498 169.706 347.522 170.117 347.63 170.51C348 172.21 349.75 173.46 351.25 174.11Z" fill="#A90100"/>
<path d="M357.92 165.39C357.83 166.08 357.73 166.83 357.64 167.64C357.5 169.14 357.34 170.84 357.3 172.7C357.23 174.701 357.276 176.704 357.44 178.7C357.615 180.938 357.986 183.157 358.55 185.33V185.41C358.16 184.8 357.03 183.15 356.93 183.03C355.5 181.38 351.76 179.03 349.5 179.98C349.13 180.15 348.8 180.396 348.532 180.701C348.263 181.007 348.062 181.366 347.942 181.755C347.821 182.143 347.783 182.553 347.831 182.957C347.879 183.361 348.012 183.75 348.22 184.1C349.05 185.61 351.05 186.36 352.66 186.6C354.49 186.86 358.32 185.75 358.66 185.66C359.289 187.856 360.064 190.007 360.98 192.1C361.51 193.32 362.08 194.54 362.67 195.75C362.32 195.23 362 194.75 361.95 194.75C360.52 193.09 356.78 190.75 354.53 191.7C354.159 191.869 353.829 192.114 353.559 192.419C353.29 192.725 353.087 193.083 352.966 193.472C352.844 193.861 352.805 194.271 352.853 194.675C352.9 195.08 353.032 195.47 353.24 195.82C354.08 197.33 356.07 198.08 357.69 198.32C359.31 198.56 362.62 197.67 363.48 197.43L364.17 198.81C365.28 201.03 366.4 203.23 367.43 205.42C367.79 206.2 368.12 206.97 368.43 207.75C368.12 207.29 367.85 206.91 367.8 206.86C366.37 205.2 362.63 202.86 360.38 203.8C360.01 203.97 359.68 204.216 359.412 204.521C359.143 204.827 358.942 205.186 358.822 205.575C358.701 205.963 358.663 206.373 358.711 206.777C358.759 207.181 358.892 207.57 359.1 207.92C359.93 209.44 361.92 210.19 363.54 210.42C365.16 210.65 368.15 209.86 369.18 209.58C369.5 210.38 369.82 211.18 370.09 211.98C370.26 212.52 370.46 213.03 370.61 213.59L371.06 215.22C371.31 216.22 371.58 217.35 371.8 218.37C371.96 219.09 372.09 219.77 372.23 220.46C371.88 219.68 371.16 218.18 371.08 218.06C369.92 216.21 366.58 213.32 364.21 213.92C363.819 214.032 363.455 214.225 363.143 214.487C362.831 214.748 362.577 215.072 362.398 215.438C362.219 215.803 362.118 216.203 362.103 216.61C362.088 217.016 362.159 217.422 362.31 217.8C362.91 219.42 364.76 220.47 366.31 220.94C368.03 221.47 371.84 220.99 372.31 220.94C372.54 222.08 372.75 223.19 372.93 224.24C373.52 227.54 373.93 230.36 374.14 232.45H375.79C375.49 230.32 375.04 227.45 374.36 223.98C374.13 222.82 373.87 221.59 373.58 220.33C374.724 219.864 375.843 219.337 376.93 218.75C378.405 220.018 380.047 221.077 381.81 221.9C381.38 222.97 380.94 224.02 380.51 224.99C379.19 227.99 377.97 230.57 377.03 232.45H378.83C379.69 230.62 380.73 228.29 381.83 225.56C382.28 224.47 382.74 223.29 383.2 222.08C383.66 222.18 387.43 222.95 389.2 222.55C390.8 222.19 392.73 221.29 393.44 219.71C393.621 219.346 393.723 218.947 393.739 218.541C393.755 218.135 393.685 217.73 393.534 217.352C393.383 216.975 393.154 216.633 392.862 216.35C392.57 216.067 392.222 215.849 391.84 215.71C389.52 214.93 385.98 217.56 384.68 219.32C384.6 219.43 383.89 220.65 383.46 221.42C383.65 220.93 383.83 220.42 384.02 219.94C384.39 218.94 384.73 217.94 385.1 216.81C385.26 216.277 385.42 215.737 385.58 215.19C385.75 214.65 385.87 214.06 386.02 213.5C386.33 212.17 386.59 210.81 386.82 209.44C387.7 209.76 390.82 210.86 392.5 210.74C394.18 210.62 396.17 210.03 397.12 208.58C397.352 208.245 397.511 207.865 397.586 207.465C397.661 207.065 397.652 206.653 397.557 206.257C397.463 205.861 397.286 205.489 397.039 205.165C396.791 204.842 396.478 204.574 396.12 204.38C393.94 203.25 390.04 205.32 388.49 206.87C388.39 206.96 387.41 208.2 386.88 208.87C387.01 208.05 387.14 207.22 387.25 206.38C387.55 203.95 387.78 201.48 388.02 199.02C388.09 198.27 388.17 197.52 388.25 196.77C388.56 196.88 392.25 198.27 394.13 198.14C395.76 198.03 397.8 197.43 398.74 195.98C398.973 195.646 399.134 195.266 399.21 194.865C399.286 194.465 399.277 194.052 399.182 193.656C399.088 193.259 398.91 192.887 398.662 192.563C398.413 192.24 398.099 191.973 397.74 191.78C395.56 190.66 391.66 192.78 390.11 194.27C389.99 194.38 388.57 196.16 388.23 196.63C388.41 194.97 388.6 193.33 388.85 191.71C389.184 189.526 389.654 187.365 390.26 185.24C390.41 185.3 394.26 186.76 396.17 186.63C397.8 186.52 399.85 185.92 400.79 184.47C401.022 184.135 401.181 183.755 401.256 183.355C401.331 182.955 401.322 182.543 401.227 182.147C401.133 181.751 400.956 181.379 400.709 181.055C400.461 180.732 400.148 180.464 399.79 180.27C397.61 179.14 393.71 181.21 392.16 182.76C392.05 182.86 390.97 184.21 390.47 184.86L390.35 184.8C391.018 182.68 391.879 180.624 392.92 178.66C393.47 177.57 394.07 176.56 394.67 175.58C395.36 175.93 398.56 177.48 400.26 177.58C401.96 177.68 403.99 177.28 405.09 175.94C405.358 175.634 405.558 175.276 405.678 174.887C405.799 174.499 405.836 174.09 405.788 173.686C405.74 173.283 405.607 172.894 405.399 172.545C405.191 172.196 404.912 171.894 404.58 171.66C402.58 170.3 398.44 171.93 396.72 173.29L395.15 174.86C395.43 174.43 395.71 173.97 395.98 173.56C396.98 172.02 398.04 170.67 398.98 169.48C399.51 168.81 399.98 168.21 400.48 167.66C401.34 167.66 404.8 167.54 406.32 166.83C407.84 166.12 409.49 164.83 409.85 163.15C409.948 162.754 409.961 162.343 409.889 161.942C409.817 161.541 409.661 161.159 409.432 160.822C409.203 160.486 408.905 160.201 408.558 159.987C408.212 159.773 407.824 159.634 407.42 159.58C404.99 159.31 402.09 162.65 401.2 164.65C401.12 164.82 400.2 167.65 400.28 167.65H400.33C399.87 168.17 399.33 168.74 398.86 169.37C397.91 170.54 396.86 171.87 395.78 173.37C394.615 175.003 393.547 176.702 392.58 178.46C391.495 180.423 390.585 182.478 389.86 184.6V184.68C389.86 183.96 389.86 181.95 389.86 181.8C389.58 179.63 387.77 175.6 385.36 175.16C384.958 175.096 384.547 175.118 384.154 175.224C383.761 175.329 383.394 175.516 383.078 175.773C382.762 176.03 382.504 176.35 382.32 176.713C382.136 177.076 382.03 177.473 382.01 177.88C381.87 179.61 383.12 181.33 384.34 182.42C385.56 183.51 389.53 184.84 389.83 184.93C389.147 187.112 388.609 189.337 388.22 191.59C387.99 192.9 387.79 194.22 387.61 195.59C387.61 194.97 387.61 194.41 387.61 194.33C387.33 192.16 385.51 188.14 383.1 187.69C382.698 187.628 382.287 187.651 381.895 187.758C381.502 187.865 381.137 188.053 380.822 188.311C380.507 188.568 380.249 188.889 380.066 189.252C379.883 189.616 379.779 190.014 379.76 190.42C379.62 192.14 380.87 193.87 382.09 194.96C383.31 196.05 386.56 197.14 387.41 197.41C387.35 197.93 387.28 198.41 387.22 198.95C386.93 201.41 386.65 203.86 386.29 206.26C386.17 207.11 386.02 207.93 385.87 208.76C385.87 208.21 385.87 207.76 385.87 207.68C385.59 205.51 383.77 201.48 381.36 201.04C380.958 200.976 380.548 200.998 380.156 201.104C379.763 201.209 379.397 201.397 379.082 201.653C378.767 201.91 378.509 202.23 378.326 202.593C378.143 202.956 378.039 203.354 378.02 203.76C377.88 205.49 379.13 207.21 380.34 208.3C381.55 209.39 384.5 210.38 385.52 210.71C385.34 211.55 385.16 212.4 384.95 213.21C384.79 213.76 384.68 214.3 384.49 214.84C384.3 215.38 384.14 215.92 383.97 216.45C383.6 217.45 383.23 218.51 382.85 219.45C382.59 220.13 382.32 220.77 382.06 221.45C382.19 220.61 382.42 218.96 382.42 218.82C382.397 216.897 381.877 215.012 380.91 213.35C380.935 213.137 380.935 212.923 380.91 212.71C380.859 212.307 380.724 211.919 380.513 211.571C380.303 211.223 380.022 210.924 379.688 210.692C379.354 210.46 378.975 210.301 378.576 210.225C378.177 210.148 377.766 210.157 377.37 210.25C375 210.88 373.5 215.03 373.37 217.25C373.37 217.38 373.44 218.78 373.51 219.67C373.39 219.15 373.28 218.67 373.15 218.12C372.91 217.12 372.63 216.04 372.33 214.92C372.17 214.39 372.01 213.85 371.84 213.3C371.67 212.75 371.46 212.2 371.27 211.65C370.8 210.37 370.27 209.09 369.7 207.82C370.61 207.6 373.86 206.82 375.16 205.82C376.46 204.82 377.83 203.19 377.82 201.46C377.836 201.05 377.764 200.641 377.61 200.26C377.455 199.88 377.222 199.537 376.925 199.253C376.629 198.969 376.275 198.752 375.888 198.615C375.501 198.479 375.089 198.426 374.68 198.46C372.25 198.72 370.14 202.6 369.68 204.74C369.68 204.88 369.51 206.45 369.45 207.31C369.1 206.55 368.76 205.79 368.38 205.03C367.29 202.84 366.12 200.65 364.97 198.47C364.61 197.803 364.26 197.137 363.92 196.47C364.24 196.39 368.12 195.47 369.58 194.38C370.87 193.38 372.25 191.75 372.24 190.03C372.254 189.62 372.181 189.212 372.026 188.832C371.872 188.453 371.638 188.11 371.342 187.827C371.045 187.543 370.692 187.326 370.306 187.189C369.92 187.051 369.509 186.997 369.1 187.03C366.67 187.29 364.56 191.17 364.1 193.31C364.1 193.48 363.87 195.74 363.84 196.31C363.08 194.83 362.32 193.31 361.64 191.86C360.712 189.857 359.914 187.796 359.25 185.69C359.4 185.69 363.45 184.69 364.95 183.59C366.24 182.59 367.62 180.97 367.61 179.24C367.625 178.831 367.554 178.423 367.4 178.043C367.247 177.663 367.014 177.321 366.719 177.037C366.423 176.754 366.071 176.536 365.685 176.399C365.299 176.261 364.888 176.207 364.48 176.24C362.04 176.5 359.93 180.38 359.48 182.53C359.48 182.67 359.3 184.39 359.24 185.21H359.1C358.496 183.071 358.081 180.882 357.86 178.67C357.72 177.45 357.66 176.28 357.62 175.14C358.39 175.05 361.92 174.58 363.37 173.69C364.82 172.8 366.32 171.38 366.5 169.69C366.555 169.287 366.524 168.877 366.41 168.486C366.296 168.096 366.101 167.733 365.838 167.423C365.575 167.113 365.25 166.861 364.883 166.685C364.516 166.509 364.117 166.412 363.71 166.4C361.26 166.4 358.71 170.02 358.06 172.1C358.06 172.21 357.78 173.4 357.61 174.27C357.61 173.76 357.61 173.27 357.61 172.73C357.61 170.88 357.73 169.18 357.84 167.68C357.92 166.83 358 166.06 358.08 165.34C358.79 164.85 361.62 162.85 362.5 161.42C363.38 159.99 364.04 158.02 363.41 156.42C363.274 156.035 363.058 155.684 362.776 155.388C362.495 155.093 362.154 154.86 361.777 154.706C361.399 154.551 360.993 154.477 360.585 154.49C360.178 154.503 359.777 154.602 359.41 154.78C357.23 155.9 356.66 160.28 357.02 162.44C357.06 162.56 357.88 165.42 357.92 165.39Z" fill="#A90100"/>
<path d="M324.45 186.56H386.89C386.89 186.56 392.66 187.56 390.74 199.05C388.82 210.54 379.21 284.05 379.21 284.05H292.27L311.21 190.56C311.21 190.56 312 185.6 324.45 186.56Z" fill="white" stroke="#263238" stroke-linecap="round" stroke-linejoin="round"/>
<path d="M390.74 199.05C388.82 210.58 379.21 284.05 379.21 284.05H367.84C370.4 266.65 379.95 202.19 381.61 194.72C383.27 187.25 385.98 186.6 386.71 186.55H386.89C386.89 186.55 392.66 187.52 390.74 199.05Z" fill="#263238" stroke="#263238" stroke-linecap="round" stroke-linejoin="round"/>
<path d="M256.38 274.89L269.29 253.37L267.78 285.01L252.93 284.79L256.38 274.89Z" fill="#A90100" stroke="#263238" stroke-linecap="round" stroke-linejoin="round"/>
<path d="M253.79 274H259C260.72 274 260.29 275.72 260.94 279.17C261.59 282.62 255.12 284.98 255.12 284.98C255.12 284.98 256.63 284.98 254.05 285.41C251.47 285.84 248.63 277.91 253.79 274Z" fill="white" stroke="#263238" stroke-linecap="round" stroke-linejoin="round"/>
<path d="M259.82 279.84C259.82 279.84 252.5 272.09 248.2 265C243.9 257.91 238.29 250.36 236.57 249.07C233.857 247.212 230.885 245.763 227.75 244.77C224.3 243.69 221.07 239.39 220.21 240.68C219.846 241.443 219.755 242.308 219.952 243.131C220.148 243.953 220.621 244.683 221.29 245.2C222.58 246.06 226.45 248.43 226.45 248.43C226.45 248.43 220.21 249.5 218.06 249.5C215.91 249.5 209.67 243.04 208.59 244.55C208.18 245.12 208.36 246.01 208.83 246.97C208.31 246.71 207.94 246.74 207.94 247.35C207.94 249.5 212.03 254.67 214.83 256.61C215.35 256.979 215.906 257.294 216.49 257.55C217.184 258.929 218.158 260.148 219.35 261.13C220.746 262.033 222.317 262.629 223.96 262.88C229.76 265.03 237.43 267.58 237.43 267.58L245.83 284.8H262.62L259.82 279.84Z" fill="white"/>
<path d="M259.82 279.84C259.82 279.84 252.5 272.09 248.2 265C243.9 257.91 238.29 250.36 236.57 249.07C233.857 247.212 230.885 245.763 227.75 244.77C224.3 243.69 221.07 239.39 220.21 240.68C219.846 241.443 219.755 242.308 219.952 243.131C220.148 243.953 220.621 244.683 221.29 245.2C222.58 246.06 226.45 248.43 226.45 248.43C226.45 248.43 220.21 249.5 218.06 249.5C215.91 249.5 209.67 243.04 208.59 244.55C208.18 245.12 208.36 246.01 208.83 246.97C208.31 246.71 207.94 246.74 207.94 247.35C207.94 249.5 212.03 254.67 214.83 256.61C215.35 256.979 215.906 257.294 216.49 257.55C217.184 258.929 218.158 260.148 219.35 261.13C220.746 262.033 222.317 262.629 223.96 262.88C229.76 265.03 237.43 267.58 237.43 267.58L245.83 284.8H262.62L259.82 279.84Z" fill="#A90100"/>
<path opacity="0.5" d="M259.82 279.84C259.82 279.84 252.5 272.09 248.2 265C243.9 257.91 238.29 250.36 236.57 249.07C233.857 247.212 230.885 245.763 227.75 244.77C224.3 243.69 221.07 239.39 220.21 240.68C219.846 241.443 219.755 242.308 219.952 243.131C220.148 243.953 220.621 244.683 221.29 245.2C222.58 246.06 226.45 248.43 226.45 248.43C226.45 248.43 220.21 249.5 218.06 249.5C215.91 249.5 209.67 243.04 208.59 244.55C208.18 245.12 208.36 246.01 208.83 246.97C208.31 246.71 207.94 246.74 207.94 247.35C207.94 249.5 212.03 254.67 214.83 256.61C215.35 256.979 215.906 257.294 216.49 257.55C217.184 258.929 218.158 260.148 219.35 261.13C220.746 262.033 222.317 262.629 223.96 262.88C229.76 265.03 237.43 267.58 237.43 267.58L245.83 284.8H262.62L259.82 279.84Z" fill="white"/>
<path d="M259.82 279.84C259.82 279.84 252.5 272.09 248.2 265C243.9 257.91 238.29 250.36 236.57 249.07C233.857 247.212 230.885 245.763 227.75 244.77C224.3 243.69 221.07 239.39 220.21 240.68C219.846 241.443 219.755 242.308 219.952 243.131C220.148 243.953 220.621 244.683 221.29 245.2C222.58 246.06 226.45 248.43 226.45 248.43C226.45 248.43 220.21 249.5 218.06 249.5C215.91 249.5 209.67 243.04 208.59 244.55C208.18 245.12 208.36 246.01 208.83 246.97C208.31 246.71 207.94 246.74 207.94 247.35C207.94 249.5 212.03 254.67 214.83 256.61C215.35 256.979 215.906 257.294 216.49 257.55C217.184 258.929 218.158 260.148 219.35 261.13C220.746 262.033 222.317 262.629 223.96 262.88C229.76 265.03 237.43 267.58 237.43 267.58L245.83 284.8H262.62L259.82 279.84Z" stroke="#263238" stroke-linecap="round" stroke-linejoin="round"/>
<path d="M226.45 248.42C226.45 248.42 227.75 252.29 228.61 254.01C229.47 255.73 232.48 256.17 232.48 256.17" stroke="#263238" stroke-linecap="round" stroke-linejoin="round"/>
<path d="M228.61 257.89C228.61 257.89 235.5 255.95 237.22 256.81C238.41 257.535 239.379 258.573 240.02 259.81" stroke="#263238" stroke-linecap="round" stroke-linejoin="round"/>
<path d="M214 250.68C212.85 249.68 208 245.56 208 247.34" stroke="#263238" stroke-linecap="round" stroke-linejoin="round"/>
<path d="M219.35 261.12C216.98 259.39 216 255.28 214.71 253.12C213.42 250.96 213.85 249.03 216 250.75C216.49 251.14 217.26 251.85 218.17 252.75" stroke="#263238" stroke-linecap="round" stroke-linejoin="round"/>
<path d="M227 258.08C227 258.08 220.63 253.95 219.47 253.35C218.78 252.99 216.02 252.49 217.53 254.64C219.311 256.785 221.253 258.791 223.34 260.64L225.71 262.57L227.63 264.12" stroke="#263238" stroke-linecap="round" stroke-linejoin="round"/>
<path d="M327.62 192.48C327.62 192.48 348.93 212.29 349.36 214.48C349.79 216.67 336.45 286.8 336.45 286.8H249.45C249.45 286.8 265.38 264.63 265.38 261.62C265.38 258.61 274.63 214.91 274.85 212.54C275.07 210.17 297.66 200.92 304.12 197.69C310.58 194.46 316.64 190.55 327.62 192.48Z" fill="#A90100"/>
<path opacity="0.2" d="M325.36 242.5L309.15 258.27C309.15 258.27 316.6 240.75 318.35 237.27C320.1 233.79 281.56 250.84 280.68 246.9C279.8 242.96 293 205.71 293 205.71L290.14 204.06C282.56 207.52 275.06 211.14 274.94 212.5C274.72 214.87 265.47 258.56 265.47 261.58C265.47 264.6 249.54 286.76 249.54 286.76H321.6L325.36 242.5Z" fill="black"/>
<path d="M327.62 192.48C327.62 192.48 348.93 212.29 349.36 214.48C349.79 216.67 336.45 286.8 336.45 286.8H249.45C249.45 286.8 265.38 264.63 265.38 261.62C265.38 258.61 274.63 214.91 274.85 212.54C275.07 210.17 297.66 200.92 304.12 197.69C310.58 194.46 316.64 190.55 327.62 192.48Z" stroke="#263238" stroke-linecap="round" stroke-linejoin="round"/>
<path d="M312.34 175.57C328.456 175.57 341.52 163.012 341.52 147.52C341.52 132.028 328.456 119.47 312.34 119.47C296.224 119.47 283.16 132.028 283.16 147.52C283.16 163.012 296.224 175.57 312.34 175.57Z" fill="#263238" stroke="#263238" stroke-linecap="round" stroke-linejoin="round"/>
<path d="M293.26 201.59L285.95 219.24L294.13 216.01L293.26 201.59Z" fill="white" stroke="#263238" stroke-linecap="round" stroke-linejoin="round"/>
<path d="M310.48 186.74L293.26 201.59L293.57 221.93L314.79 198.15L310.48 186.74Z" fill="white" stroke="#263238" stroke-linecap="round" stroke-linejoin="round"/>
<path d="M291.7 137.57C291.7 137.57 287.24 143.68 286.11 146.62C284.98 149.56 284.3 174.21 286.11 178.96C287.92 183.71 292.21 187.1 297.41 188.46C297.41 188.46 299.9 202.71 298.09 207.91C296.28 213.11 291.76 223.06 293.57 221.91C295.38 220.76 322.12 197.82 323.88 193.91C324.78 191.91 323.65 177.4 323.65 177.4C323.65 177.4 326.37 164.73 325.91 161.34C325.45 157.95 322.07 155.23 320.03 156.81C318.699 157.885 317.485 159.099 316.41 160.43C316.41 160.43 312.12 157.95 314.15 154.33C316.18 150.71 321.84 147.54 319.81 142.79C317.78 138.04 314.6 136.68 309.81 138.04C305.02 139.4 294.64 141.64 291.7 137.57Z" fill="white"/>
<path d="M298.37 180.83C293.02 176.83 295.15 176.25 295.15 176.25L294.69 169.45C291.69 169.67 291.31 168.33 292.69 166.11C294.07 163.89 294.36 158.11 294.36 158.11L291.36 159.65C291.202 156.232 291.325 152.807 291.73 149.41C292.05 146.82 294.5 143.04 296.94 139.84C294.68 139.64 292.77 139 291.75 137.6C291.75 137.6 287.29 143.71 286.16 146.65C285.03 149.59 284.35 174.24 286.16 178.99C287.97 183.74 292.26 187.13 297.46 188.49C297.46 188.49 299.95 202.74 298.14 207.94C296.33 213.14 291.81 223.09 293.62 221.94C293.84 221.81 294.43 221.35 295.28 220.65L310.46 185.52C306.109 184.962 301.959 183.352 298.37 180.83V180.83Z" fill="#A90100"/>
<path opacity="0.5" d="M298.37 180.83C293.02 176.83 295.15 176.25 295.15 176.25L294.69 169.45C291.69 169.67 291.31 168.33 292.69 166.11C294.07 163.89 294.36 158.11 294.36 158.11L291.36 159.65C291.202 156.232 291.325 152.807 291.73 149.41C292.05 146.82 294.5 143.04 296.94 139.84C294.68 139.64 292.77 139 291.75 137.6C291.75 137.6 287.29 143.71 286.16 146.65C285.03 149.59 284.35 174.24 286.16 178.99C287.97 183.74 292.26 187.13 297.46 188.49C297.46 188.49 299.95 202.74 298.14 207.94C296.33 213.14 291.81 223.09 293.62 221.94C293.84 221.81 294.43 221.35 295.28 220.65L310.46 185.52C306.109 184.962 301.959 183.352 298.37 180.83V180.83Z" fill="white"/>
<path d="M291.7 137.57C291.7 137.57 287.24 143.68 286.11 146.62C284.98 149.56 284.3 174.21 286.11 178.96C287.92 183.71 292.21 187.1 297.41 188.46C297.41 188.46 299.9 202.71 298.09 207.91C296.28 213.11 291.76 223.06 293.57 221.91C295.38 220.76 322.12 197.82 323.88 193.91C324.78 191.91 323.65 177.4 323.65 177.4C323.65 177.4 326.37 164.73 325.91 161.34C325.45 157.95 322.07 155.23 320.03 156.81C318.699 157.885 317.485 159.099 316.41 160.43C316.41 160.43 312.12 157.95 314.15 154.33C316.18 150.71 321.84 147.54 319.81 142.79C317.78 138.04 314.6 136.68 309.81 138.04C305.02 139.4 294.64 141.64 291.7 137.57Z" stroke="#263238" stroke-linecap="round" stroke-linejoin="round"/>
<path d="M294.7 155.44L294.25 159.96L294.02 161.54C294.02 161.54 291.31 166.75 291.31 168.33C291.31 169.91 296.51 170.59 297.64 169.23" stroke="#263238" stroke-linecap="round" stroke-linejoin="round"/>
<path d="M292.44 175.34C292.44 175.34 297.87 177.83 301.03 173.34" stroke="#263238" stroke-linecap="round" stroke-linejoin="round"/>
<path d="M295.15 176.25C295.15 176.25 295.38 180.09 298.09 179.64C301.34 179.1 300.36 174.44 300.36 174.44C298.877 175.613 297.041 176.25 295.15 176.25V176.25Z" fill="#263238" stroke="#263238" stroke-linecap="round" stroke-linejoin="round"/>
<path d="M300.81 153.85C300.81 153.85 306.46 153.18 308.5 155.85" stroke="#263238" stroke-width="2" stroke-linecap="round" stroke-linejoin="round"/>
<path d="M293.8 153.18C293.8 153.18 287.92 152.05 286.11 154.76" stroke="#263238" stroke-width="2" stroke-linecap="round" stroke-linejoin="round"/>
<path d="M302.05 162.22C302.613 162.22 303.07 161.36 303.07 160.3C303.07 159.24 302.613 158.38 302.05 158.38C301.487 158.38 301.03 159.24 301.03 160.3C301.03 161.36 301.487 162.22 302.05 162.22Z" fill="#263238"/>
<path d="M290.29 161.54C290.853 161.54 291.31 160.68 291.31 159.62C291.31 158.56 290.853 157.7 290.29 157.7C289.727 157.7 289.27 158.56 289.27 159.62C289.27 160.68 289.727 161.54 290.29 161.54Z" fill="#263238"/>
<path d="M297.41 188.46C297.41 188.46 306.41 189.75 312.85 182.86" stroke="#263238" stroke-linecap="round" stroke-linejoin="round"/>
<path d="M326.959 153.423L323.021 153.01C319.594 152.65 316.524 155.137 316.164 158.564L315.035 169.325C314.675 172.753 317.162 175.823 320.59 176.182L324.528 176.596C327.955 176.955 331.025 174.468 331.385 171.041L332.514 160.28C332.874 156.852 330.387 153.782 326.959 153.423Z" fill="white" stroke="#263238" stroke-linecap="round" stroke-linejoin="round"/>
<path d="M328.992 150.473L323.403 149.887C322.766 149.82 322.195 150.282 322.128 150.919L320.366 167.717C320.299 168.354 320.761 168.925 321.398 168.992L326.988 169.578C327.625 169.645 328.196 169.183 328.262 168.546L330.025 151.748C330.092 151.111 329.629 150.54 328.992 150.473Z" fill="white" stroke="#263238" stroke-linecap="round" stroke-linejoin="round"/>
<path d="M328.57 120.59C327.38 118.97 325.699 117.776 323.777 117.185C321.856 116.595 319.795 116.638 317.9 117.31L311.46 119.5H312.34C314.434 119.502 316.521 119.719 318.57 120.15L318.82 120.06C319.83 119.67 320.924 119.547 321.995 119.703C323.067 119.858 324.08 120.287 324.937 120.949C325.795 121.61 326.467 122.481 326.89 123.478C327.312 124.475 327.471 125.564 327.35 126.64L323.11 165.54C323.071 165.92 323.183 166.301 323.423 166.598C323.663 166.896 324.01 167.087 324.39 167.13H324.55C324.905 167.127 325.247 166.994 325.51 166.757C325.774 166.519 325.941 166.193 325.98 165.84L330.21 126.94C330.455 124.694 329.872 122.436 328.57 120.59V120.59Z" fill="#263238"/>
<path d="M299.94 203.96L293.57 221.93L302.29 216.09L299.94 203.96Z" fill="white" stroke="#263238" stroke-linecap="round" stroke-linejoin="round"/>
<path d="M299.94 203.96L300.58 220.32L330.72 195.35L327.27 185.66L299.94 203.96Z" fill="white" stroke="#263238" stroke-linecap="round" stroke-linejoin="round"/>
<path d="M341.4 211.42C341.4 211.42 333.4 214.65 332.14 217.42C330.88 220.19 313.85 282.64 313.85 282.64C313.85 282.64 313.42 286.09 317.72 286.3C322.02 286.51 348.07 286.3 348.07 286.3C348.07 286.3 350.22 242.61 350.01 235.5C349.8 228.39 349.58 215.5 348.5 214.41" fill="#A90100"/>
<path opacity="0.2" d="M330.61 223.67L325.79 250.39C325.79 250.39 332.36 245.13 338.93 250.39C345.5 255.65 338.06 252.14 333.24 253.45C328.42 254.76 326.67 256.96 326.67 256.96C326.67 256.96 339.37 259.15 342.87 263.53C346.37 267.91 344.63 272.28 340.25 272.28C335.87 272.28 317.47 270.09 317.47 270.09L330.61 223.67Z" fill="black"/>
<path d="M341.4 211.42C341.4 211.42 333.4 214.65 332.14 217.42C330.88 220.19 313.85 282.64 313.85 282.64C313.85 282.64 313.42 286.09 317.72 286.3C322.02 286.51 348.07 286.3 348.07 286.3C348.07 286.3 350.22 242.61 350.01 235.5C349.8 228.39 349.58 215.5 348.5 214.41" stroke="#263238" stroke-linecap="round" stroke-linejoin="round"/>
<path d="M311.38 256.75C311.38 256.75 289.19 237.75 285.48 231.63C281.77 225.51 280.88 221.73 278.23 219.14C275.58 216.55 271.7 214.4 268.92 212.27C266.14 210.14 266.22 214.27 267.12 215.65C268.263 216.968 269.57 218.135 271.01 219.12L272.56 221.68C272.56 221.68 262.56 219.31 260.56 219.44C258.56 219.57 249.8 219.17 248.41 221.17C247.02 223.17 250.27 223.02 251.19 223.3C252.11 223.58 254.91 223.3 256.93 223.59C258.95 223.88 263.99 225.17 263.99 225.17C263.99 225.17 250.6 227.34 248.9 227.64C247.2 227.94 246.49 230.04 247.74 230.91C248.99 231.78 253.09 231.48 253.09 231.48C253.09 231.48 259.46 235.38 260.85 235.79C262.24 236.2 265.43 236.94 265.43 236.94C265.43 236.94 274.88 240.94 278.02 242.57C281.16 244.2 287.91 253.93 291.39 258.78C294.87 263.63 299.76 270.19 302.99 273.55C306.22 276.91 308.39 279.36 308.39 279.36L316.07 259.85L311.38 256.75Z" fill="white"/>
<path d="M305.72 276.43C308.36 273.74 310.97 271.02 312.19 269.75L312.61 268.67C310.54 266.43 297.78 252.67 290.13 246.22C281.79 239.17 275.38 226.66 267.68 223.77C259.98 220.88 251.96 222.17 248.42 221.17C247.03 223.17 250.28 223.02 251.2 223.3C252.12 223.58 254.92 223.3 256.94 223.59C258.96 223.88 264 225.17 264 225.17C264 225.17 250.61 227.34 248.91 227.64C247.21 227.94 246.5 230.04 247.75 230.91C249 231.78 253.1 231.48 253.1 231.48C253.1 231.48 259.47 235.38 260.86 235.79C262.25 236.2 265.44 236.94 265.44 236.94C265.44 236.94 274.89 240.94 278.03 242.57C281.17 244.2 287.92 253.93 291.4 258.78C294.88 263.63 299.77 270.19 303 273.55L305.72 276.43Z" fill="#A90100"/>
<path opacity="0.5" d="M305.72 276.43C308.36 273.74 310.97 271.02 312.19 269.75L312.61 268.67C310.54 266.43 297.78 252.67 290.13 246.22C281.79 239.17 275.38 226.66 267.68 223.77C259.98 220.88 251.96 222.17 248.42 221.17C247.03 223.17 250.28 223.02 251.2 223.3C252.12 223.58 254.92 223.3 256.94 223.59C258.96 223.88 264 225.17 264 225.17C264 225.17 250.61 227.34 248.91 227.64C247.21 227.94 246.5 230.04 247.75 230.91C249 231.78 253.1 231.48 253.1 231.48C253.1 231.48 259.47 235.38 260.86 235.79C262.25 236.2 265.44 236.94 265.44 236.94C265.44 236.94 274.89 240.94 278.03 242.57C281.17 244.2 287.92 253.93 291.4 258.78C294.88 263.63 299.77 270.19 303 273.55L305.72 276.43Z" fill="white"/>
<path d="M311.38 256.75C311.38 256.75 289.19 237.75 285.48 231.63C281.77 225.51 280.88 221.73 278.23 219.14C275.58 216.55 271.7 214.4 268.92 212.27C266.14 210.14 266.22 214.27 267.12 215.65C268.263 216.968 269.57 218.135 271.01 219.12L272.56 221.68C272.56 221.68 262.56 219.31 260.56 219.44C258.56 219.57 249.8 219.17 248.41 221.17C247.02 223.17 250.27 223.02 251.19 223.3C252.11 223.58 254.91 223.3 256.93 223.59C258.95 223.88 263.99 225.17 263.99 225.17C263.99 225.17 250.6 227.34 248.9 227.64C247.2 227.94 246.49 230.04 247.74 230.91C248.99 231.78 253.09 231.48 253.09 231.48C253.09 231.48 259.46 235.38 260.85 235.79C262.24 236.2 265.43 236.94 265.43 236.94C265.43 236.94 274.88 240.94 278.02 242.57C281.16 244.2 287.91 253.93 291.39 258.78C294.87 263.63 299.76 270.19 302.99 273.55C306.22 276.91 308.39 279.36 308.39 279.36L316.07 259.85L311.38 256.75Z" stroke="#263238" stroke-linecap="round" stroke-linejoin="round"/>
<path d="M253.1 231.49L260.03 231.13L265.67 232.09" stroke="#263238" stroke-linecap="round" stroke-linejoin="round"/>
<path d="M258.38 234.51C260.68 235.017 263.025 235.295 265.38 235.34" stroke="#263238" stroke-linecap="round" stroke-linejoin="round"/>
<path d="M341.4 268.68C341.4 268.68 315.57 253.83 314.28 253.83C312.99 253.83 301.79 277.51 303.28 278.58C304.77 279.65 314.69 286.12 314.69 286.12H348.05C348.05 286.12 352 278.15 341.4 268.68Z" fill="#A90100" stroke="#263238" stroke-linecap="round" stroke-linejoin="round"/>
<path d="M312.77 253.18C312.77 253.18 301.15 277.29 301.36 278.37C301.57 279.45 310.83 285.04 312.56 285.26C314.29 285.48 326.76 259.64 326.33 259C325.9 258.36 315.14 252.75 315.14 252.75C315.14 252.75 313 251.68 312.77 253.18Z" fill="white" stroke="#263238" stroke-linecap="round" stroke-linejoin="round"/>
<path d="M253.25 220.24L250.93 220.01C250.52 220.1 250.14 220.2 249.8 220.31C251.4 220.23 253.25 220.24 253.25 220.24Z" fill="white"/>
<path d="M80.36 186.56H17.92C17.92 186.56 12.16 187.56 14.08 199.05C16 210.54 25.61 284.05 25.61 284.05H112.55L93.55 190.56C93.55 190.56 92.85 185.6 80.36 186.56Z" fill="white" stroke="#263238" stroke-linecap="round" stroke-linejoin="round"/>
<path d="M14.08 199.05C16 210.58 25.61 284.05 25.61 284.05H37C34.43 266.65 24.89 202.19 23.23 194.72C21.57 187.25 18.86 186.6 18.13 186.55H17.94C17.94 186.55 12.16 187.52 14.08 199.05Z" fill="#263238" stroke="#263238" stroke-linecap="round" stroke-linejoin="round"/>
<path d="M94.05 185.14C94.05 185.14 57.29 198.84 51.53 202.68C45.77 206.52 40 213.25 40 222.38C40 231.51 45.29 283.89 45.29 283.89H168.05C168.05 283.89 152.68 229.83 147.63 218.54C144.81 212.23 141.98 205.22 137.21 200.07C130.97 193.34 121.81 189.26 113.07 186.88C109.829 186.07 106.517 185.581 103.18 185.42C100.62 185.22 96.51 184.23 94.05 185.14Z" fill="#A90100"/>
<path opacity="0.2" d="M159.26 283.89C160.43 282.46 161.12 281.48 161.12 281.48L138.34 216.66C138.34 216.66 144.48 246.44 145.34 249.07C146.2 251.7 151.48 264 134 266.15C116.52 268.3 96.34 264.84 82.32 257.39C68.3 249.94 64.32 230.24 64.32 230.24L63.44 245.57L61.44 283.89H159.26Z" fill="black"/>
<path d="M94.05 185.14C94.05 185.14 57.29 198.84 51.53 202.68C45.77 206.52 40 213.25 40 222.38C40 231.51 45.29 283.89 45.29 283.89H168.05C168.05 283.89 152.68 229.83 147.63 218.54C144.81 212.23 141.98 205.22 137.21 200.07C130.97 193.34 121.81 189.26 113.07 186.88C109.829 186.07 106.517 185.581 103.18 185.42C100.62 185.22 96.51 184.23 94.05 185.14Z" stroke="#263238" stroke-linecap="round" stroke-linejoin="round"/>
<path d="M102.79 212.55C112.947 212.55 121.18 205.96 121.18 197.83C121.18 189.7 112.947 183.11 102.79 183.11C92.6335 183.11 84.4 189.7 84.4 197.83C84.4 205.96 92.6335 212.55 102.79 212.55Z" fill="white" stroke="#263238" stroke-linecap="round" stroke-linejoin="round"/>
<path d="M78.2 148.62L77 135.85C76.8127 133.827 77.0335 131.788 77.6493 129.852C78.2651 127.916 79.2634 126.124 80.585 124.581C81.9065 123.039 83.5244 121.777 85.3427 120.872C87.161 119.966 89.1426 119.435 91.17 119.31L102.65 118.6C106.956 118.339 111.207 119.673 114.592 122.348C117.977 125.023 120.258 128.85 121 133.1L122.45 141.37" stroke="#263238" stroke-width="2" stroke-linecap="round" stroke-linejoin="round"/>
<path d="M123.008 142.582L120.778 142.783C118.541 142.984 116.891 144.961 117.092 147.198L118.352 161.198C118.554 163.434 120.53 165.084 122.767 164.883L124.997 164.682C127.234 164.481 128.884 162.505 128.682 160.268L127.422 146.268C127.221 144.031 125.245 142.381 123.008 142.582Z" fill="white" stroke="#263238" stroke-width="1.00404" stroke-linecap="round" stroke-linejoin="round"/>
<path d="M87.81 176.25C87.81 176.25 89.49 189.25 89.25 190.67C89.01 192.09 89.25 201.24 95.97 205.08C102.69 208.92 109.91 207.25 113.27 202.2C116.63 197.15 113.75 175.77 113.75 175.77C113.75 175.77 98.86 183.22 87.81 176.25Z" fill="white"/>
<path d="M114.69 185.55C114.35 180.23 113.75 175.77 113.75 175.77C113.75 175.77 98.86 183.22 87.81 176.25C87.81 176.25 88.63 182.59 89.04 186.9C94.5 190.14 103.47 192.64 114.69 185.55Z" fill="#A90100"/>
<path opacity="0.5" d="M114.69 185.55C114.35 180.23 113.75 175.77 113.75 175.77C113.75 175.77 98.86 183.22 87.81 176.25C87.81 176.25 88.63 182.59 89.04 186.9C94.5 190.14 103.47 192.64 114.69 185.55Z" fill="white"/>
<path d="M87.81 176.25C87.81 176.25 89.49 189.25 89.25 190.67C89.01 192.09 89.25 201.24 95.97 205.08C102.69 208.92 109.91 207.25 113.27 202.2C116.63 197.15 113.75 175.77 113.75 175.77C113.75 175.77 98.86 183.22 87.81 176.25Z" stroke="#263238" stroke-linecap="round" stroke-linejoin="round"/>
<path d="M101.382 120.73L93.2178 121.684C84.4683 122.705 78.2036 130.626 79.2253 139.376L82.6872 169.025C83.7088 177.774 91.6299 184.039 100.379 183.017L108.544 182.064C117.293 181.042 123.558 173.121 122.536 164.372L119.075 134.723C118.053 125.973 110.132 119.709 101.382 120.73Z" fill="white"/>
<path d="M96 183C90.49 176.72 86.73 132.88 88 128.16C88.91 124.82 96.36 122.11 100.83 120.76L92.63 121.76C88.5941 122.234 84.9114 124.29 82.3912 127.478C79.8711 130.666 78.7196 134.724 79.19 138.76L82.8 169.65C83.2044 173.025 84.7214 176.17 87.1117 178.588C89.502 181.005 92.6293 182.558 96 183V183Z" fill="#A90100"/>
<path opacity="0.5" d="M96 183C90.49 176.72 86.73 132.88 88 128.16C88.91 124.82 96.36 122.11 100.83 120.76L92.63 121.76C88.5941 122.234 84.9114 124.29 82.3912 127.478C79.8711 130.666 78.7196 134.724 79.19 138.76L82.8 169.65C83.2044 173.025 84.7214 176.17 87.1117 178.588C89.502 181.005 92.6293 182.558 96 183V183Z" fill="white"/>
<path d="M101.382 120.73L93.2178 121.684C84.4683 122.705 78.2036 130.626 79.2253 139.376L82.6872 169.025C83.7088 177.774 91.6299 184.039 100.379 183.017L108.544 182.064C117.293 181.042 123.558 173.121 122.536 164.372L119.075 134.723C118.053 125.973 110.132 119.709 101.382 120.73Z" stroke="#263238" stroke-linecap="round" stroke-linejoin="round"/>
<path d="M122.48 163.74L121.7 157C121.53 159.93 120.82 163.55 118.32 163.27C114.15 162.81 114.47 158.71 111.83 157.02C109.19 155.33 103.42 156.02 99.1 157.74C94.78 159.46 95.73 165.43 92.61 167.59C89.49 169.75 86.12 164.71 86.12 164.71L82.76 144.05C82.76 144.05 86.12 139.96 87.76 138.28C89.4 136.6 86.31 136.12 85.11 133.72C83.91 131.32 87.52 128.43 91.6 125.31C95.68 122.19 99.29 126.31 102.6 126.31C105.91 126.31 108.13 124.87 111.01 123.19L111.17 123.12C108.028 121.206 104.334 120.399 100.68 120.83L93.76 121.64C89.4153 122.171 85.4574 124.4 82.7516 127.84C80.0457 131.281 78.8119 135.653 79.32 140L82.63 168.39C83.139 172.754 85.3596 176.738 88.8041 179.466C92.2485 182.195 96.635 183.444 101 182.94L107.92 182.13C110.084 181.881 112.178 181.207 114.082 180.147C115.986 179.087 117.661 177.663 119.014 175.955C120.366 174.246 121.369 172.288 121.963 170.192C122.558 168.097 122.734 165.904 122.48 163.74Z" fill="#263238" stroke="#263238" stroke-linecap="round" stroke-linejoin="round"/>
<path d="M100.3 161.12C100.3 161.12 103.9 164.48 110.87 160.88" stroke="white" stroke-linecap="round" stroke-linejoin="round"/>
<path d="M108 141.9C108 141.9 109 151.75 109 153.67C109 155.59 105.39 158.72 102 154.39" stroke="#263238" stroke-linecap="round" stroke-linejoin="round"/>
<path d="M103.18 140.22C103.18 140.22 98.38 135.65 91.89 141.42" stroke="#263238" stroke-width="2" stroke-linecap="round" stroke-linejoin="round"/>
<path d="M109.19 139.49C109.19 139.49 113.75 136.37 117.6 139.01" stroke="#263238" stroke-width="2" stroke-linecap="round" stroke-linejoin="round"/>
<path d="M101 146.46C101 147.52 100.52 148.38 99.92 148.38C99.32 148.38 98.84 147.52 98.84 146.46C98.84 145.4 99.32 144.54 99.92 144.54C100.52 144.54 101 145.4 101 146.46Z" fill="#263238"/>
<path d="M113.63 148.14C114.226 148.14 114.71 147.28 114.71 146.22C114.71 145.16 114.226 144.3 113.63 144.3C113.034 144.3 112.55 145.16 112.55 146.22C112.55 147.28 113.034 148.14 113.63 148.14Z" fill="#263238"/>
<path d="M79.3067 146.397L77.0928 146.664C74.8721 146.931 73.2887 148.948 73.5563 151.169L75.2309 165.069C75.4985 167.289 77.5156 168.873 79.7363 168.605L81.9503 168.338C84.171 168.071 85.7543 166.054 85.4868 163.833L83.8121 149.933C83.5446 147.713 81.5274 146.129 79.3067 146.397Z" fill="white" stroke="#263238" stroke-linecap="round" stroke-linejoin="round"/>
<path d="M148.83 272.6C142.83 271.16 134.66 271.6 129.83 271.4C125 271.2 94.27 268.51 87.07 266.4C79.87 264.29 68.57 262.32 68.57 262.32L65.44 242.13C52.05 236.85 44.29 242.38 41.57 245C43.12 262.77 45.26 283.94 45.26 283.94H153.21L156.28 283.7C156.28 283.7 154.84 274 148.83 272.6Z" fill="white"/>
<path d="M52.5 277.1C48.66 274.97 45.5 268.38 43.16 262.17C44.29 274.06 45.28 283.89 45.28 283.89H147C150.61 281.2 152.76 279.29 152.76 279.29C152.76 279.29 60.39 281.48 52.5 277.1Z" fill="#A90100"/>
<path opacity="0.5" d="M52.5 277.1C48.66 274.97 45.5 268.38 43.16 262.17C44.29 274.06 45.28 283.89 45.28 283.89H147C150.61 281.2 152.76 279.29 152.76 279.29C152.76 279.29 60.39 281.48 52.5 277.1Z" fill="white"/>
<path d="M148.83 272.6C142.83 271.16 134.66 271.6 129.83 271.4C125 271.2 94.27 268.51 87.07 266.4C79.87 264.29 68.57 262.32 68.57 262.32L65.44 242.13C52.05 236.85 44.29 242.38 41.57 245C43.12 262.77 45.26 283.94 45.26 283.94H153.21L156.28 283.7C156.28 283.7 154.84 274 148.83 272.6Z" stroke="#263238" stroke-linecap="round" stroke-linejoin="round"/>
<path d="M68.59 262.27C68.59 262.27 60.31 262.47 57.12 268.56" stroke="#263238" stroke-linecap="round" stroke-linejoin="round"/>
<path d="M65.46 242.08L63.78 224.31" stroke="#263238" stroke-linecap="round" stroke-linejoin="round"/>
<path d="M39 279H33.5C33.0571 279 32.6323 278.824 32.3191 278.511C32.006 278.198 31.83 277.773 31.83 277.33V266.13C31.83 265.687 32.006 265.262 32.3191 264.949C32.6323 264.636 33.0571 264.46 33.5 264.46H39C39.7214 264.46 40.4132 264.747 40.9233 265.257C41.4334 265.767 41.72 266.459 41.72 267.18V276.28C41.72 277.001 41.4334 277.693 40.9233 278.203C40.4132 278.713 39.7214 279 39 279ZM34.8 276.63H38.8V266.83H34.8V276.63Z" fill="white" stroke="#263238" stroke-linecap="round" stroke-linejoin="round"/>
<path d="M19.07 264.05H37V275.32C37 277.033 36.3194 278.676 35.1079 279.888C33.8964 281.099 32.2533 281.78 30.54 281.78H25.54C24.6917 281.78 23.8516 281.613 23.0679 281.288C22.2841 280.964 21.572 280.488 20.9721 279.888C20.3722 279.288 19.8964 278.576 19.5717 277.792C19.2471 277.008 19.08 276.168 19.08 275.32V264.05H19.07Z" fill="white" stroke="#263238" stroke-linecap="round" stroke-linejoin="round"/>
<path d="M38.31 283.19H15.93L11.13 280.39H43.1L38.31 283.19Z" fill="white" stroke="#263238" stroke-linecap="round" stroke-linejoin="round"/>
<path d="M268.67 279H263.19C262.747 279 262.322 278.824 262.009 278.511C261.696 278.198 261.52 277.773 261.52 277.33V266.13C261.52 265.687 261.696 265.262 262.009 264.949C262.322 264.636 262.747 264.46 263.19 264.46H268.67C269.391 264.46 270.083 264.747 270.593 265.257C271.103 265.767 271.39 266.459 271.39 267.18V276.28C271.39 277.001 271.103 277.693 270.593 278.203C270.083 278.713 269.391 279 268.67 279ZM264.47 276.63H268.47V266.83H264.47V276.63Z" fill="white" stroke="#263238" stroke-linecap="round" stroke-linejoin="round"/>
<path d="M248.76 264.05H266.76V275.32C266.76 277.033 266.079 278.676 264.868 279.888C263.656 281.099 262.013 281.78 260.3 281.78H255.3C253.587 281.78 251.944 281.099 250.732 279.888C249.521 278.676 248.84 277.033 248.84 275.32V264.05H248.76Z" fill="white" stroke="#263238" stroke-linecap="round" stroke-linejoin="round"/>
<path d="M268 283.19H245.62L240.82 280.39H272.79L268 283.19Z" fill="white" stroke="#263238" stroke-linecap="round" stroke-linejoin="round"/>
<path d="M154.87 212.82L175.69 210.26" stroke="#263238" stroke-width="4" stroke-linecap="round" stroke-linejoin="round"/>
<path d="M173.13 215.54C172.425 215.555 171.734 215.348 171.153 214.949C170.572 214.55 170.132 213.978 169.894 213.314C169.657 212.651 169.634 211.929 169.828 211.252C170.023 210.575 170.426 209.976 170.98 209.54L206.2 180.4C206.887 179.831 207.772 179.558 208.66 179.642C209.548 179.725 210.366 180.158 210.935 180.845C211.504 181.532 211.777 182.417 211.693 183.305C211.61 184.193 211.177 185.011 210.49 185.58L175.27 214.72C174.675 215.236 173.918 215.527 173.13 215.54V215.54Z" stroke="#263238" stroke-width="3" stroke-linecap="round" stroke-linejoin="round"/>
<path d="M208.67 179.2C207.831 179.158 207.006 179.428 206.354 179.958C205.702 180.488 205.27 181.24 205.14 182.07C202.77 197.35 191.14 270.28 192.02 271.42C192.9 272.56 204.18 281.34 204.18 281.34C204.18 281.34 200.98 273.34 200.98 270.14C200.98 267.34 209.91 199.01 211.89 183.01C211.947 182.545 211.907 182.073 211.773 181.625C211.64 181.176 211.414 180.76 211.112 180.402C210.81 180.044 210.437 179.753 210.017 179.546C209.596 179.339 209.138 179.221 208.67 179.2V179.2Z" stroke="#263238" stroke-width="3" stroke-linecap="round" stroke-linejoin="round"/>
<path d="M148.84 199.29C149.953 200.683 150.628 202.374 150.778 204.151C150.928 205.927 150.547 207.708 149.684 209.268C148.821 210.827 147.514 212.096 145.929 212.912C144.344 213.727 142.552 214.054 140.781 213.85C139.01 213.647 137.339 212.921 135.981 211.767C134.623 210.612 133.638 209.08 133.151 207.365C132.665 205.65 132.699 203.829 133.249 202.133C133.799 200.438 134.84 198.943 136.24 197.84C138.106 196.37 140.478 195.697 142.839 195.968C145.199 196.24 147.356 197.434 148.84 199.29V199.29Z" fill="#263238" stroke="#263238" stroke-linecap="round" stroke-linejoin="round"/>
<path d="M160.69 226.39L158.47 228.15C158.089 228.449 157.612 228.6 157.129 228.574C156.645 228.548 156.187 228.348 155.84 228.01L142.07 214.43C141.488 213.854 141.035 213.162 140.74 212.398C140.445 211.634 140.316 210.817 140.36 209.999C140.405 209.182 140.622 208.383 140.998 207.656C141.373 206.929 141.899 206.289 142.54 205.78V205.78C143.182 205.271 143.924 204.903 144.719 204.703C145.513 204.502 146.341 204.473 147.148 204.617C147.954 204.76 148.721 205.074 149.397 205.537C150.074 205.999 150.644 206.6 151.07 207.3L161.15 223.8C161.399 224.214 161.49 224.705 161.406 225.181C161.321 225.657 161.067 226.087 160.69 226.39Z" fill="white" stroke="#263238" stroke-linecap="round" stroke-linejoin="round"/>
<path d="M153.07 210.93C152.13 210.763 151.165 210.797 150.239 211.031C149.313 211.265 148.448 211.694 147.7 212.287C146.952 212.881 146.339 213.627 145.901 214.476C145.463 215.324 145.21 216.256 145.16 217.21C145.155 217.297 145.155 217.383 145.16 217.47L147.75 220.03C147.279 219.235 147.047 218.323 147.08 217.4C147.114 216.477 147.412 215.583 147.938 214.825C148.465 214.066 149.199 213.475 150.052 213.121C150.905 212.768 151.841 212.667 152.75 212.83C153.688 212.997 154.554 213.439 155.24 214.1L153.34 210.99C153.249 210.975 153.159 210.955 153.07 210.93V210.93Z" fill="#263238"/>
<path d="M160.81 229C160.396 229.324 159.871 229.472 159.349 229.412C158.827 229.352 158.35 229.089 158.02 228.68L157 227.3C156.676 226.886 156.528 226.361 156.588 225.839C156.648 225.317 156.911 224.84 157.32 224.51V224.51C157.734 224.186 158.259 224.038 158.781 224.098C159.303 224.158 159.78 224.421 160.11 224.83L161.17 226.16C161.336 226.369 161.458 226.609 161.53 226.866C161.602 227.123 161.622 227.391 161.588 227.656C161.555 227.92 161.469 228.176 161.335 228.407C161.201 228.637 161.023 228.839 160.81 229Z" fill="white" stroke="#263238" stroke-linecap="round" stroke-linejoin="round"/>
<path d="M212.85 284H179.93C179.408 284 178.907 283.796 178.533 283.432C178.16 283.068 177.943 282.572 177.93 282.05C177.93 281.52 178.141 281.011 178.516 280.636C178.891 280.261 179.4 280.05 179.93 280.05H212.85C213.372 280.063 213.868 280.279 214.232 280.653C214.596 281.027 214.8 281.528 214.8 282.05C214.787 282.563 214.578 283.052 214.215 283.415C213.852 283.778 213.363 283.987 212.85 284Z" fill="#263238"/>
<path d="M173.83 217.24C177.133 217.24 179.81 214.563 179.81 211.26C179.81 207.957 177.133 205.28 173.83 205.28C170.527 205.28 167.85 207.957 167.85 211.26C167.85 214.563 170.527 217.24 173.83 217.24Z" fill="#263238"/>
<path d="M208.13 189.39C211.433 189.39 214.11 186.713 214.11 183.41C214.11 180.107 211.433 177.43 208.13 177.43C204.827 177.43 202.15 180.107 202.15 183.41C202.15 186.713 204.827 189.39 208.13 189.39Z" fill="#263238"/>
<path d="M319.22 212.82L340.03 210.26" stroke="#263238" stroke-width="4" stroke-linecap="round" stroke-linejoin="round"/>
<path d="M337.47 215.54C336.766 215.553 336.076 215.345 335.497 214.945C334.918 214.544 334.479 213.972 334.243 213.309C334.007 212.646 333.984 211.926 334.179 211.25C334.374 210.573 334.777 209.975 335.33 209.54L370.55 180.4C370.89 180.118 371.282 179.906 371.704 179.776C372.126 179.646 372.57 179.601 373.01 179.642C373.449 179.683 373.877 179.811 374.267 180.017C374.657 180.224 375.003 180.505 375.285 180.845C375.567 181.185 375.779 181.577 375.909 181.999C376.039 182.421 376.084 182.865 376.043 183.305C376.002 183.744 375.874 184.172 375.668 184.562C375.461 184.952 375.18 185.298 374.84 185.58L339.62 214.72C339.022 215.238 338.261 215.528 337.47 215.54V215.54Z" stroke="#263238" stroke-width="3" stroke-linecap="round" stroke-linejoin="round"/>
<path d="M373 179.2C372.161 179.158 371.336 179.428 370.684 179.958C370.032 180.488 369.6 181.24 369.47 182.07C367.1 197.35 355.47 270.28 356.35 271.42C357.23 272.56 368.51 281.34 368.51 281.34C368.51 281.34 365.31 273.34 365.31 270.14C365.31 267.34 374.24 199.01 376.21 183.01C376.27 182.545 376.233 182.073 376.101 181.624C375.969 181.175 375.745 180.757 375.443 180.399C375.141 180.041 374.768 179.749 374.347 179.543C373.927 179.336 373.468 179.22 373 179.2V179.2Z" stroke="#263238" stroke-width="3" stroke-linecap="round" stroke-linejoin="round"/>
<path d="M313.505 209.986C316.343 205.925 315.352 200.333 311.292 197.495C307.231 194.657 301.639 195.648 298.801 199.709C295.963 203.769 296.954 209.362 301.014 212.2C305.075 215.038 310.667 214.046 313.505 209.986Z" fill="#263238" stroke="#263238" stroke-linecap="round" stroke-linejoin="round"/>
<path d="M325 226.39L322.78 228.15C322.399 228.449 321.922 228.6 321.439 228.574C320.955 228.548 320.497 228.348 320.15 228.01L306.38 214.43C305.798 213.854 305.345 213.162 305.05 212.398C304.755 211.634 304.626 210.817 304.67 209.999C304.715 209.182 304.932 208.383 305.308 207.656C305.683 206.929 306.209 206.289 306.85 205.78C307.492 205.271 308.234 204.903 309.029 204.703C309.823 204.502 310.651 204.473 311.458 204.617C312.264 204.76 313.031 205.074 313.707 205.537C314.384 205.999 314.954 206.6 315.38 207.3L325.46 223.8C325.709 224.214 325.8 224.705 325.716 225.181C325.631 225.657 325.377 226.087 325 226.39V226.39Z" fill="white" stroke="#263238" stroke-linecap="round" stroke-linejoin="round"/>
<path d="M317.42 210.93C316.48 210.763 315.515 210.797 314.589 211.031C313.663 211.265 312.798 211.694 312.05 212.287C311.302 212.881 310.689 213.627 310.251 214.476C309.813 215.324 309.56 216.256 309.51 217.21C309.505 217.297 309.505 217.383 309.51 217.47L312.1 220C311.513 218.998 311.307 217.817 311.521 216.675C311.735 215.534 312.354 214.507 313.264 213.786C314.174 213.064 315.315 212.695 316.475 212.748C317.636 212.8 318.738 213.269 319.58 214.07L317.68 210.96C317.593 210.955 317.506 210.945 317.42 210.93V210.93Z" fill="#263238"/>
<path d="M325.16 229C324.746 229.324 324.221 229.472 323.699 229.412C323.177 229.352 322.7 229.089 322.37 228.68L321.31 227.35C320.986 226.936 320.838 226.412 320.898 225.889C320.958 225.367 321.221 224.89 321.63 224.56V224.56C322.044 224.236 322.568 224.088 323.091 224.148C323.613 224.208 324.09 224.471 324.42 224.88L325.48 226.21C325.804 226.624 325.952 227.149 325.892 227.671C325.832 228.193 325.569 228.67 325.16 229Z" fill="white" stroke="#263238" stroke-linecap="round" stroke-linejoin="round"/>
<path d="M377.19 284H344.28C343.758 284 343.257 283.796 342.883 283.432C342.509 283.068 342.293 282.572 342.28 282.05C342.28 281.52 342.491 281.011 342.866 280.636C343.241 280.261 343.75 280.05 344.28 280.05H377.19C377.72 280.05 378.229 280.261 378.604 280.636C378.979 281.011 379.19 281.52 379.19 282.05C379.177 282.572 378.96 283.068 378.587 283.432C378.213 283.796 377.712 284 377.19 284V284Z" fill="#263238"/>
<path d="M338.18 217.24C341.483 217.24 344.16 214.563 344.16 211.26C344.16 207.957 341.483 205.28 338.18 205.28C334.877 205.28 332.2 207.957 332.2 211.26C332.2 214.563 334.877 217.24 338.18 217.24Z" fill="#263238"/>
<path d="M372.48 189.39C375.783 189.39 378.46 186.713 378.46 183.41C378.46 180.107 375.783 177.43 372.48 177.43C369.177 177.43 366.5 180.107 366.5 183.41C366.5 186.713 369.177 189.39 372.48 189.39Z" fill="#263238"/>
<path d="M203.51 234.08H136.02L124.5 280.4H191.98L203.51 234.08Z" fill="#263238" stroke="#263238" stroke-linecap="round" stroke-linejoin="round"/>
<path d="M191.28 280.4H90.64V283.69H191.28V280.4Z" fill="#263238" stroke="#263238" stroke-linecap="round" stroke-linejoin="round"/>
<path d="M191.99 280.4H124.5V283.69H191.99V280.4Z" fill="white" stroke="#263238" stroke-linecap="round" stroke-linejoin="round"/>
<path d="M204.25 234.08H136.77L125.25 280.4H192.73L204.25 234.08Z" fill="white" stroke="#263238" stroke-linecap="round" stroke-linejoin="round"/>
<path d="M413.7 283.58H1.10999V290.78H413.7V283.58Z" fill="#263238" stroke="#263238" stroke-linecap="round" stroke-linejoin="round"/>
</svg>
