<svg width="202" height="202" viewBox="0 0 202 202" fill="none" xmlns="http://www.w3.org/2000/svg">
<path d="M173.225 39.485C172.23 39.4351 171.234 39.57 170.288 39.883C168.888 40.504 167.525 43.779 166.554 48.918C165.704 53.3681 165.339 57.8972 165.465 62.426C165.478 62.8274 165.587 63.2198 165.781 63.571C165.976 63.9222 166.252 64.2221 166.585 64.446C170.941 67.552 185.721 63.756 187.289 63.339C188.036 61.91 194.844 48.532 191.489 44.935C188.539 41.747 178.645 39.485 173.225 39.485V39.485Z" fill="white"/>
<path d="M172.391 66.272C169.834 66.272 167.569 65.918 166.212 64.936C165.801 64.6602 165.462 64.2914 165.221 63.8596C164.979 63.4278 164.844 62.9452 164.824 62.451C164.457 55.441 166.405 40.84 170.033 39.287C173.661 37.733 188.079 40.343 191.963 44.494C195.846 48.644 188.123 63.134 187.793 63.756C187.773 63.795 187.744 63.8294 187.71 63.8571C187.676 63.8847 187.636 63.9051 187.594 63.917C187.114 64.029 178.82 66.272 172.391 66.272V66.272ZM173.225 39.485C172.23 39.4351 171.234 39.57 170.288 39.883C168.888 40.504 167.525 43.779 166.554 48.918C165.704 53.3681 165.339 57.8972 165.465 62.426C165.478 62.8274 165.587 63.2198 165.781 63.571C165.976 63.9222 166.252 64.2221 166.585 64.446C170.941 67.552 185.721 63.756 187.289 63.339C188.036 61.91 194.844 48.532 191.489 44.935C188.539 41.747 178.645 39.485 173.225 39.485V39.485Z" fill="#231F20"/>
<path d="M131.438 147.086C136.53 144.847 140.919 141.27 144.14 136.734C147.361 132.199 149.292 126.876 149.728 121.331L139.428 110.283L125.272 137.579" fill="white"/>
<path d="M131.438 147.41C131.365 147.407 131.294 147.379 131.239 147.33C131.184 147.282 131.147 147.216 131.134 147.144C131.121 147.071 131.133 146.997 131.167 146.932C131.202 146.868 131.258 146.817 131.326 146.788C136.326 144.559 140.638 141.034 143.817 136.578C146.996 132.121 148.925 126.896 149.404 121.443L139.51 110.83L125.564 137.722C125.52 137.788 125.453 137.835 125.377 137.854C125.3 137.874 125.219 137.865 125.148 137.829C125.078 137.793 125.023 137.733 124.994 137.659C124.965 137.586 124.964 137.504 124.991 137.43L139.149 110.134C139.172 110.088 139.207 110.049 139.249 110.02C139.291 109.99 139.34 109.972 139.391 109.966C139.442 109.958 139.494 109.962 139.542 109.978C139.591 109.994 139.635 110.022 139.671 110.059L149.971 121.113C150.002 121.146 150.025 121.186 150.04 121.229C150.055 121.271 150.061 121.317 150.057 121.362C149.588 126.96 147.622 132.329 144.366 136.907C141.111 141.485 136.684 145.104 131.55 147.384C131.515 147.401 131.477 147.41 131.438 147.409V147.41Z" fill="#231F20"/>
<path d="M163.362 163.962L194.514 163.36L194.084 124.19L148.34 125.836L141.974 163.962H163.362Z" fill="#231F20"/>
<path d="M163.362 164.273H141.974C141.929 164.273 141.884 164.263 141.843 164.244C141.802 164.224 141.766 164.196 141.737 164.161C141.707 164.128 141.685 164.088 141.674 164.045C141.662 164.002 141.66 163.957 141.669 163.913L148.035 125.786C148.045 125.715 148.08 125.65 148.134 125.602C148.187 125.555 148.255 125.527 148.327 125.525L194.072 123.878C194.155 123.879 194.234 123.91 194.296 123.965C194.36 124.022 194.396 124.104 194.396 124.189L194.825 163.335C194.826 163.376 194.819 163.417 194.804 163.455C194.789 163.493 194.767 163.528 194.738 163.557C194.71 163.586 194.676 163.61 194.639 163.626C194.601 163.643 194.561 163.651 194.52 163.652L163.368 164.273H163.362V164.273ZM142.341 163.652H163.361L194.203 163.03L193.78 124.506L148.601 126.134L142.341 163.652V163.652Z" fill="#231F20"/>
<path d="M200.519 80.731C197.731 76.947 191.06 74.953 186.567 74.238C182.242 73.555 177.911 74.238 173.567 73.865C169.59 73.6327 165.601 74.0227 161.744 75.021C147.251 79.023 133.778 99.975 133.778 99.975L148.551 100.751C148.551 100.751 146.405 116.18 140.244 149.988C165.907 150.901 195.777 153.448 195.777 153.448C195.777 153.448 195.907 146.372 196.231 139.406C198.546 137.25 198.465 133.814 198.889 131.819C199.436 129.253 198.329 101.373 198.329 101.373L201.695 100.13C201.695 100.13 201.739 82.36 200.519 80.731V80.731Z" fill="#A90100"/>
<path d="M166 80.34L154.743 154.275L168.185 155.624L183.475 80.184L166 80.34Z" fill="#231F20"/>
<path d="M168.185 155.934H168.154L154.706 154.586C154.621 154.576 154.543 154.534 154.488 154.468C154.463 154.435 154.445 154.397 154.435 154.356C154.425 154.315 154.424 154.273 154.432 154.232L165.69 80.29C165.702 80.2177 165.739 80.1519 165.795 80.1043C165.851 80.0567 165.922 80.0304 165.995 80.03L183.463 79.874C183.509 79.8726 183.555 79.882 183.598 79.9014C183.64 79.9208 183.677 79.9498 183.706 79.986C183.736 80.0215 183.758 80.0632 183.77 80.1083C183.781 80.1533 183.783 80.2003 183.774 80.246L168.49 155.68C168.477 155.751 168.439 155.816 168.383 155.862C168.328 155.909 168.258 155.934 168.185 155.934V155.934ZM155.117 154.002L167.954 155.288L183.089 80.495L166.287 80.645L155.117 154.002V154.002Z" fill="#231F20"/>
<path d="M167.998 71.07L166.063 80.34C166.063 80.34 168.123 86.497 174.364 85.845C176.207 85.6372 177.982 85.0215 179.557 84.0424C181.133 83.0634 182.471 81.7457 183.474 80.185L185.69 63.147C185.69 63.147 181.527 60.158 184.153 50.62C178.923 52.0778 173.397 52.1037 168.153 50.695C168.153 50.695 163.99 60.866 164.096 65.607C164.202 70.348 167.998 71.069 167.998 71.069V71.07Z" fill="white"/>
<path d="M173.462 86.218C167.762 86.218 165.782 80.501 165.758 80.439C165.742 80.3841 165.742 80.3259 165.758 80.271L167.625 71.305C166.666 71.007 163.891 69.789 163.779 65.651C163.679 60.866 167.687 50.993 167.861 50.577C167.89 50.5043 167.945 50.4447 168.015 50.4092C168.085 50.3737 168.165 50.3648 168.241 50.384C173.425 51.7631 178.881 51.7396 184.053 50.316C184.108 50.2968 184.167 50.293 184.223 50.305C184.28 50.317 184.333 50.3444 184.375 50.3841C184.417 50.4238 184.448 50.4743 184.463 50.5302C184.479 50.5861 184.479 50.6452 184.463 50.701C181.931 59.921 185.845 62.861 185.883 62.886C185.931 62.9192 185.969 62.9654 185.992 63.0192C186.015 63.073 186.022 63.1322 186.013 63.19L183.798 80.228C183.792 80.27 183.777 80.3102 183.754 80.346C182.735 81.9547 181.367 83.313 179.751 84.3199C178.135 85.3269 176.313 85.9565 174.42 86.162C174.102 86.1994 173.782 86.2181 173.462 86.218V86.218ZM166.399 80.315C166.666 81.048 168.726 86.106 174.333 85.528C176.113 85.3183 177.826 84.7218 179.351 83.7803C180.877 82.8389 182.178 81.5752 183.163 80.078L185.347 63.302C184.601 62.681 181.583 59.4 183.692 51.105C178.655 52.3701 173.384 52.3701 168.347 51.105C167.724 52.72 164.327 61.425 164.414 65.657C164.507 70.1 167.904 70.752 168.054 70.783C168.138 70.796 168.212 70.843 168.259 70.913C168.309 70.986 168.327 71.076 168.309 71.163L166.399 80.315V80.315Z" fill="#231F20"/>
<path d="M182.186 62.376C182.503 61.5728 183.073 60.8946 183.81 60.444C184.513 60.0575 185.278 59.7947 186.07 59.667C186.495 59.5507 186.941 59.5295 187.376 59.605C187.672 59.698 187.948 59.843 188.191 60.034C188.795 60.4436 189.236 61.0529 189.436 61.755C189.524 62.339 189.471 62.935 189.28 63.495C189.124 64.115 188.883 64.7106 188.565 65.265C188.238 65.8148 187.806 66.2941 187.292 66.6752C186.779 67.0562 186.195 67.3314 185.574 67.4847C184.953 67.6379 184.308 67.6662 183.677 67.5679C183.045 67.4696 182.439 67.2466 181.894 66.912" fill="white"/>
<path d="M184.439 67.937C183.487 67.9387 182.553 67.6789 181.739 67.186C181.685 67.1524 181.643 67.1039 181.616 67.0463C181.59 66.9887 181.581 66.9247 181.591 66.8621C181.601 66.7996 181.629 66.7413 181.672 66.6945C181.714 66.6477 181.77 66.6145 181.831 66.599C181.872 66.5892 181.915 66.5877 181.957 66.5945C181.998 66.6014 182.038 66.6165 182.074 66.639C183.106 67.2577 184.338 67.4493 185.509 67.173C186.679 66.8813 187.686 66.1372 188.309 65.104C188.612 64.5725 188.84 64.0018 188.988 63.408C189.164 62.9016 189.215 62.3604 189.138 61.83C188.953 61.2025 188.554 60.6595 188.011 60.295C187.8 60.1249 187.559 59.996 187.301 59.915C186.915 59.8537 186.521 59.8752 186.144 59.978C185.378 60.1008 184.638 60.351 183.954 60.718C183.277 61.1323 182.752 61.7556 182.46 62.494C182.426 62.5725 182.363 62.6349 182.284 62.6682C182.205 62.7015 182.116 62.7031 182.036 62.6727C181.956 62.6424 181.891 62.5823 181.854 62.5051C181.817 62.4279 181.811 62.3394 181.838 62.258C182.184 61.3919 182.799 60.6599 183.593 60.17C184.345 59.7649 185.162 59.4938 186.007 59.369C186.48 59.239 186.976 59.219 187.457 59.313C187.795 59.413 188.11 59.577 188.384 59.798C189.058 60.2469 189.546 60.9242 189.76 61.705C189.857 62.3299 189.803 62.9689 189.604 63.569C189.44 64.2212 189.189 64.8482 188.857 65.433C188.147 66.6128 187 67.4641 185.665 67.801C185.263 67.896 184.852 67.941 184.439 67.937V67.937ZM167.251 75.704C168.35 75.98 169.495 76.0176 170.609 75.814C171.723 75.6105 172.781 75.1706 173.711 74.524C176.723 72.318 176.691 70.796 176.691 70.796C176.691 70.796 172.081 72.573 168.222 71.249L167.252 75.704H167.251Z" fill="#231F20"/>
<path d="M169.224 76.257C168.529 76.2629 167.837 76.1775 167.164 76.003C167.09 75.9812 167.026 75.9318 166.987 75.8649C166.948 75.798 166.936 75.7186 166.953 75.643L167.923 71.175C167.931 71.1319 167.949 71.0912 167.975 71.0557C168.001 71.0203 168.034 70.991 168.073 70.97C168.112 70.9517 168.154 70.9422 168.197 70.9422C168.241 70.9422 168.283 70.9517 168.322 70.97C172.024 72.212 176.536 70.541 176.579 70.522C176.622 70.4992 176.67 70.4873 176.719 70.4873C176.768 70.4873 176.816 70.4992 176.859 70.522C176.901 70.5484 176.936 70.5851 176.96 70.6287C176.984 70.6723 176.996 70.7213 176.996 70.771C176.996 70.839 176.996 72.48 173.885 74.754C172.532 75.7405 170.898 76.2673 169.224 76.257V76.257ZM167.618 75.475C168.633 75.6868 169.681 75.6896 170.697 75.4833C171.714 75.277 172.678 74.8659 173.53 74.275C175.366 72.927 176.02 71.858 176.25 71.275C174.943 71.69 171.539 72.567 168.452 71.647L167.618 75.475Z" fill="#231F20"/>
<path d="M173.568 57.2C173.568 57.2 169.616 61.357 170.226 62.302C170.836 63.246 173.02 63.097 173.02 63.097" fill="white"/>
<path d="M172.56 63.39C171.819 63.39 170.481 63.271 169.964 62.47C169.292 61.438 172.099 58.288 173.337 56.99C173.38 56.9456 173.436 56.9151 173.496 56.9024C173.557 56.8897 173.62 56.8954 173.677 56.9187C173.734 56.942 173.784 56.9819 173.818 57.0332C173.853 57.0846 173.871 57.1451 173.871 57.207C173.871 57.288 173.838 57.367 173.779 57.424C171.763 59.549 170.219 61.774 170.475 62.146C170.885 62.768 172.466 62.811 172.964 62.768C173.134 62.753 173.284 62.878 173.3 63.048C173.303 63.0888 173.299 63.1299 173.286 63.1689C173.274 63.2079 173.253 63.244 173.227 63.2751C173.2 63.3063 173.168 63.3319 173.131 63.3504C173.095 63.3689 173.055 63.38 173.014 63.383C172.989 63.377 172.802 63.389 172.559 63.389L172.56 63.39Z" fill="#231F20"/>
<path d="M179.846 58.3483C180.075 57.7786 179.845 57.1496 179.333 56.9434C178.821 56.7372 178.22 57.0319 177.99 57.6017C177.761 58.1714 177.991 58.8004 178.503 59.0066C179.015 59.2128 179.616 58.9181 179.846 58.3483Z" fill="#231F20"/>
<path d="M171.648 57.0093C171.877 56.4396 171.647 55.8106 171.135 55.6044C170.623 55.3982 170.022 55.6929 169.792 56.2627C169.563 56.8324 169.793 57.4614 170.305 57.6676C170.817 57.8738 171.418 57.5791 171.648 57.0093Z" fill="#231F20"/>
<path d="M173.014 68.633C172.694 68.633 172.377 68.593 172.068 68.515C167.762 67.478 167.861 62.457 167.861 62.407C167.866 62.325 167.902 62.2482 167.963 62.1926C168.023 62.137 168.103 62.107 168.185 62.109C168.225 62.1099 168.265 62.1189 168.302 62.1353C168.339 62.1518 168.373 62.1755 168.4 62.205C168.428 62.2345 168.45 62.2693 168.464 62.3072C168.478 62.3452 168.485 62.3855 168.483 62.426C168.483 62.612 168.403 66.993 172.217 67.913C176.032 68.833 177.917 62.811 177.936 62.749C177.948 62.7095 177.967 62.6726 177.993 62.6407C178.019 62.6088 178.051 62.5823 178.088 62.563C178.124 62.5436 178.164 62.5317 178.205 62.528C178.246 62.5242 178.288 62.5287 178.327 62.5411C178.366 62.5535 178.403 62.5737 178.434 62.6004C178.465 62.6271 178.491 62.6598 178.51 62.6965C178.528 62.7333 178.54 62.7734 178.543 62.8145C178.545 62.8557 178.54 62.897 178.527 62.936C178.447 63.184 176.697 68.633 173.014 68.633V68.633Z" fill="#231F20"/>
<path d="M37 82.98L60.26 109.01L92.807 120.374L88.65 128.961C88.65 128.961 67.523 125.774 59.203 124.841C50.883 123.91 40.366 111.433 40.366 111.433L37 82.98Z" fill="white"/>
<path d="M88.65 129.266H88.606C88.395 129.266 67.386 126.072 59.166 125.146C50.821 124.208 40.559 112.147 40.13 111.631C40.0882 111.587 40.0619 111.53 40.055 111.47L36.688 82.98C36.6828 82.9153 36.6972 82.8506 36.7293 82.7943C36.7614 82.7379 36.8097 82.6925 36.868 82.664C36.9283 82.636 36.996 82.6281 37.0612 82.6414C37.1263 82.6547 37.1855 82.6886 37.23 82.738L60.44 108.705L92.911 120.045C92.9514 120.06 92.9883 120.083 93.0193 120.113C93.0503 120.143 93.0747 120.179 93.091 120.219C93.1093 120.259 93.1188 120.302 93.1188 120.346C93.1188 120.39 93.1093 120.433 93.091 120.473L88.929 129.085C88.879 129.195 88.769 129.266 88.649 129.265L88.65 129.266ZM40.665 111.296C41.53 112.303 51.455 123.649 59.234 124.525C67.013 125.401 86.161 128.253 88.482 128.613L92.39 120.536L60.174 109.283C60.1235 109.266 60.0783 109.236 60.043 109.196L37.423 83.913L40.665 111.296V111.296Z" fill="#231F20"/>
<path d="M48.294 70.075C47.971 67.894 47.094 65.837 46.427 63.743C44.747 58.667 44.504 53.429 42.743 48.371C40.484 41.865 36.147 37.13 28.561 37.398C27.0344 37.3986 25.5421 37.8509 24.2721 38.6979C23.0021 39.545 22.0111 40.7489 21.424 42.158C17.833 40.181 13.048 44.202 12.88 47.88C12.63 53.304 12.98 57.934 10.614 63.072C8.82198 66.974 6.04698 70.628 5.81698 74.915C5.58698 79.203 8.01898 83.21 11.504 85.578C14.989 87.945 19.382 88.734 23.583 88.424C27.783 88.113 31.847 86.771 35.749 85.168C37.6686 84.4265 39.5107 83.4984 41.249 82.397C45.214 79.75 49.053 75.12 48.294 70.075Z" fill="white"/>
<path d="M21.853 88.797C18.1283 88.8799 14.4639 87.8477 11.33 85.833C7.59603 83.279 5.28103 78.998 5.50503 74.903C5.67303 71.74 7.20503 68.901 8.68503 66.154C9.25203 65.104 9.83703 64.023 10.335 62.942C12.251 58.748 12.357 55.019 12.475 50.67C12.475 49.757 12.525 48.806 12.568 47.868C12.668 45.73 14.268 43.381 16.47 42.151C17.1796 41.7006 17.9874 41.4282 18.8248 41.3568C19.6622 41.2854 20.5045 41.4172 21.28 41.741C21.9191 40.3553 22.9413 39.1813 24.2259 38.3577C25.5106 37.5341 27.004 37.0953 28.53 37.093C35.375 36.87 40.391 40.716 43.023 48.278C43.8532 50.8691 44.4959 53.5166 44.946 56.2C45.3691 58.7212 45.9574 61.2119 46.707 63.656C46.882 64.172 47.062 64.694 47.249 65.21C47.8581 66.7741 48.3165 68.3928 48.618 70.044C49.389 75.294 45.407 79.986 41.418 82.664C39.6595 83.7814 37.7935 84.7201 35.848 85.466C32.568 86.814 28.219 88.405 23.589 88.746C23.017 88.778 22.432 88.796 21.853 88.796V88.797ZM19.363 41.946C18.4492 41.9663 17.556 42.2211 16.769 42.686C14.746 43.816 13.272 45.96 13.184 47.892C13.141 48.843 13.116 49.757 13.091 50.682C12.973 54.914 12.867 58.902 10.894 63.202C10.39 64.296 9.79903 65.39 9.22703 66.446C7.78303 69.13 6.28303 71.914 6.11503 74.934C5.91003 78.811 8.08803 82.887 11.672 85.324C14.822 87.454 19.034 88.43 23.552 88.113C28.07 87.796 32.388 86.212 35.624 84.882C37.5252 84.1486 39.3491 83.2288 41.069 82.136C44.896 79.582 48.729 75.083 47.995 70.118C47.6968 68.5071 47.2468 66.9281 46.651 65.402C46.471 64.887 46.284 64.365 46.11 63.837C45.3518 61.3722 44.7552 58.8605 44.324 56.318C43.8955 53.6619 43.2715 51.0412 42.457 48.477C39.868 41.095 35.226 37.472 28.555 37.708C27.0896 37.7113 25.6578 38.1479 24.4399 38.9628C23.2219 39.7777 22.2721 40.9346 21.71 42.288C21.6923 42.3255 21.6672 42.359 21.6363 42.3867C21.6054 42.4143 21.5693 42.4355 21.53 42.449C21.4909 42.4674 21.4483 42.477 21.405 42.477C21.3618 42.477 21.3191 42.4674 21.28 42.449C20.6943 42.13 20.037 41.9655 19.37 41.971L19.364 41.946H19.363Z" fill="#231F20"/>
<path d="M48.412 86.883C48.1536 85.8547 47.8695 84.8331 47.56 83.819C46.738 81.104 45.761 77.165 43.826 75.009C40.671 71.517 33.571 71.405 29.258 71.379C22.581 71.343 15.755 72.909 10.297 76.742C1.89701 82.645 0.340006 91.214 1.30501 100.77C2.41301 111.457 3.79501 122.12 5.29401 132.764C5.44401 133.857 7.24201 150.118 8.05101 150.124C8.10701 150.124 63.434 150.168 61.667 151.473C59.178 142.843 57.311 134.075 55.307 125.376C54.884 123.512 54.131 121.822 53.671 120.007C53.005 117.385 53.31 114.508 53.048 111.824C52.507 105.61 51.182 99.496 49.888 93.407C49.433 91.22 48.96 89.039 48.412 86.883V86.883Z" fill="#A90100"/>
<path d="M64.094 164.167L57.753 136.38L6.53801 140.593L5.88501 164.167H64.094Z" fill="#231F20"/>
<path d="M64.094 164.478H5.88499C5.80095 164.478 5.72038 164.444 5.66099 164.385C5.60426 164.324 5.57311 164.244 5.57399 164.161L6.19599 140.587C6.19854 140.51 6.22896 140.437 6.28158 140.381C6.3342 140.325 6.40543 140.289 6.48199 140.282L57.697 136.069C57.7713 136.066 57.8444 136.089 57.9043 136.133C57.9642 136.177 58.0074 136.24 58.027 136.312L64.367 164.099C64.3759 164.142 64.3757 164.187 64.3665 164.23C64.3573 164.273 64.3392 164.313 64.3134 164.349C64.2877 164.384 64.2548 164.414 64.2168 164.437C64.1789 164.459 64.1367 164.473 64.093 164.478H64.094ZM6.22099 163.857H63.714L57.492 136.716L6.82499 140.879L6.22099 163.857V163.857ZM33.714 94.786C33.884 94.856 34.065 94.898 34.249 94.911C35.413 94.998 36.327 93.917 36.807 92.854C37.877 90.487 37.877 87.79 37.69 85.205C37.6544 83.6784 37.3272 82.1727 36.726 80.769C36.1537 79.6793 35.3859 78.7041 34.461 77.892C32.799 76.357 30.783 75.071 28.536 74.785C26.29 74.499 23.004 75.717 22.313 78.177C21.592 80.837 24.392 83.515 25.749 85.472C27.7076 88.3013 29.8489 90.9997 32.159 93.55C32.575 94.075 33.108 94.498 33.714 94.786V94.786Z" fill="#231F20"/>
<path d="M34.386 95.221H34.224C34.0114 95.2002 33.8024 95.1521 33.602 95.078C32.9561 94.7727 32.3878 94.3248 31.94 93.768C29.6256 91.215 27.4766 88.5169 25.506 85.69C25.2062 85.2671 24.8948 84.8526 24.572 84.447C23.166 82.651 21.412 80.408 22.033 78.134C22.724 75.586 25.973 74.201 28.573 74.511C30.609 74.748 32.663 75.816 34.673 77.681C35.628 78.515 36.42 79.52 37.006 80.644C37.623 82.086 37.961 83.631 38.001 85.199C38.181 87.684 38.213 90.511 37.087 92.991C36.844 93.544 35.947 95.221 34.386 95.221V95.221ZM33.826 94.488C33.969 94.547 34.12 94.582 34.274 94.594C35.251 94.681 36.091 93.674 36.52 92.73C37.584 90.375 37.553 87.622 37.38 85.236C37.3442 83.7403 37.0273 82.2646 36.446 80.886C35.8938 79.8294 35.1486 78.8854 34.249 78.103C32.339 76.332 30.403 75.319 28.499 75.096C26.203 74.828 23.229 76.059 22.631 78.264C22.096 80.24 23.739 82.347 25.064 84.031C25.412 84.478 25.742 84.901 26.022 85.273C27.9736 88.0872 30.1064 90.7712 32.407 93.308C32.782 93.806 33.267 94.21 33.826 94.488V94.488Z" fill="#231F20"/>
<path d="M60.584 45.27H148.066V138.524H60.584V45.27Z" fill="white"/>
<path d="M148.06 138.828H60.584C60.5018 138.828 60.423 138.795 60.3648 138.737C60.3067 138.679 60.274 138.6 60.274 138.518V45.27C60.274 45.099 60.413 44.96 60.584 44.96H148.06C148.101 44.9599 148.141 44.9678 148.179 44.9833C148.217 44.9988 148.251 45.0216 148.28 45.0504C148.309 45.0792 148.332 45.1135 148.347 45.1511C148.363 45.1888 148.371 45.2292 148.371 45.27V138.518C148.371 138.559 148.363 138.599 148.347 138.637C148.332 138.675 148.309 138.709 148.28 138.738C148.251 138.766 148.217 138.789 148.179 138.805C148.141 138.82 148.101 138.828 148.06 138.828V138.828ZM60.896 138.207H147.749V45.581H60.896V138.207Z" fill="#231F20"/>
<path d="M66.229 52.441H142.41V120.896H66.229V52.441Z" fill="white"/>
<path d="M142.416 121.207H66.229C66.188 121.207 66.1474 121.199 66.1095 121.184C66.0716 121.168 66.0372 121.145 66.0081 121.117C65.9791 121.088 65.9561 121.053 65.9405 121.015C65.9248 120.978 65.9169 120.937 65.917 120.896V52.44C65.917 52.268 66.057 52.13 66.229 52.13H142.416C142.587 52.13 142.727 52.268 142.727 52.44V120.882C142.729 120.924 142.722 120.966 142.707 121.005C142.692 121.044 142.669 121.08 142.64 121.11C142.611 121.14 142.576 121.164 142.538 121.181C142.499 121.197 142.458 121.206 142.416 121.206V121.207ZM66.54 120.585H142.104V52.751H66.54V120.585V120.585Z" fill="#D1D3D4"/>
<path d="M133.89 76.35C132.795 77.556 131.75 78.836 130.605 79.96C127.611 83.005 124.575 86.007 121.556 89.026C121.451 89.132 121.37 89.275 121.246 89.331C120.704 89.567 120.001 90.089 119.64 89.909C119.396 89.7206 119.196 89.4811 119.054 89.2074C118.912 88.9336 118.831 88.6321 118.818 88.324C118.731 85.994 118.788 83.664 118.788 81.172C117.804 81.172 116.877 81.135 115.95 81.172C112.446 81.34 109.073 82.036 106.024 83.857C104.173 84.8815 102.621 86.3713 101.522 88.1791C100.423 89.9869 99.8153 92.0502 99.758 94.165C99.79 95.324 99.976 96.473 100.311 97.583C100.442 98.167 100.771 98.825 100.038 99.055C99.7663 99.0562 99.4988 98.9885 99.2604 98.8582C99.0221 98.728 98.8206 98.5393 98.675 98.31C97.728 96.4322 96.9693 94.4653 96.41 92.438C94.313 82.968 99.521 74.288 108.936 71.311C111.65 70.4449 114.482 70.003 117.331 70.001H118.781V64.713C118.762 63.881 118.819 63.049 118.949 62.227C119.136 61.283 119.733 61.059 120.573 61.525C120.913 61.738 121.223 61.995 121.494 62.289C125.29 66.079 129.082 69.876 132.87 73.679C133.242 74.114 133.581 74.578 133.884 75.064L133.89 76.351V76.35Z" fill="#A90100"/>
<path d="M86.515 110.507C84.385 110.102 82.4462 109.011 80.995 107.4C79.6045 105.796 78.8422 103.743 78.849 101.621C78.849 93.376 78.799 85.137 78.849 76.891C78.8433 75.7299 79.0682 74.5792 79.5105 73.5057C79.9529 72.4321 80.604 71.457 81.426 70.637C82.2489 69.8163 83.2262 69.1667 84.3015 68.7258C85.3768 68.2849 86.5288 68.0613 87.691 68.068C89.2258 68.0307 90.7612 68.0307 92.296 68.068C93.541 68.068 94.325 68.808 94.313 69.888C94.3 70.97 93.535 71.585 92.321 71.598H87.828C87.1138 71.5752 86.4023 71.6972 85.7366 71.9568C85.0708 72.2163 84.4644 72.6079 83.954 73.108C83.4442 73.6077 83.041 74.2057 82.7689 74.8657C82.4968 75.5258 82.3614 76.2342 82.371 76.948C82.346 85.232 82.346 93.517 82.371 101.802C82.371 103.207 82.934 104.553 83.935 105.541C84.4309 106.03 85.0187 106.416 85.6646 106.676C86.3105 106.937 87.0016 107.066 87.698 107.058H118.19C118.914 107.09 119.636 106.973 120.312 106.713C120.988 106.453 121.604 106.057 122.12 105.549C122.636 105.041 123.041 104.433 123.31 103.761C123.579 103.089 123.707 102.369 123.685 101.646C123.728 99.056 123.685 96.464 123.685 93.873C123.685 92.63 124.22 91.972 125.235 91.835C126.08 91.717 127.101 92.301 127.101 93.146C127.101 96.607 127.356 100.106 126.939 103.516C126.479 107.245 123.579 109.73 119.839 110.432C119.699 110.472 119.564 110.524 119.434 110.588L86.515 110.507V110.507Z" fill="#A90100"/>
<path d="M141.85 127.8H77.335C77.2525 127.8 77.1734 127.767 77.1151 127.709C77.0568 127.651 77.024 127.571 77.024 127.489C77.024 127.407 77.0568 127.327 77.1151 127.269C77.1734 127.211 77.2525 127.178 77.335 127.178H141.848C141.93 127.178 142.009 127.211 142.068 127.269C142.126 127.327 142.159 127.406 142.159 127.489C142.159 127.571 142.126 127.65 142.068 127.708C142.009 127.766 141.93 127.799 141.848 127.799L141.85 127.8ZM125.813 132.64H77.336C77.2535 132.64 77.1744 132.607 77.1161 132.549C77.0578 132.491 77.025 132.411 77.025 132.329C77.025 132.247 77.0578 132.167 77.1161 132.109C77.1744 132.051 77.2535 132.018 77.336 132.018H125.813C125.854 132.018 125.894 132.026 125.932 132.041C125.97 132.057 126.004 132.08 126.033 132.108C126.062 132.137 126.085 132.171 126.1 132.209C126.116 132.247 126.124 132.287 126.124 132.328C126.123 132.41 126.09 132.489 126.032 132.547C125.974 132.605 125.895 132.638 125.813 132.64V132.64Z" fill="#D1D3D4"/>
<path d="M69.819 132.323C71.7984 132.323 73.403 130.721 73.403 128.744C73.403 126.767 71.7984 125.165 69.819 125.165C67.8396 125.165 66.235 126.767 66.235 128.744C66.235 130.721 67.8396 132.323 69.819 132.323Z" fill="white"/>
<path d="M69.82 132.64C69.0483 132.642 68.2934 132.414 67.6509 131.987C67.0083 131.56 66.5069 130.951 66.21 130.239C65.9138 129.527 65.8357 128.743 65.9856 127.987C66.1355 127.231 66.5067 126.536 67.052 125.991C67.5979 125.445 68.2932 125.074 69.0502 124.923C69.8071 124.772 70.5917 124.849 71.305 125.144C72.1377 125.489 72.8253 126.111 73.2505 126.906C73.6757 127.7 73.8123 128.618 73.6371 129.502C73.4618 130.386 72.9856 131.181 72.2894 131.754C71.5932 132.326 70.7202 132.639 69.819 132.64H69.82ZM69.82 125.475C69.171 125.473 68.5361 125.664 67.9956 126.024C67.4552 126.383 67.0335 126.895 66.784 127.494C66.5352 128.093 66.4698 128.752 66.5963 129.387C66.7227 130.023 67.0351 130.607 67.494 131.065C67.9534 131.524 68.5384 131.836 69.175 131.962C69.8117 132.088 70.4715 132.023 71.071 131.774C71.7699 131.483 72.3465 130.96 72.7029 130.292C73.0592 129.624 73.1733 128.854 73.0258 128.112C72.8783 127.369 72.4782 126.701 71.8935 126.22C71.3089 125.74 70.5759 125.476 69.819 125.475H69.82Z" fill="#D1D3D4"/>
<path d="M40.204 51.217C40.204 51.217 43.316 58.456 42.414 64.166C42.1953 65.7589 41.5172 67.2535 40.4626 68.4672C39.4081 69.6809 38.0227 70.561 36.476 71L37.098 80.973C37.098 80.973 37.478 86.068 31.168 85.689C29.3416 85.5748 27.5743 84.9974 26.0326 84.0114C24.491 83.0254 23.2257 81.6632 22.356 80.053L20.484 61.78C20.484 61.78 27.329 57.244 26.265 50.701C26.265 50.701 34.958 54.224 40.205 51.217H40.204Z" fill="white"/>
<path d="M31.853 86.031H31.181C29.3022 85.9032 27.486 85.3039 25.9002 84.2884C24.3143 83.2729 23.0101 81.874 22.108 80.221C22.0913 80.1882 22.0808 80.1526 22.077 80.116L20.173 61.811C20.1676 61.7545 20.1775 61.6976 20.2016 61.6463C20.2257 61.5949 20.2631 61.551 20.31 61.519C20.378 61.475 26.956 57.014 25.96 50.751C25.9505 50.6967 25.9558 50.6409 25.9756 50.5895C25.9953 50.5381 26.0286 50.493 26.072 50.459C26.1153 50.4248 26.1669 50.4027 26.2216 50.395C26.2762 50.3873 26.3319 50.3942 26.383 50.415C26.464 50.415 34.996 53.845 40.036 50.943C40.0764 50.9261 40.1197 50.9174 40.1635 50.9174C40.2073 50.9174 40.2506 50.9261 40.291 50.943C40.3329 50.9568 40.3713 50.9794 40.4036 51.0095C40.4359 51.0395 40.4613 51.0762 40.478 51.117C40.608 51.416 43.652 58.505 42.718 64.24C42.4908 65.8479 41.8161 67.3594 40.7709 68.6021C39.7257 69.8449 38.3521 70.7686 36.807 71.268L37.429 80.992C37.4558 81.6463 37.353 82.2994 37.1265 82.9138C36.8999 83.5282 36.5541 84.0917 36.109 84.572C35.139 85.534 33.708 86.032 31.853 86.032V86.031ZM22.693 79.979C23.5477 81.5223 24.776 82.8265 26.2654 83.772C27.7548 84.7175 29.4577 85.2742 31.218 85.391C33.216 85.51 34.716 85.081 35.668 84.111C36.4425 83.2657 36.8556 82.1509 36.819 81.005L36.197 71.063C36.1921 70.9891 36.2139 70.916 36.2582 70.8567C36.3026 70.7975 36.3667 70.7561 36.439 70.74C37.9302 70.3178 39.2649 69.4677 40.278 68.2948C41.2911 67.1219 41.9381 65.6778 42.139 64.141C42.93 59.251 40.646 53.124 40.067 51.677C35.425 54.081 28.567 51.894 26.67 51.198C27.248 57.026 21.84 61.233 20.845 61.954L22.693 79.979V79.979Z" fill="#231F20"/>
<path d="M23.857 60.264C23.857 60.264 20.291 53.541 17.13 58.126C13.969 62.712 19.32 67.173 22.376 66.558" fill="white"/>
<path d="M21.766 66.937C20.017 66.937 17.926 65.694 16.788 63.936C16.1707 63.056 15.8493 62.0024 15.8706 60.9277C15.8918 59.853 16.2544 58.8129 16.906 57.958C17.746 56.716 18.704 56.157 19.756 56.225C22.164 56.368 24.112 59.953 24.162 60.121C24.1927 60.1928 24.1951 60.2735 24.1688 60.347C24.1426 60.4205 24.0895 60.4814 24.0203 60.5176C23.9511 60.5537 23.8708 60.5624 23.7955 60.5419C23.7202 60.5214 23.6554 60.4732 23.614 60.407C23.614 60.407 21.747 56.97 19.669 56.847C18.839 56.797 18.074 57.285 17.372 58.313C16.7962 59.0678 16.475 59.9861 16.4549 60.9352C16.4348 61.8844 16.7167 62.8154 17.26 63.594C18.437 65.384 20.702 66.583 22.301 66.26C22.471 66.23 22.634 66.34 22.668 66.508C22.6761 66.5476 22.6762 66.5885 22.6684 66.6282C22.6605 66.6678 22.6448 66.7055 22.6222 66.7391C22.5995 66.7726 22.5704 66.8013 22.5366 66.8234C22.5027 66.8455 22.4648 66.8607 22.425 66.868C22.2078 66.9127 21.9868 66.9361 21.765 66.938L21.766 66.937ZM37.59 64.122C37.083 64.1214 36.5771 64.0735 36.079 63.979C36.0389 63.9724 36.0006 63.9576 35.9664 63.9357C35.9321 63.9137 35.9028 63.885 35.88 63.8513C35.8573 63.8176 35.8416 63.7796 35.8341 63.7397C35.8265 63.6997 35.8272 63.6587 35.836 63.619C35.8433 63.5783 35.8587 63.5395 35.8812 63.5049C35.9037 63.4702 35.9329 63.4404 35.9671 63.4172C36.0013 63.394 36.0398 63.3779 36.0803 63.3698C36.1208 63.3617 36.1625 63.3618 36.203 63.37C36.203 63.37 38.219 63.762 39.171 63.184C39.308 62.407 37.391 59.804 35.998 58.214C35.9707 58.1837 35.9498 58.1482 35.9365 58.1097C35.9232 58.0711 35.9178 58.0303 35.9206 57.9896C35.9234 57.949 35.9343 57.9093 35.9528 57.8729C35.9712 57.8365 35.9968 57.8043 36.028 57.778C36.0873 57.7204 36.1668 57.6882 36.2495 57.6882C36.3322 57.6882 36.4117 57.7204 36.471 57.778C37.093 58.462 40.011 61.954 39.806 63.234C39.7918 63.333 39.7561 63.4276 39.7013 63.5112C39.6465 63.5949 39.574 63.6654 39.489 63.718C38.902 64.0147 38.248 64.1539 37.591 64.122H37.59ZM36.47 71.013C36.47 71.013 31.181 72.033 28.07 71.454C28.07 71.454 31.922 79.084 36.993 78.712L36.471 71.013H36.47Z" fill="#231F20"/>
<path d="M36.632 79.041C31.617 79.041 27.92 71.901 27.796 71.585C27.7642 71.5358 27.7473 71.4785 27.7473 71.42C27.7473 71.3615 27.7642 71.3042 27.796 71.255C27.8378 71.21 27.8921 71.1783 27.9519 71.1641C28.0117 71.1498 28.0743 71.1536 28.132 71.175C31.15 71.74 36.365 70.752 36.421 70.74C36.4645 70.7332 36.509 70.7352 36.5518 70.7458C36.5945 70.7565 36.6347 70.7756 36.67 70.802C36.738 70.857 36.78 70.938 36.788 71.026L37.311 78.724C37.3165 78.8058 37.2894 78.8864 37.2356 78.9482C37.1818 79.0101 37.1057 79.0481 37.024 79.054C36.8935 79.0455 36.7628 79.0411 36.632 79.041V79.041ZM28.648 71.852C29.625 73.512 32.737 78.42 36.638 78.42L36.159 71.386C35.046 71.585 31.343 72.169 28.649 71.852H28.648Z" fill="#231F20"/>
<path d="M33.1476 58.3922C33.696 58.3263 34.0672 57.6626 33.9768 56.9097C33.8863 56.1569 33.3685 55.5999 32.8201 55.6658C32.2718 55.7317 31.9006 56.3954 31.991 57.1483C32.0815 57.9012 32.5993 58.4581 33.1476 58.3922Z" fill="#231F20"/>
<path d="M39.9708 58.1472C40.5191 58.0813 40.8903 57.4176 40.7999 56.6647C40.7094 55.9119 40.1916 55.3549 39.6433 55.4208C39.0949 55.4867 38.7237 56.1504 38.8141 56.9033C38.9046 57.6561 39.4224 58.2131 39.9708 58.1472Z" fill="#231F20"/>
<path d="M34.442 67.111C33.989 67.108 33.542 67.011 33.129 66.825C31.61 66.167 30.639 64.34 30.235 61.351C30.2235 61.2684 30.2452 61.1846 30.2955 61.118C30.3458 61.0514 30.4204 61.0075 30.503 60.996C30.5856 60.9845 30.6694 61.0062 30.736 61.0565C30.8026 61.1067 30.8465 61.1814 30.858 61.264C31.231 64.004 32.102 65.682 33.384 66.235C34.958 66.931 36.732 65.719 36.751 65.707C36.7842 65.6786 36.8229 65.6575 36.8647 65.6451C36.9065 65.6326 36.9505 65.629 36.9937 65.6346C37.037 65.6402 37.0786 65.6548 37.1159 65.6774C37.1532 65.7001 37.1853 65.7303 37.2102 65.7662C37.235 65.802 37.2521 65.8427 37.2603 65.8855C37.2685 65.9284 37.2676 65.9724 37.2577 66.0149C37.2478 66.0574 37.2291 66.0974 37.2028 66.1322C37.1765 66.167 37.1432 66.1959 37.105 66.217C36.3169 66.7551 35.3952 67.0645 34.442 67.111V67.111Z" fill="#231F20"/>
<path d="M118.047 138.84C117.944 138.153 117.877 137.46 117.847 136.765C117.8 135.321 118.026 133.882 118.513 132.522C118.663 131.916 118.995 131.372 119.466 130.962C119.709 130.772 120.014 130.678 120.322 130.7C120.63 130.722 120.919 130.857 121.133 131.08C121.253 131.326 121.32 131.595 121.331 131.868C121.342 132.142 121.296 132.415 121.196 132.67C120.872 134.113 120.798 135.602 120.978 137.07C121.214 135.094 121.476 133.043 122.552 131.378C122.776 130.988 123.095 130.661 123.479 130.428C123.672 130.313 123.892 130.252 124.117 130.252C124.342 130.252 124.562 130.313 124.755 130.428C125.309 130.831 125.265 131.67 125.197 132.328C125.021 134.068 125.048 135.822 125.277 137.555C125.153 136.031 125.264 134.496 125.607 133.006C125.832 132.031 126.273 130.956 127.226 130.645C127.426 130.575 127.641 130.562 127.848 130.608C128.283 130.755 128.601 131.13 128.675 131.583C128.747 132.028 128.747 132.481 128.675 132.925C128.495 134.675 128.55 136.441 128.837 138.175C128.613 136.654 128.67 135.104 129.005 133.603C129.093 133.002 129.333 132.433 129.702 131.95C129.89 131.711 130.148 131.536 130.44 131.45C130.733 131.364 131.044 131.371 131.332 131.471C131.754 131.695 132.046 132.101 132.122 132.571C132.196 133.036 132.212 133.507 132.172 133.976C132.129 135.748 132.458 137.509 133.137 139.146C133.697 140.506 134.425 142.016 134.295 143.538C134.18 144.331 133.852 145.077 133.345 145.698C132.839 146.318 132.173 146.789 131.42 147.061C129.902 147.586 128.264 147.664 126.703 147.285C121.556 146.266 117.306 143.818 115.502 138.903" fill="white"/>
<path d="M128.88 147.857C128.134 147.853 127.391 147.776 126.66 147.627C120.735 146.452 116.883 143.563 115.203 139.04C115.173 138.958 115.178 138.867 115.215 138.787C115.252 138.708 115.32 138.647 115.402 138.617C115.485 138.587 115.575 138.592 115.655 138.629C115.734 138.666 115.795 138.734 115.825 138.816C117.418 143.116 121.115 145.868 126.802 146.993C128.302 147.363 129.878 147.293 131.339 146.788C132.036 146.538 132.652 146.103 133.122 145.531C133.592 144.959 133.899 144.27 134.009 143.538C134.12 142.252 133.579 140.966 133.056 139.729L132.876 139.289C132.184 137.609 131.846 135.804 131.886 133.988V133.77C131.919 133.401 131.905 133.03 131.843 132.664C131.811 132.481 131.739 132.307 131.632 132.155C131.524 132.004 131.384 131.878 131.221 131.788C130.998 131.722 130.761 131.724 130.539 131.794C130.317 131.864 130.121 131.998 129.976 132.18C129.644 132.625 129.43 133.146 129.354 133.696C129.022 135.158 128.965 136.668 129.186 138.151C129.199 138.235 129.178 138.321 129.127 138.39C129.077 138.458 129.002 138.504 128.918 138.518C128.841 138.528 128.763 138.509 128.699 138.466C128.635 138.423 128.589 138.357 128.57 138.282C128.277 136.518 128.222 134.723 128.408 132.944V132.838C128.468 132.462 128.468 132.078 128.408 131.701C128.381 131.534 128.308 131.377 128.199 131.248C128.089 131.119 127.947 131.022 127.786 130.968C127.63 130.936 127.469 130.947 127.319 130.999C126.665 131.21 126.193 131.931 125.912 133.124C125.577 134.582 125.47 136.083 125.595 137.574C125.585 137.645 125.551 137.711 125.5 137.76C125.448 137.81 125.382 137.841 125.31 137.849C125.239 137.857 125.167 137.841 125.106 137.803C125.045 137.766 124.998 137.709 124.973 137.642C124.741 135.884 124.714 134.106 124.892 132.342C124.954 131.72 124.985 131.037 124.581 130.738C124.44 130.654 124.278 130.61 124.114 130.61C123.95 130.61 123.788 130.654 123.647 130.738C123.309 130.942 123.028 131.229 122.832 131.571C121.774 133.211 121.532 135.299 121.314 137.163C121.304 137.24 121.266 137.311 121.207 137.362C121.149 137.414 121.074 137.442 120.996 137.443C120.918 137.442 120.844 137.414 120.785 137.362C120.727 137.311 120.689 137.24 120.679 137.163C120.493 135.66 120.567 134.136 120.897 132.658C121.077 132.233 121.077 131.754 120.897 131.328C120.846 131.259 120.782 131.202 120.708 131.159C120.634 131.117 120.552 131.09 120.467 131.08C120.191 131.04 119.909 131.109 119.683 131.273C119.266 131.644 118.973 132.134 118.843 132.677C118.363 133.996 118.141 135.394 118.19 136.797C118.19 137.014 118.221 137.207 118.233 137.387C118.255 137.877 118.307 138.364 118.389 138.847C118.386 138.921 118.357 138.991 118.308 139.046C118.259 139.101 118.193 139.138 118.121 139.15C118.048 139.162 117.973 139.15 117.909 139.114C117.845 139.078 117.795 139.021 117.767 138.953C117.682 138.449 117.628 137.941 117.605 137.43C117.605 137.25 117.605 137.057 117.561 136.846C117.509 135.366 117.741 133.89 118.246 132.496C118.414 131.827 118.786 131.226 119.31 130.776C119.67 130.518 120.115 130.406 120.555 130.465C120.895 130.512 121.201 130.694 121.407 130.968C121.56 131.252 121.649 131.565 121.67 131.887C121.69 132.209 121.641 132.531 121.525 132.832C121.522 132.865 121.522 132.899 121.525 132.932C121.727 132.361 121.992 131.815 122.315 131.304C122.57 130.868 122.932 130.504 123.367 130.247C123.613 130.103 123.894 130.031 124.179 130.039C124.464 130.047 124.741 130.134 124.979 130.291C125.601 130.763 125.601 131.633 125.601 132.236C125.711 131.839 125.912 131.472 126.187 131.165C126.463 130.858 126.805 130.618 127.188 130.465C127.452 130.371 127.738 130.356 128.01 130.421C128.573 130.6 128.987 131.081 129.08 131.664C129.137 131.948 129.154 132.239 129.13 132.528C129.238 132.303 129.376 132.094 129.54 131.906C129.772 131.612 130.091 131.4 130.451 131.299C130.811 131.199 131.194 131.216 131.544 131.347C132.055 131.615 132.414 132.103 132.515 132.671C132.588 133.081 132.611 133.498 132.583 133.913V134.131C132.549 135.858 132.869 137.573 133.523 139.171L133.703 139.605C134.233 140.848 134.83 142.271 134.705 143.718C134.589 144.571 134.242 145.376 133.699 146.044C133.157 146.712 132.442 147.219 131.631 147.508C130.746 147.803 129.812 147.921 128.881 147.857H128.88Z" fill="#231F20"/>
<path d="M183.15 104.144L182.205 118.398C182.205 118.398 152.957 95.408 148.06 94.42V98.44C148.06 98.44 139.926 97.446 139.28 99.061C138.632 100.677 139.734 106.816 141.85 108.059C143.094 108.81 153.604 108.873 153.604 108.873C153.604 108.873 155.092 112.513 169.591 125.854C184.091 139.195 197.731 146.328 198.584 133.833C199.436 121.337 200.519 100.279 200.519 100.279" fill="white"/>
<path d="M193.22 140.612C188.073 140.612 179.598 135.479 169.373 126.072C156.623 114.334 153.903 110.09 153.405 109.177C151.669 109.177 142.932 109.053 141.688 108.32C139.36 106.946 138.284 100.658 138.981 98.925C139.678 97.191 145.776 97.831 147.742 98.049V94.389C147.743 94.3414 147.754 94.2944 147.774 94.2515C147.795 94.2085 147.824 94.1705 147.861 94.14C147.898 94.1108 147.941 94.0897 147.987 94.078C148.033 94.0663 148.081 94.0643 148.128 94.072C152.752 95.004 177.998 114.652 181.925 117.739L182.827 104.107C182.818 104.058 182.82 104.008 182.833 103.961C182.846 103.913 182.87 103.869 182.902 103.832C182.935 103.795 182.976 103.766 183.022 103.747C183.068 103.728 183.117 103.72 183.166 103.724C183.216 103.727 183.264 103.742 183.306 103.767C183.349 103.792 183.386 103.826 183.413 103.867C183.441 103.908 183.458 103.955 183.464 104.004C183.471 104.053 183.466 104.103 183.45 104.15L182.529 118.398C182.526 118.456 182.506 118.512 182.472 118.56C182.437 118.607 182.39 118.644 182.336 118.665C182.283 118.69 182.224 118.7 182.166 118.693C182.108 118.686 182.052 118.664 182.006 118.628C181.726 118.404 154.14 96.75 148.402 94.818V98.415C148.402 98.4607 148.393 98.506 148.374 98.5478C148.356 98.5896 148.329 98.627 148.295 98.6575C148.261 98.6881 148.221 98.711 148.177 98.7249C148.133 98.7388 148.087 98.7432 148.042 98.738C144.768 98.334 139.952 98.204 139.597 99.167C139.005 100.64 140.082 106.623 142.03 107.773C142.907 108.289 149.441 108.513 153.623 108.543C153.687 108.542 153.75 108.561 153.804 108.596C153.857 108.632 153.898 108.683 153.922 108.743C153.922 108.773 155.646 112.551 169.828 125.606C181.464 136.299 190.674 141.388 195.155 139.642C197.022 138.902 198.061 136.933 198.266 133.795C199.106 121.449 200.189 100.447 200.202 100.242C200.204 100.2 200.213 100.158 200.231 100.12C200.249 100.082 200.274 100.047 200.306 100.019C200.337 99.9903 200.374 99.9684 200.414 99.9544C200.453 99.9403 200.496 99.9344 200.538 99.937C200.58 99.9387 200.622 99.9487 200.66 99.9666C200.698 99.9844 200.733 100.01 200.761 100.041C200.789 100.072 200.811 100.109 200.825 100.149C200.839 100.189 200.845 100.231 200.843 100.273C200.843 100.484 199.747 121.493 198.907 133.826C198.671 137.231 197.488 139.419 195.379 140.22C194.691 140.488 193.958 140.62 193.219 140.612H193.22Z" fill="#231F20"/>
<path d="M182.205 118.367L189.218 123.586Z" fill="white"/>
<path d="M189.218 123.91C189.149 123.906 189.083 123.885 189.025 123.847L182.012 118.628C181.945 118.575 181.901 118.498 181.889 118.414C181.877 118.329 181.899 118.243 181.95 118.174C182.002 118.107 182.078 118.063 182.161 118.052C182.245 118.04 182.33 118.062 182.398 118.112L189.411 123.332C189.464 123.373 189.503 123.429 189.522 123.493C189.541 123.557 189.54 123.626 189.519 123.689C189.498 123.753 189.458 123.808 189.404 123.848C189.35 123.887 189.285 123.909 189.218 123.91V123.91Z" fill="#231F20"/>
<path d="M20.005 92.637C20.005 92.637 32.003 114.88 32.326 115.75C32.438 116.042 57.05 102.882 57.952 101.086C57.6564 99.0699 57.8551 97.0123 58.531 95.09C58.929 94.04 59.663 93.91 60.535 93.17C60.4228 94.4822 60.3977 95.8005 60.46 97.116C62.112 95.3723 63.8974 93.7601 65.8 92.294C65.9979 92.085 66.245 91.9289 66.5187 91.8398C66.7924 91.7507 67.084 91.7315 67.367 91.784C67.625 91.914 67.841 92.114 67.99 92.362C70.541 95.947 68.413 100.253 66.583 103.609C63.136 109.922 57.971 113.842 52.483 118.254C48.8274 121.171 45.0241 123.899 41.088 126.425C38.0397 128.484 34.7988 130.242 31.411 131.675C29.383 132.483 26.582 133.54 24.429 132.533C16.619 128.917 7.66499 110.437 5.21899 102.303" fill="white"/>
<path d="M26.464 133.255C25.727 133.266 24.9966 133.116 24.324 132.814C19.899 130.769 15.487 124.32 12.568 119.268C9.45073 113.924 6.89831 108.27 4.952 102.398C4.9371 102.323 4.9507 102.244 4.99017 102.179C5.02965 102.113 5.09218 102.064 5.16565 102.041C5.23912 102.019 5.31829 102.025 5.38782 102.057C5.45735 102.09 5.51229 102.147 5.54199 102.218C8.03199 110.581 17.055 128.768 24.585 132.254C26.539 133.155 29.09 132.254 31.325 131.391C34.6902 129.962 37.9097 128.212 40.939 126.165C44.8679 123.644 48.6645 120.923 52.314 118.013L53.26 117.249C58.332 113.191 63.117 109.357 66.328 103.461C68.263 99.919 70.124 95.868 67.753 92.543C67.633 92.343 67.459 92.181 67.249 92.077C66.857 91.922 66.365 92.245 66.005 92.537C64.1193 93.9976 62.3469 95.5989 60.703 97.327C60.6619 97.3706 60.609 97.4014 60.5508 97.4156C60.4926 97.4299 60.4315 97.427 60.3748 97.4074C60.3182 97.3877 60.2685 97.3521 60.2316 97.3049C60.1947 97.2576 60.1723 97.2007 60.167 97.141C60.117 96.57 60.124 94.904 60.167 93.836L59.95 93.985C59.4375 94.2488 59.0392 94.6909 58.83 95.228C58.1788 97.0976 57.9844 99.0959 58.263 101.056C58.2844 101.119 58.2844 101.186 58.263 101.249C57.74 102.292 50.877 106.257 45.195 109.395C41.959 111.19 32.93 116.093 32.339 116.093C32.2769 116.089 32.2171 116.067 32.1664 116.031C32.1158 115.995 32.0761 115.945 32.052 115.888C31.803 115.217 23.894 100.497 19.75 92.81C19.7105 92.7375 19.7014 92.6522 19.7247 92.573C19.7481 92.4937 19.802 92.427 19.8745 92.3875C19.947 92.348 20.0323 92.3389 20.1115 92.3622C20.1908 92.3856 20.2575 92.4395 20.297 92.512C20.764 93.382 31.231 112.8 32.513 115.403C35.226 114.322 56.297 102.753 57.628 101C57.3476 98.9682 57.5614 96.8987 58.251 94.967C58.51 94.317 58.991 93.78 59.607 93.45C59.865 93.287 60.112 93.109 60.347 92.916C60.447 92.831 60.588 92.816 60.703 92.879C60.814 92.943 60.875 93.069 60.858 93.196C60.7642 94.2452 60.7288 95.2989 60.752 96.352C62.2721 94.7915 63.8983 93.338 65.619 92.002C66.129 91.612 66.807 91.189 67.486 91.45C67.81 91.6 68.084 91.839 68.276 92.14C71.064 96.054 68.45 100.838 66.888 103.715C63.615 109.718 58.798 113.589 53.658 117.69L52.706 118.454C49.0446 121.381 45.2331 124.114 41.287 126.644C38.2225 128.713 34.9654 130.482 31.561 131.925C29.957 132.675 28.23 133.125 26.464 133.255V133.255Z" fill="#231F20"/>
<path d="M20.005 92.922C19.9507 92.9218 19.8974 92.9074 19.8503 92.8802C19.8033 92.853 19.7642 92.814 19.737 92.767L13.713 82.508C13.6922 82.4724 13.6786 82.4331 13.673 82.3922C13.6674 82.3514 13.6698 82.3098 13.6803 82.27C13.6907 82.2301 13.7089 82.1926 13.7338 82.1598C13.7588 82.1269 13.7899 82.0993 13.8255 82.0785C13.8611 82.0577 13.9004 82.0441 13.9413 82.0385C13.9821 82.0329 14.0237 82.0354 14.0635 82.0458C14.1034 82.0562 14.1409 82.0744 14.1737 82.0994C14.2066 82.1243 14.2342 82.1554 14.255 82.191L20.291 92.481C20.3121 92.5159 20.326 92.5548 20.3319 92.5952C20.3377 92.6356 20.3353 92.6768 20.3248 92.7163C20.3144 92.7558 20.2961 92.7927 20.271 92.825C20.246 92.8572 20.2147 92.8841 20.179 92.904C20.1244 92.9284 20.0634 92.9347 20.005 92.922ZM183.15 104.467C183.108 104.463 183.068 104.451 183.031 104.431C182.994 104.411 182.962 104.384 182.935 104.352C182.909 104.32 182.889 104.283 182.877 104.243C182.865 104.203 182.861 104.161 182.865 104.119L184.19 89.697C184.21 89.524 184.364 89.397 184.539 89.412C184.582 89.4143 184.623 89.4253 184.661 89.4443C184.699 89.4634 184.733 89.49 184.76 89.5226C184.788 89.5553 184.808 89.5932 184.82 89.634C184.832 89.6748 184.836 89.7177 184.831 89.76L183.499 104.175C183.496 104.217 183.484 104.258 183.465 104.296C183.446 104.334 183.419 104.367 183.387 104.394C183.354 104.422 183.317 104.442 183.276 104.455C183.236 104.467 183.193 104.471 183.151 104.467H183.15Z" fill="#231F20"/>
</svg>
