<svg width="202" height="202" viewBox="0 0 202 202" fill="none" xmlns="http://www.w3.org/2000/svg">
<path d="M192.03 166.454H9.96999C9.87584 166.454 9.78554 166.417 9.71897 166.35C9.65239 166.283 9.61499 166.193 9.61499 166.099C9.61499 166.005 9.65239 165.915 9.71897 165.848C9.78554 165.781 9.87584 165.744 9.96999 165.744H192.03C192.124 165.744 192.214 165.781 192.281 165.848C192.348 165.915 192.385 166.005 192.385 166.099C192.385 166.193 192.348 166.283 192.281 166.35C192.214 166.417 192.124 166.454 192.03 166.454Z" fill="#D1D3D4"/>
<path d="M136.144 104.141H176.787V174.199H136.144V104.141Z" fill="white"/>
<path d="M176.787 174.554H136.144C136.097 174.554 136.051 174.545 136.008 174.527C135.965 174.509 135.926 174.482 135.893 174.449C135.86 174.416 135.834 174.377 135.817 174.334C135.799 174.291 135.79 174.245 135.79 174.198V104.141C135.79 103.944 135.949 103.785 136.144 103.785H176.787C176.982 103.785 177.141 103.945 177.141 104.141V174.184C177.143 174.232 177.135 174.279 177.118 174.324C177.101 174.369 177.075 174.409 177.042 174.444C177.009 174.478 176.97 174.506 176.926 174.525C176.882 174.544 176.835 174.554 176.787 174.554V174.554ZM136.497 173.844H176.433V104.495H136.498V173.842L136.497 173.844Z" fill="#231F20"/>
<path d="M24.173 104.141H64.816V174.199H24.173V104.141Z" fill="white"/>
<path d="M64.816 174.554H24.173C24.1264 174.554 24.0802 174.545 24.0372 174.527C23.9942 174.509 23.9551 174.482 23.9223 174.449C23.8894 174.416 23.8634 174.377 23.8456 174.334C23.8279 174.291 23.8189 174.245 23.819 174.198V104.141C23.819 103.944 23.977 103.785 24.173 103.785H64.816C65.011 103.785 65.17 103.945 65.17 104.141V174.184C65.1717 174.232 65.1639 174.279 65.1469 174.324C65.1299 174.369 65.1042 174.409 65.0712 174.444C65.0382 174.478 64.9986 174.506 64.9548 174.525C64.9109 174.544 64.8637 174.554 64.816 174.554V174.554ZM24.526 173.844H64.462V104.495H24.527V173.842L24.526 173.844ZM143.71 83.827L151.756 100.047H129.994L143.71 83.827Z" fill="#231F20"/>
<path d="M151.756 100.403H130.016C129.948 100.405 129.881 100.386 129.823 100.35C129.765 100.314 129.719 100.262 129.69 100.2C129.662 100.138 129.652 100.069 129.662 100.001C129.672 99.9339 129.702 99.8709 129.747 99.82L143.462 83.6C143.498 83.5542 143.546 83.5187 143.601 83.4973C143.655 83.4759 143.714 83.4692 143.772 83.478C143.83 83.4845 143.886 83.5054 143.935 83.5389C143.983 83.5724 144.022 83.6175 144.049 83.67L152.089 99.892C152.121 99.9467 152.136 100.009 152.135 100.072C152.133 100.135 152.114 100.197 152.079 100.25C152.045 100.303 151.996 100.345 151.939 100.372C151.882 100.399 151.819 100.41 151.756 100.403ZM130.758 99.693H151.182L143.632 84.473L130.758 99.693V99.693Z" fill="#231F20"/>
<path d="M81.906 100.048H133.716L152.513 72.394H103.604L81.906 100.048Z" fill="#231F20"/>
<path d="M133.717 100.403H81.892C81.8254 100.403 81.7601 100.384 81.7038 100.348C81.6474 100.313 81.6022 100.262 81.5734 100.202C81.5445 100.142 81.5332 100.075 81.5408 100.009C81.5483 99.9428 81.5744 99.88 81.616 99.828L103.314 72.174C103.346 72.1318 103.388 72.0976 103.436 72.0742C103.484 72.0508 103.537 72.0387 103.59 72.039H152.5C152.63 72.043 152.749 72.116 152.811 72.231C152.846 72.2865 152.864 72.3506 152.864 72.416C152.864 72.4814 152.846 72.5455 152.811 72.601L134.015 100.247C133.983 100.296 133.939 100.336 133.887 100.363C133.835 100.391 133.777 100.404 133.718 100.403H133.717ZM82.635 99.693H133.554L151.869 72.749H103.774L82.635 99.693V99.693Z" fill="#231F20"/>
<path d="M105.161 75.08L89.677 95.223H128.126L142.676 75.08H105.161Z" fill="white"/>
<path d="M128.126 95.579H89.676C89.6096 95.5789 89.5445 95.56 89.4883 95.5247C89.432 95.4893 89.3869 95.4388 89.358 95.379C89.3252 95.3218 89.3079 95.257 89.3079 95.191C89.3079 95.125 89.3252 95.0602 89.358 95.003L104.85 74.86C104.882 74.8178 104.924 74.7836 104.972 74.7602C105.02 74.7368 105.073 74.7247 105.126 74.725H142.634C142.699 74.7243 142.762 74.7419 142.817 74.7759C142.872 74.8099 142.916 74.8589 142.944 74.917C142.979 74.9725 142.997 75.0366 142.997 75.102C142.997 75.1674 142.979 75.2315 142.944 75.287L128.394 95.429C128.364 95.4729 128.324 95.5093 128.278 95.5354C128.231 95.5614 128.179 95.5763 128.126 95.579V95.579ZM90.399 94.869H127.906L141.982 75.421H105.338L90.398 94.868L90.399 94.869Z" fill="#231F20"/>
<path d="M116.173 91.557C116.099 91.5565 116.028 91.533 115.968 91.4898C115.908 91.4466 115.864 91.3858 115.84 91.316C113.98 85.809 111.389 79.769 110.448 79.627C109.322 79.627 102.104 85.617 95.692 91.472C95.6461 91.5143 95.5898 91.5436 95.5289 91.5572C95.4679 91.5708 95.4045 91.5681 95.345 91.5493C95.2855 91.5305 95.2319 91.4964 95.1898 91.4504C95.1477 91.4043 95.1184 91.348 95.105 91.287C95.0915 91.226 95.0941 91.1625 95.1127 91.1029C95.1313 91.0432 95.1652 90.9895 95.211 90.947C97.433 88.921 108.481 78.924 110.511 78.924H110.589C112.401 79.201 115.607 88.303 116.548 91.088C116.563 91.1322 116.569 91.1791 116.566 91.2257C116.563 91.2724 116.551 91.318 116.53 91.3597C116.509 91.4015 116.479 91.4386 116.444 91.4689C116.408 91.4992 116.367 91.522 116.322 91.536C116.275 91.5562 116.223 91.5634 116.172 91.557H116.173Z" fill="#D1D3D4"/>
<path d="M127.722 92.296C127.644 92.2955 127.569 92.2695 127.508 92.222C127.446 92.1745 127.402 92.1081 127.382 92.033C126.137 87.593 124.361 82.853 123.526 82.604C122.691 82.356 118.813 85.873 115.656 89.255C115.624 89.289 115.586 89.3164 115.543 89.3355C115.501 89.3546 115.455 89.3651 115.408 89.3664C115.361 89.3677 115.315 89.3598 115.271 89.3431C115.228 89.3263 115.188 89.3012 115.154 89.269C115.086 89.2038 115.046 89.1143 115.043 89.0199C115.041 88.9255 115.075 88.8339 115.14 88.765C116.753 87.038 122.132 81.446 123.731 81.929C125.331 82.413 127.623 90.271 128.062 91.877C128.088 91.9672 128.078 92.0641 128.033 92.1466C127.988 92.2291 127.912 92.2903 127.822 92.317L127.722 92.297V92.296Z" fill="#D1D3D4"/>
<path d="M139.095 86.079C138.225 86.079 137.538 85.659 137.538 85.127C137.538 84.594 138.246 84.182 139.095 84.182C139.945 84.182 140.652 84.594 140.652 85.127C140.652 85.66 139.966 86.079 139.095 86.079ZM139.095 84.359C138.345 84.359 137.68 84.708 137.68 85.127C137.68 85.547 138.31 85.901 139.095 85.901C139.881 85.901 140.475 85.546 140.475 85.127C140.475 84.707 139.845 84.381 139.095 84.381V84.359ZM145.28 78.022H142.138C142.116 78.0203 142.095 78.0107 142.079 77.9949C142.064 77.9791 142.054 77.9582 142.053 77.936C142.053 77.888 142.09 77.848 142.138 77.844H145.28C145.292 77.844 145.303 77.8464 145.314 77.8511C145.325 77.8558 145.335 77.8627 145.343 77.8713C145.351 77.88 145.357 77.8902 145.361 77.9013C145.364 77.9124 145.366 77.9243 145.365 77.936C145.365 77.9472 145.363 77.9584 145.359 77.9688C145.355 77.9793 145.348 77.9887 145.34 77.9967C145.333 78.0047 145.323 78.0111 145.313 78.0154C145.302 78.0198 145.291 78.022 145.28 78.022Z" fill="#A7A9AC"/>
<path d="M133.717 100.403C133.641 100.404 133.567 100.381 133.504 100.339C133.429 100.282 133.379 100.199 133.365 100.106C133.35 100.014 133.372 99.9189 133.426 99.842L143.462 86.015C143.489 85.9773 143.524 85.9454 143.564 85.9211C143.603 85.8968 143.647 85.8806 143.693 85.8733C143.739 85.8661 143.786 85.868 143.831 85.8789C143.877 85.8898 143.919 85.9096 143.957 85.937C144.112 86.055 144.147 86.274 144.035 86.434L134 100.29C133.964 100.329 133.92 100.359 133.871 100.378C133.822 100.398 133.77 100.407 133.717 100.404V100.403Z" fill="white"/>
<path d="M116.173 80.21C115.313 80.21 114.616 79.51 114.616 78.647C114.616 78.4421 114.656 78.2392 114.734 78.0498C114.812 77.8604 114.926 77.6882 115.071 77.543C115.215 77.3979 115.387 77.2826 115.576 77.2039C115.765 77.1251 115.968 77.0844 116.173 77.084C117.033 77.084 117.73 77.784 117.73 78.647C117.73 78.8518 117.69 79.0548 117.612 79.2442C117.534 79.4336 117.42 79.6058 117.275 79.7509C117.131 79.8961 116.959 80.0113 116.77 80.0901C116.581 80.1688 116.378 80.2096 116.173 80.21ZM116.173 77.794C116.061 77.794 115.95 77.8161 115.847 77.859C115.744 77.9019 115.65 77.9648 115.571 78.044C115.492 78.1233 115.429 78.2173 115.387 78.3208C115.344 78.4243 115.323 78.5351 115.323 78.647C115.323 79.117 115.703 79.499 116.173 79.499C116.285 79.499 116.395 79.4769 116.499 79.4341C116.602 79.3912 116.696 79.3285 116.775 79.2493C116.854 79.1702 116.916 79.0762 116.959 78.9729C117.001 78.8695 117.023 78.7588 117.023 78.647C117.024 78.535 117.002 78.424 116.96 78.3203C116.918 78.2167 116.855 78.1224 116.776 78.0431C116.697 77.9638 116.603 77.9009 116.499 77.8582C116.396 77.8154 116.285 77.7936 116.173 77.794V77.794Z" fill="#D1D3D4"/>
<path d="M18.773 100.652H178.513V107.452H18.773V100.652Z" fill="white"/>
<path d="M178.52 107.807H18.774C18.68 107.807 18.59 107.769 18.5236 107.703C18.4572 107.636 18.42 107.546 18.42 107.452V100.652C18.4218 100.559 18.4596 100.469 18.5256 100.403C18.5916 100.337 18.6806 100.299 18.774 100.297H178.522C178.715 100.3 178.872 100.457 178.875 100.652V107.452C178.875 107.546 178.838 107.636 178.772 107.702C178.706 107.769 178.616 107.806 178.522 107.807H178.52ZM19.127 107.097H178.138V101H19.128V107.096L19.127 107.097Z" fill="#231F20"/>
<path d="M78.856 137.436C79.005 137.94 70.066 170.156 70.066 170.156L82.558 172.173L97.32 127.666L78.856 137.436V137.436Z" fill="white"/>
<path d="M82.558 172.529H82.5L70.01 170.511C69.9598 170.504 69.9116 170.486 69.8687 170.459C69.8258 170.432 69.7891 170.396 69.761 170.354C69.7121 170.266 69.6972 170.163 69.719 170.064C73.208 157.515 78.402 138.537 78.501 137.471C78.4964 137.402 78.5121 137.333 78.5462 137.272C78.5803 137.212 78.6313 137.163 78.693 137.131L97.156 127.361C97.2192 127.329 97.2903 127.316 97.3607 127.323C97.4311 127.331 97.4979 127.358 97.553 127.403C97.6047 127.451 97.6419 127.512 97.6607 127.58C97.6794 127.648 97.6788 127.719 97.659 127.787L82.889 172.294C82.8654 172.363 82.8206 172.423 82.761 172.465C82.7014 172.507 82.63 172.53 82.557 172.529H82.558ZM70.527 169.864L82.331 171.776L96.726 128.398L79.175 137.678C78.785 139.717 75.877 150.524 70.513 169.864H70.527V169.864Z" fill="#231F20"/>
<path d="M69.31 168.763L67.406 174.773L97.32 177.097C95.9186 174.259 93.4894 172.062 90.526 170.951C87.419 169.857 84.072 168.55 84.072 168.55L82.558 172.173L69.31 168.763V168.763Z" fill="#231F20"/>
<path d="M97.32 177.453L67.406 175.129C67.3524 175.125 67.3004 175.109 67.2539 175.082C67.2073 175.056 67.1675 175.019 67.1375 174.974C67.1074 174.929 67.0879 174.879 67.0803 174.826C67.0728 174.772 67.0775 174.718 67.094 174.667L68.998 168.657C69.0255 168.571 69.0849 168.499 69.1639 168.455C69.2429 168.411 69.3356 168.4 69.423 168.422L82.373 171.754L83.789 168.414C83.8061 168.372 83.8315 168.333 83.8635 168.301C83.8956 168.268 83.9338 168.242 83.9758 168.224C84.0179 168.207 84.0631 168.197 84.1088 168.197C84.1545 168.197 84.1997 168.206 84.242 168.223C84.277 168.223 87.618 169.537 90.689 170.617C93.7468 171.757 96.2515 174.025 97.688 176.955C97.748 177.063 97.748 177.195 97.688 177.303C97.6501 177.363 97.5942 177.41 97.5282 177.437C97.4622 177.464 97.3893 177.47 97.32 177.453ZM67.873 174.454L96.71 176.7C95.3118 174.212 93.0821 172.295 90.412 171.286C87.885 170.398 85.175 169.361 84.262 169.013L82.882 172.309C82.8495 172.389 82.7896 172.454 82.7131 172.493C82.6366 172.532 82.5486 172.543 82.465 172.523L69.542 169.212L67.872 174.455L67.873 174.454ZM48.312 137.862L46.189 171.797C46.189 171.797 39.013 172.046 37.216 173.31C35.418 174.575 33.953 180.302 33.953 180.302H36.19C36.19 180.302 37.492 176.039 38.921 175.527C40.351 175.016 48.475 174.817 48.475 174.817C48.475 174.817 52.395 176.337 53.025 178.945C53.521 180.998 53.379 181.475 53.379 181.475H55.856C55.8502 180.306 55.6837 179.144 55.361 178.021C54.866 176.6 53.004 174.901 53.004 174.901C53.004 174.901 57.102 174.987 58.468 174.987C59.834 174.987 61.256 177.602 61.256 177.602H63.924C63.924 177.602 61.136 172.884 59.331 172.55C57.526 172.216 52.898 171.406 52.898 171.406L51.638 139.788L48.312 137.862V137.862Z" fill="#231F20"/>
<path d="M55.885 181.837H53.408C53.3521 181.836 53.2972 181.822 53.2471 181.798C53.197 181.773 53.1529 181.738 53.118 181.694C53.0859 181.648 53.0648 181.595 53.0561 181.54C53.0475 181.484 53.0515 181.428 53.068 181.374C53.0714 180.581 52.95 179.792 52.708 179.037C52.176 176.813 48.928 175.385 48.461 175.187C46.161 175.236 40.202 175.449 39.091 175.897C38.171 176.237 37.06 178.867 36.579 180.437C36.5568 180.51 36.5118 180.574 36.4507 180.62C36.3896 180.666 36.3155 180.692 36.239 180.693H33.982C33.928 180.692 33.875 180.678 33.8269 180.654C33.7788 180.629 33.7369 180.594 33.7043 180.551C33.6716 180.508 33.6491 180.458 33.6383 180.405C33.6275 180.352 33.6288 180.297 33.642 180.245C33.698 180.011 35.156 174.376 37.039 173.055C38.702 171.889 44.441 171.555 45.885 171.491L47.965 137.869C47.9699 137.809 47.9893 137.751 48.0215 137.701C48.0538 137.65 48.0978 137.608 48.15 137.578C48.2023 137.55 48.2607 137.535 48.32 137.535C48.3793 137.535 48.4377 137.55 48.49 137.578L51.844 139.518C51.949 139.578 52.016 139.688 52.021 139.808L53.273 171.143C54.306 171.321 57.902 171.946 59.43 172.237C61.327 172.593 63.966 176.955 64.257 177.453C64.2881 177.507 64.3044 177.568 64.3044 177.631C64.3044 177.693 64.2881 177.754 64.257 177.808C64.226 177.864 64.1808 177.91 64.126 177.943C64.0712 177.975 64.0087 177.993 63.945 177.993H61.277C61.2134 177.992 61.1512 177.975 61.0966 177.942C61.0419 177.91 60.9969 177.864 60.966 177.808C60.456 176.87 59.324 175.378 58.489 175.378C57.526 175.378 55.191 175.335 53.903 175.314C54.6725 176.061 55.2881 176.952 55.715 177.936C56.055 179.089 56.228 180.286 56.231 181.488C56.2295 181.58 56.1926 181.667 56.1281 181.732C56.0637 181.797 55.9765 181.835 55.885 181.837V181.837ZM53.762 181.127H55.51C55.4863 180.116 55.329 179.112 55.042 178.142C54.582 176.813 52.799 175.193 52.778 175.172C52.7261 175.123 52.6897 175.06 52.6733 174.991C52.6569 174.922 52.6614 174.849 52.686 174.782C52.7152 174.716 52.7627 174.659 52.8229 174.619C52.8831 174.578 52.9535 174.556 53.026 174.554C53.068 174.554 57.13 174.639 58.482 174.639C59.834 174.639 61.093 176.593 61.475 177.254H63.301C62.353 175.754 60.471 173.126 59.281 172.905C57.505 172.571 52.912 171.775 52.856 171.768C52.7745 171.755 52.7003 171.714 52.6459 171.652C52.5915 171.59 52.5604 171.51 52.558 171.428L51.32 140.008L48.63 138.452L46.571 171.847C46.5659 171.935 46.5282 172.018 46.4654 172.08C46.4025 172.141 46.319 172.177 46.231 172.181C44.264 172.251 38.851 172.642 37.449 173.601C36.175 174.497 34.944 178.141 34.442 179.947H35.956C36.282 178.945 37.442 175.683 38.786 175.193C40.131 174.703 48.128 174.483 48.461 174.483H48.595C48.765 174.547 52.7 176.096 53.365 178.853C53.575 179.595 53.713 180.357 53.775 181.126H53.762V181.127Z" fill="#231F20"/>
<path d="M89.231 116.22C89.231 116.22 117.496 117.733 119.28 121.776C121.063 125.819 107.957 170.276 107.957 170.276C107.957 170.276 121.792 175.079 119.527 176.088C117.263 177.098 94.617 175.079 94.617 175.079L105.352 133.869L77.384 131.979L89.231 116.219V116.22Z" fill="white"/>
<path d="M115.968 176.728C109.33 176.728 96.428 175.598 94.61 175.435C94.5581 175.43 94.5077 175.415 94.4625 175.389C94.4173 175.363 94.3782 175.327 94.348 175.285C94.3188 175.242 94.2992 175.193 94.2906 175.141C94.282 175.09 94.2845 175.037 94.298 174.987L104.914 134.224L77.37 132.363C77.3073 132.356 77.2474 132.333 77.1956 132.297C77.1438 132.261 77.1016 132.213 77.073 132.157C77.0459 132.098 77.0354 132.034 77.0428 131.97C77.0503 131.906 77.0752 131.845 77.115 131.794L88.97 116.006C89.0006 115.956 89.0449 115.916 89.0976 115.891C89.1503 115.866 89.2091 115.857 89.267 115.864C89.338 115.864 96.429 116.248 103.647 117.129C118.431 118.919 119.33 120.959 119.627 121.634C121.375 125.606 109.72 165.686 108.432 170.056C112.19 171.371 120.116 174.319 120.172 175.776C120.174 175.918 120.131 176.057 120.048 176.172C119.965 176.287 119.847 176.373 119.712 176.416C118.486 176.7 117.225 176.806 115.969 176.728H115.968ZM95.084 174.76C101.651 175.342 117.659 176.543 119.407 175.762C118.94 174.902 113.123 172.451 107.843 170.624C107.757 170.593 107.686 170.53 107.645 170.448C107.605 170.366 107.597 170.271 107.624 170.184C111.247 157.856 120.362 125.144 118.947 121.925C117.532 118.706 97.334 117.022 89.394 116.589L78.07 131.702L105.387 133.556C105.439 133.559 105.491 133.573 105.537 133.597C105.584 133.622 105.624 133.656 105.656 133.698C105.713 133.787 105.733 133.894 105.712 133.997L95.082 174.76H95.084Z" fill="#231F20"/>
<path d="M79.642 90.953C79.642 90.953 94.164 109.143 100.37 108.638C106.577 108.134 124.354 85.709 124.354 85.709C127.567 81.859 131.162 76.97 128.862 71.662C128.635 71.151 128.239 70.604 127.687 70.646C127.455 70.6819 127.234 70.772 127.043 70.909L125.062 72.131C125.125 71.584 124.432 71.193 123.901 71.343C123.384 71.545 122.954 71.923 122.684 72.408C120.624 75.35 119.294 78.149 119.407 81.773L98.63 92.431L90.386 83.272" fill="white"/>
<path d="M100.122 109C93.675 109 79.953 91.948 79.366 91.173C79.317 91.099 79.2975 91.0093 79.3111 90.9217C79.3248 90.834 79.3708 90.7546 79.44 90.699C79.5093 90.6435 79.597 90.6162 79.6856 90.6225C79.7742 90.6288 79.8572 90.6682 79.918 90.733C80.059 90.911 94.015 108.297 100.101 108.297H100.341C106.329 107.814 123.887 85.724 124.057 85.497C127.376 81.532 130.723 76.885 128.522 71.819C128.437 71.619 128.14 70.987 127.702 71.016C127.524 71.0481 127.357 71.121 127.212 71.229L125.217 72.444C125.161 72.4794 125.095 72.4981 125.029 72.4979C124.962 72.4977 124.897 72.4787 124.841 72.4431C124.784 72.4074 124.739 72.3565 124.711 72.2964C124.682 72.2362 124.671 72.1691 124.679 72.103C124.684 72.0518 124.674 72.0003 124.652 71.954C124.629 71.9077 124.595 71.8683 124.552 71.84C124.472 71.7754 124.378 71.7292 124.278 71.7047C124.178 71.6801 124.073 71.6779 123.972 71.698C123.536 71.8848 123.175 72.2122 122.946 72.628C121.205 75.116 119.612 77.943 119.733 81.78C119.735 81.847 119.719 81.9132 119.685 81.9711C119.651 82.029 119.601 82.0761 119.542 82.107L98.764 92.765C98.6945 92.8009 98.6151 92.8127 98.5382 92.7986C98.4612 92.7845 98.3912 92.7452 98.339 92.687L90.102 83.514C90.035 83.4474 89.9972 83.357 89.997 83.2626C89.9967 83.1681 90.0339 83.0775 90.1005 83.0105C90.1671 82.9435 90.2575 82.9057 90.3519 82.9055C90.4463 82.9052 90.537 82.9424 90.604 83.009L98.658 91.948L119.004 81.538C118.94 77.609 120.568 74.718 122.344 72.181C122.662 71.6269 123.162 71.2 123.759 70.973C124.195 70.868 124.654 70.976 124.998 71.264C125.093 71.348 125.174 71.446 125.238 71.556L126.824 70.582C127.063 70.4141 127.34 70.307 127.63 70.27C128.246 70.22 128.791 70.675 129.145 71.499C131.707 77.396 127.078 82.939 124.587 85.916C123.88 86.825 106.669 108.461 100.377 108.972L100.122 109.001V109Z" fill="#231F20"/>
<path d="M32.106 87.848C32.106 87.848 24.626 104.865 27.4 106.684C30.174 108.504 47.06 106.684 47.06 106.684L45.595 84.658" fill="white"/>
<path d="M33.819 107.807C30.797 107.807 28.157 107.594 27.195 106.954C26.714 106.642 25.242 105.682 28.377 96.467C29.884 92.027 31.759 87.749 31.781 87.707C31.7958 87.6594 31.8204 87.6154 31.8534 87.5779C31.8863 87.5405 31.9268 87.5104 31.9722 87.4897C32.0175 87.469 32.0668 87.4581 32.1166 87.4578C32.1665 87.4574 32.2159 87.4676 32.2616 87.4877C32.3072 87.5077 32.3481 87.5372 32.3816 87.5742C32.4151 87.6112 32.4403 87.6548 32.4558 87.7022C32.4712 87.7497 32.4764 87.7998 32.4711 87.8494C32.4658 87.899 32.4501 87.9469 32.425 87.99C29.594 94.463 25.758 105.17 27.584 106.357C29.707 107.778 41.738 106.841 46.692 106.357L45.276 84.68C45.2714 84.6328 45.2764 84.5852 45.2905 84.54C45.3046 84.4948 45.3277 84.4528 45.3583 84.4166C45.3889 84.3804 45.4264 84.3507 45.4687 84.3293C45.5109 84.3078 45.5571 84.2951 45.6043 84.2917C45.6516 84.2884 45.6991 84.2946 45.7439 84.3099C45.7888 84.3252 45.8301 84.3493 45.8655 84.3808C45.9009 84.4123 45.9296 84.4506 45.95 84.4934C45.9703 84.5362 45.9819 84.5827 45.984 84.63L47.449 106.657C47.4549 106.749 47.4249 106.839 47.3654 106.909C47.3059 106.98 47.2215 107.024 47.13 107.033C46.635 107.062 39.502 107.808 33.819 107.808V107.807Z" fill="#231F20"/>
<path d="M38.2 116.688C38.2 116.688 34.54 124.845 38.44 129.989C42.34 135.134 96.47 135.752 96.47 135.752L100.356 116.219L77.71 113.122L76.394 106.364L38.199 116.688H38.2Z" fill="white"/>
<path d="M96.485 136.107C96.35 136.107 82.784 135.944 68.885 135.155C50.166 134.089 39.82 132.419 38.135 130.181C34.158 124.938 37.697 116.866 37.853 116.525C37.895 116.425 37.982 116.352 38.086 116.326L76.302 106.002C76.397 105.972 76.502 105.988 76.585 106.045C76.665 106.095 76.722 106.178 76.74 106.272L78.007 112.788L100.377 115.843C100.425 115.849 100.472 115.866 100.513 115.892C100.555 115.918 100.59 115.952 100.617 115.993C100.645 116.031 100.665 116.075 100.675 116.122C100.684 116.168 100.684 116.217 100.674 116.263L96.832 135.816C96.8173 135.897 96.7745 135.971 96.7111 136.024C96.6477 136.077 96.5677 136.107 96.485 136.107V136.107ZM38.455 116.987C37.995 118.117 35.284 125.243 38.723 129.777C41.71 133.713 77.448 135.177 96.195 135.404L99.953 116.525L77.703 113.484C77.6301 113.473 77.5623 113.44 77.5091 113.39C77.4558 113.339 77.4198 113.272 77.406 113.2L76.167 106.805L38.454 116.987H38.455Z" fill="#231F20"/>
<path d="M60.378 47.973C59.8254 47.6399 59.3445 47.2004 58.963 46.68C58.4328 45.9166 58.049 45.0615 57.831 44.158C55.913 37.195 55.899 28.278 62.077 23.51C63.8966 22.1124 66.0256 21.1729 68.2845 20.7709C70.5434 20.3689 72.8659 20.516 75.056 21.2C78.056 22.181 80.604 26.324 81.942 29.017C83.039 31.197 83.782 33.571 85.084 35.632C86.386 37.692 88.46 39.497 90.894 39.618C89.9303 40.1596 88.8564 40.4754 87.753 40.5418C86.6496 40.6081 85.5456 40.4232 84.524 40.001C84.9989 40.6427 85.649 41.1336 86.3962 41.4147C87.1434 41.6959 87.9558 41.7554 88.736 41.586C87.32 42.716 85.296 42.673 83.513 42.296C81.73 41.92 79.974 41.351 78.142 41.586C75.311 41.906 73.471 43.994 71.256 45.508C68.446 47.355 63.591 49.842 60.378 47.973V47.973Z" fill="white"/>
<path d="M63.046 48.997C62.0561 49.0182 61.0786 48.773 60.216 48.287C59.6109 47.9247 59.0878 47.4404 58.68 46.865C58.1214 46.0558 57.7182 45.1497 57.491 44.193C56.557 40.783 54.094 29.173 61.843 23.176C63.7076 21.7393 65.8915 20.774 68.2091 20.3621C70.5267 19.9501 72.9095 20.1038 75.155 20.81C78.368 21.854 80.979 26.246 82.232 28.768C82.657 29.621 83.039 30.508 83.4 31.368C83.9446 32.7488 84.5977 34.0843 85.353 35.362C86.061 36.462 87.986 39.035 90.88 39.177C91.037 39.183 91.17 39.294 91.206 39.447C91.2259 39.5217 91.2199 39.6008 91.189 39.6716C91.1582 39.7425 91.1042 39.8007 91.036 39.837C89.4664 40.7158 87.6379 41.0153 85.87 40.683C86.699 41.195 87.693 41.363 88.644 41.153C88.7228 41.1342 88.8056 41.1429 88.8788 41.1775C88.952 41.2122 89.0112 41.2708 89.0466 41.3436C89.082 41.4164 89.0916 41.4992 89.0736 41.5781C89.0557 41.6571 89.0114 41.7276 88.948 41.778C87.681 42.779 85.828 43.049 83.435 42.588C83.01 42.509 82.585 42.41 82.161 42.311C80.8682 41.9356 79.5212 41.7818 78.177 41.856C76.174 42.083 74.688 43.276 73.11 44.478C72.572 44.897 72.02 45.323 71.447 45.721C69.797 46.872 66.259 48.997 63.047 48.997H63.046ZM70.796 20.867C67.7092 20.8658 64.7085 21.885 62.261 23.766C54.866 29.5 57.251 40.726 58.163 44.037C58.37 44.907 58.738 45.732 59.246 46.467C59.601 46.954 60.052 47.362 60.57 47.667C63.98 49.657 69.465 46.247 71.065 45.16C71.6185 44.7733 72.1588 44.368 72.685 43.945C74.27 42.708 75.912 41.429 78.113 41.181C79.5448 41.0911 80.9813 41.2498 82.359 41.65C82.777 41.742 83.194 41.842 83.612 41.92C84.7894 42.1954 86.0145 42.1954 87.192 41.92C86.0236 41.7312 84.9751 41.0936 84.27 40.143C84.2241 40.0815 84.1992 40.0068 84.1992 39.93C84.1992 39.8532 84.2241 39.7785 84.27 39.717C84.3161 39.6554 84.3819 39.6114 84.4564 39.5921C84.5309 39.5728 84.6098 39.5795 84.68 39.611C86.2759 40.26 88.055 40.2977 89.677 39.717C87.6079 39.0584 85.8623 37.6455 84.787 35.759C84.0072 34.4517 83.335 33.0832 82.777 31.667C82.416 30.821 82.069 29.94 81.623 29.109C80.647 27.155 78.035 22.509 74.95 21.506C73.6076 21.0755 72.2057 20.8595 70.796 20.866V20.867Z" fill="#231F20"/>
<path d="M79.557 42.914C79.557 42.914 81.489 48.982 80.477 49.842C79.465 50.702 77.363 49.352 77.363 49.352" fill="white"/>
<path d="M79.62 50.489C78.7541 50.4142 77.9202 50.126 77.193 49.65C77.1488 49.6274 77.1099 49.5957 77.0787 49.5572C77.0475 49.5186 77.0247 49.474 77.0117 49.4261C76.9988 49.3782 76.996 49.3281 77.0035 49.2791C77.0111 49.23 77.0288 49.1831 77.0555 49.1413C77.0823 49.0995 77.1174 49.0638 77.1588 49.0364C77.2002 49.009 77.2468 48.9905 77.2957 48.9822C77.3446 48.9739 77.3947 48.9759 77.4428 48.9881C77.4909 49.0003 77.5359 49.0224 77.575 49.053C78.071 49.366 79.621 50.141 80.265 49.573C80.753 49.153 80.123 45.849 79.217 43.028C79.1904 42.9377 79.2 42.8406 79.2436 42.7572C79.2873 42.6738 79.3616 42.6106 79.451 42.581C79.5402 42.552 79.6373 42.5596 79.721 42.6022C79.8046 42.6447 79.8679 42.7188 79.897 42.808C80.364 44.286 81.814 49.203 80.725 50.112C80.4171 50.3713 80.0232 50.5058 79.621 50.489H79.62Z" fill="#231F20"/>
<path d="M80.732 35.958C82.381 38.318 80.732 41.856 80.024 44.264C79.0481 47.6537 77.9935 51.0203 76.861 54.361C76.153 56.493 70.576 54.951 69.784 54.034L68.269 62.781L56.543 58.709L60.315 48.101C60.315 48.101 64.087 49.196 67.484 45.423C70.881 41.65 73.244 32.029 73.244 32.029C73.244 32.029 79.125 33.649 80.732 35.959V35.958Z" fill="white"/>
<path d="M68.262 63.136H68.149L56.415 59.08C56.3704 59.066 56.3292 59.043 56.2939 59.0123C56.2587 58.9817 56.2301 58.9442 56.21 58.902C56.1782 58.8124 56.1782 58.7146 56.21 58.625L59.954 47.982C59.9828 47.8979 60.043 47.8281 60.1219 47.7871C60.2009 47.7461 60.2926 47.7371 60.378 47.762C60.528 47.797 63.995 48.735 67.194 45.182C70.392 41.629 72.855 32.044 72.855 31.945C72.8654 31.899 72.8853 31.8557 72.9134 31.8179C72.9414 31.78 72.977 31.7484 73.018 31.725C73.1041 31.6895 73.2008 31.6895 73.287 31.725C73.534 31.795 79.317 33.409 80.979 35.789C82.451 37.92 81.503 40.763 80.732 43.107C80.583 43.562 80.442 43.995 80.322 44.4C79.3417 47.7937 78.2841 51.1646 77.15 54.51C77.012 54.8371 76.7876 55.1204 76.5008 55.3295C76.2139 55.5386 75.8756 55.6657 75.522 55.697C73.6174 55.9088 71.6929 55.5474 69.995 54.659L68.58 62.845C68.572 62.8955 68.5525 62.9435 68.523 62.9853C68.4935 63.0271 68.4549 63.0615 68.41 63.086C68.3653 63.1149 68.3141 63.1321 68.261 63.136H68.262ZM56.99 58.49L67.987 62.313L69.403 53.971C69.4152 53.9056 69.4455 53.845 69.4905 53.796C69.5354 53.747 69.5933 53.7116 69.6574 53.6939C69.7215 53.6762 69.7893 53.6768 69.853 53.6958C69.9168 53.7147 69.9739 53.7512 70.018 53.801C70.528 54.391 73.592 55.357 75.39 55.001C75.998 54.881 76.366 54.625 76.494 54.241C77.6261 50.9076 78.6808 47.5483 79.657 44.166C79.777 43.754 79.926 43.313 80.075 42.844C80.782 40.677 81.688 37.977 80.415 36.158C79.14 34.339 74.753 32.862 73.465 32.478C72.991 34.29 70.797 42.233 67.711 45.658C64.746 48.948 61.533 48.699 60.507 48.5L56.99 58.49V58.49Z" fill="#231F20"/>
<path d="M77.49 51.803C77.49 51.803 74.412 52.684 73.782 49.565Z" fill="white"/>
<path d="M76.55 52.272C75.9422 52.2879 75.3418 52.1356 74.815 51.832C74.4373 51.5868 74.1158 51.2643 73.8719 50.8858C73.628 50.5073 73.4671 50.0813 73.4 49.636C73.3907 49.5895 73.3906 49.5416 73.3998 49.4951C73.4089 49.4486 73.4272 49.4044 73.4535 49.3649C73.4798 49.3254 73.5135 49.2915 73.5529 49.2651C73.5923 49.2387 73.6365 49.2203 73.683 49.211C73.7295 49.2017 73.7774 49.2016 73.8239 49.2108C73.8704 49.22 73.9146 49.2382 73.9541 49.2645C73.9936 49.2908 74.0275 49.3246 74.0539 49.3639C74.0803 49.4033 74.0987 49.4475 74.108 49.494C74.203 50.194 74.588 50.821 75.169 51.221C75.849 51.565 76.631 51.651 77.37 51.462C77.4323 51.4448 77.4981 51.4445 77.5606 51.461C77.6232 51.4776 77.6802 51.5104 77.7259 51.5561C77.7716 51.6018 77.8044 51.6588 77.821 51.7213C77.8375 51.7839 77.8372 51.8497 77.82 51.912C77.8034 51.9743 77.7708 52.0311 77.7253 52.0767C77.6799 52.1223 77.6232 52.1552 77.561 52.172C77.229 52.2466 76.8892 52.2802 76.549 52.272H76.55Z" fill="#231F20"/>
<path d="M72.459 43.263C72.6027 42.3861 72.5024 41.4866 72.169 40.663C71.9964 39.9983 71.7294 39.3618 71.376 38.773C71.1929 38.4829 70.9485 38.2364 70.66 38.0509C70.3715 37.8653 70.0459 37.7452 69.706 37.699C69.4007 37.6937 69.098 37.7544 68.8184 37.877C68.5388 37.9995 68.289 38.181 68.086 38.409C67.672 38.855 67.366 39.389 67.194 39.973C66.7845 41.2305 66.7108 42.5733 66.98 43.8681C67.2492 45.1629 67.8521 46.3649 68.729 47.355L68.595 47.099" fill="white"/>
<path d="M68.73 47.71C68.6808 47.7097 68.6322 47.6996 68.587 47.6802C68.5418 47.6608 68.501 47.6325 68.467 47.597C67.5464 46.5543 66.9136 45.2897 66.6307 43.9279C66.3478 42.5661 66.4248 41.154 66.854 39.831C67.044 39.196 67.378 38.615 67.83 38.133C68.0732 37.8739 68.3688 37.6695 68.697 37.5333C69.0253 37.3971 69.3787 37.3322 69.734 37.343C70.532 37.435 71.244 37.888 71.666 38.573C72.042 39.189 72.326 39.857 72.508 40.556C72.863 41.4414 72.9661 42.4077 72.806 43.348C72.7816 43.4403 72.7215 43.5191 72.639 43.5671C72.5565 43.6151 72.4583 43.6284 72.366 43.604C72.276 43.5788 72.1995 43.519 72.1533 43.4378C72.107 43.3565 72.0947 43.2603 72.119 43.17C72.2375 42.3581 72.1374 41.5293 71.829 40.769C71.6704 40.138 71.4175 39.5346 71.079 38.979C70.9278 38.7282 70.7219 38.5148 70.4767 38.3546C70.2316 38.1945 69.9534 38.0917 69.663 38.054C69.153 38.044 68.664 38.254 68.319 38.63C67.942 39.035 67.664 39.52 67.505 40.051C67.1385 41.1763 67.052 42.374 67.2529 43.5402C67.4538 44.7065 67.9361 45.8062 68.658 46.744C68.758 46.772 68.842 46.838 68.892 46.929L69.019 47.185C69.0597 47.2612 69.0707 47.3499 69.0498 47.4337C69.0289 47.5176 68.9777 47.5908 68.906 47.639C68.8553 47.6798 68.7938 47.7049 68.729 47.711L68.73 47.71Z" fill="#231F20"/>
<path d="M80.2729 40.2033C80.4244 39.5258 80.1104 38.8789 79.5714 38.7583C79.0324 38.6377 78.4727 39.0892 78.3211 39.7667C78.1696 40.4442 78.4836 41.0911 79.0226 41.2117C79.5615 41.3322 80.1213 40.8808 80.2729 40.2033Z" fill="#231F20"/>
<path d="M69.777 54.034C68.2387 53.032 66.7657 51.9331 65.367 50.744C65.367 50.744 64.66 56.898 68.857 58.312L69.777 54.034V54.034Z" fill="#231F20"/>
<path d="M68.857 58.667C68.8193 58.6739 68.7807 58.6739 68.743 58.667C64.342 57.182 64.986 50.987 65.013 50.723C65.029 50.593 65.113 50.483 65.233 50.432C65.2929 50.4091 65.3578 50.4024 65.4211 50.4124C65.4844 50.4224 65.5441 50.4488 65.594 50.489C66.9828 51.668 68.4436 52.7595 69.968 53.757C70.089 53.837 70.15 53.983 70.123 54.127L69.203 58.39C69.1923 58.4386 69.1716 58.4844 69.1424 58.5247C69.1131 58.565 69.0759 58.5988 69.033 58.624C68.9786 58.652 68.9182 58.6667 68.857 58.667V58.667ZM65.687 51.469C65.687 52.989 65.884 56.621 68.602 57.829L69.38 54.198C68.1019 53.3534 66.8689 52.4424 65.686 51.469H65.687Z" fill="#231F20"/>
<path d="M36.006 119.381C36.006 119.381 36.642 75.897 43.139 65.886C49.636 55.874 66.493 53.615 74.532 59.583C82.572 65.552 78.701 111.168 78.701 111.168C78.701 111.168 53.068 119.38 36.006 119.38V119.381Z" fill="#A90100"/>
<path d="M68.92 57.026C73.1983 58.7712 77.1951 61.1391 80.781 64.053C86.344 68.693 98.084 88.643 98.084 88.643L82.6 98.059L68.7 80.85L68.92 57.027V57.026ZM49.834 59.733C49.834 59.733 41.731 60.649 37.442 69.581C35.121 74.426 29.176 90.072 29.176 90.072L47.053 92.14L49.833 59.733H49.834Z" fill="#A90100"/>
<path d="M81.44 96.971C81.3841 96.9709 81.3291 96.9573 81.2797 96.9314C81.2302 96.9054 81.1878 96.8679 81.156 96.822L67.35 77.943C67.2938 77.8676 67.2697 77.773 67.283 77.6799C67.2963 77.5867 67.3459 77.5026 67.421 77.446C67.4975 77.3921 67.5919 77.3702 67.6843 77.3847C67.7767 77.3993 67.8598 77.4492 67.916 77.524L81.723 96.403C81.7621 96.4558 81.7859 96.5183 81.7916 96.5838C81.7974 96.6492 81.7849 96.715 81.7556 96.7738C81.7264 96.8326 81.6814 96.8821 81.6256 96.9169C81.5699 96.9517 81.5057 96.9704 81.44 96.971ZM122.655 75.634L126.109 64.87L127.185 65.182L125.012 75.798C125.012 75.798 123.483 77.276 122.655 75.634V75.634Z" fill="#231F20"/>
<path d="M123.717 76.764H123.477C123.224 76.7103 122.987 76.5955 122.789 76.4296C122.59 76.2637 122.435 76.0516 122.337 75.812C122.302 75.7255 122.302 75.6285 122.337 75.542L125.769 64.763C125.8 64.6761 125.862 64.6039 125.943 64.5606C126.024 64.5173 126.119 64.506 126.208 64.529L127.284 64.841C127.369 64.8662 127.442 64.9226 127.488 64.9989C127.534 65.0752 127.549 65.1659 127.531 65.253L125.359 75.911C125.345 75.9792 125.31 76.0413 125.259 76.089C124.839 76.486 124.294 76.7246 123.717 76.764V76.764ZM123.009 75.592C123.119 75.819 123.324 75.986 123.569 76.046C123.974 76.05 124.365 75.894 124.659 75.613L126.746 65.431L126.314 65.311L123.009 75.591V75.592Z" fill="#231F20"/>
<path d="M57.35 51.263C50.98 49.843 43.903 50.837 38.758 54.816C36.5756 56.4165 34.9377 58.6489 34.066 61.211C33.6522 62.4993 33.5558 63.8685 33.7851 65.202C34.0144 66.5356 34.5626 67.794 35.383 68.87C40.266 74.76 50.987 74.732 57.618 72.806C62.141 71.499 75.53 65.118 71.843 58.852C69.189 54.368 62.126 52.293 57.35 51.263V51.263Z" fill="#A90100"/>
<path d="M49.24 73.34C45.0178 73.2165 40.8957 72.0259 37.258 69.879C37.2176 69.855 37.1825 69.823 37.1548 69.7851C37.1271 69.7471 37.1074 69.7039 37.0968 69.6581C37.0863 69.6123 37.0851 69.5649 37.0934 69.5186C37.1016 69.4724 37.1192 69.4283 37.145 69.389C37.17 69.3499 37.2024 69.3161 37.2405 69.2896C37.2785 69.263 37.3215 69.2443 37.3668 69.2343C37.4121 69.2244 37.459 69.2235 37.5046 69.2317C37.5503 69.2398 37.5939 69.2569 37.633 69.282C37.718 69.339 46.473 74.802 54.759 71.648C58.737 70.135 61.129 67.448 63.414 64.856C65.941 62.013 68.326 59.328 72.444 58.951C72.4907 58.9469 72.5377 58.9521 72.5824 58.9664C72.627 58.9807 72.6684 59.0037 72.704 59.0342C72.7397 59.0646 72.7689 59.1019 72.79 59.1437C72.8111 59.1856 72.8237 59.2312 72.827 59.278C72.8317 59.3242 72.8271 59.3709 72.8135 59.4154C72.7999 59.4598 72.7777 59.5011 72.748 59.5369C72.7183 59.5726 72.6818 59.6021 72.6406 59.6236C72.5994 59.6451 72.5543 59.6581 72.508 59.662C68.673 60.01 66.478 62.504 63.945 65.346C61.695 67.882 59.147 70.753 55.007 72.33C53.1615 73.0138 51.207 73.3561 49.239 73.34H49.24ZM36.642 103.842C36.5953 103.84 36.5494 103.829 36.507 103.81C36.4646 103.79 36.4266 103.762 36.3949 103.728C36.3633 103.693 36.3389 103.653 36.3229 103.609C36.3069 103.565 36.2998 103.519 36.302 103.472C36.819 92.225 39.134 76.039 39.134 75.876C39.1493 75.7836 39.1998 75.7008 39.275 75.645C39.3502 75.5892 39.4441 75.5648 39.537 75.577C39.727 75.607 39.859 75.784 39.834 75.975C39.834 76.139 37.492 92.317 37.004 103.501C37.0003 103.594 36.9604 103.682 36.8927 103.745C36.825 103.809 36.735 103.844 36.642 103.842V103.842ZM90.915 174.32H105.954C105.954 174.32 107.589 170.66 111.113 170.156C111.113 170.156 124.828 175.975 122.811 177.168C120.794 178.362 89.854 178.234 89.854 178.234L90.915 174.319V174.32Z" fill="#231F20"/>
<path d="M93.01 178.597H89.847C89.7927 178.596 89.7393 178.583 89.6908 178.559C89.6424 178.535 89.6001 178.499 89.5673 178.456C89.5345 178.413 89.512 178.363 89.5016 178.31C89.4911 178.256 89.493 178.201 89.507 178.149L90.569 174.234C90.5892 174.158 90.6342 174.091 90.6969 174.043C90.7595 173.996 90.8363 173.97 90.915 173.971H105.735C106.152 173.154 107.858 170.269 111.063 169.807C111.123 169.789 111.187 169.789 111.247 169.807C114.078 171.001 123.278 175.037 123.37 176.799C123.375 176.932 123.343 177.064 123.276 177.18C123.21 177.295 123.113 177.39 122.995 177.453C121.275 178.49 101.212 178.597 93.01 178.597V178.597ZM90.314 177.887C102.72 177.922 121.233 177.694 122.634 176.863C122.634 175.982 116.64 172.891 111.064 170.518C107.85 171.044 106.294 174.433 106.279 174.468C106.25 174.53 106.205 174.582 106.147 174.619C106.089 174.656 106.022 174.675 105.954 174.674H91.184L90.314 177.886V177.887ZM79.55 139.368C89.125 137.343 95.544 132.846 91.779 126.778C88.014 120.71 60.973 124.646 55.686 120.148C50.4 115.651 52.29 91.798 46.486 87.713C40.683 83.628 15.808 79.499 13.026 84.658C10.246 89.816 13.026 127.353 21.13 135.688C29.233 144.022 70.208 141.301 79.55 139.368V139.368Z" fill="#231F20"/>
<path d="M51.462 141.749H49.862C39.105 141.656 25.341 140.569 20.847 135.965C12.836 127.666 9.70699 90.115 12.715 84.509C13.232 83.549 14.414 82.846 16.254 82.377C23.946 80.544 41.731 83.883 46.684 87.351C49.806 89.546 50.775 97.028 51.716 104.261C52.573 110.869 53.457 117.697 55.927 119.808C58.277 121.811 65.495 122.103 72.48 122.387C81.078 122.735 89.974 123.097 92.104 126.522C93.336 128.512 93.576 130.43 92.812 132.206C91.397 135.489 86.74 138.125 79.642 139.624C74.766 140.704 62.848 141.749 51.462 141.749V141.749ZM21.632 82.612C19.8735 82.5804 18.1171 82.7448 16.395 83.102C14.782 83.486 13.749 84.075 13.338 84.85C10.592 89.944 13.586 127.417 21.385 135.46C29.318 143.639 70.081 140.967 79.472 139.013C86.245 137.593 90.859 135.034 92.14 132.007C92.805 130.444 92.586 128.747 91.482 126.963C89.55 123.851 80.866 123.503 72.43 123.161C65 122.863 57.98 122.579 55.446 120.411C52.771 118.124 51.907 111.466 50.994 104.418C50.082 97.369 49.126 90.008 46.253 87.998C42.431 85.29 30.118 82.612 21.633 82.612H21.632Z" fill="#231F20"/>
<path d="M97.32 119.737H97.263L74.447 115.729C74.3529 115.713 74.2689 115.66 74.2136 115.583C74.1582 115.505 74.1361 115.408 74.152 115.314C74.1679 115.22 74.2206 115.136 74.2984 115.081C74.3762 115.025 74.4729 115.003 74.567 115.019L97.384 119.026C97.4306 119.03 97.476 119.044 97.5174 119.065C97.5589 119.087 97.5957 119.117 97.6257 119.153C97.6556 119.189 97.6783 119.23 97.6922 119.275C97.7062 119.319 97.7112 119.366 97.707 119.413C97.7028 119.46 97.6895 119.505 97.6677 119.546C97.646 119.588 97.6163 119.625 97.5804 119.655C97.5445 119.685 97.503 119.707 97.4583 119.721C97.4136 119.735 97.3666 119.74 97.32 119.736V119.737Z" fill="#D1D3D4"/>
<path d="M163.1 166.368L162.392 166.29C162.392 166.084 164.622 145.514 157.53 136.377L158.09 135.944C161.147 139.88 162.923 146.204 163.355 154.737C163.551 158.615 163.466 162.502 163.1 166.368V166.368Z" fill="#231F20"/>
<path d="M160.658 168.99C160.647 168.751 160.671 168.512 160.729 168.28C162.421 157.515 159.554 152.499 156.851 150.183L157.311 149.643C160.141 152.073 163.171 157.303 161.43 168.393C161.387 168.663 161.36 168.841 161.36 168.913L160.658 168.99V168.99Z" fill="#231F20"/>
<path d="M156.986 145.614C156.413 145.277 155.767 145.087 155.103 145.06C154.514 144.975 153.915 145.013 153.341 145.171C152.768 145.328 152.233 145.602 151.77 145.976C151.536 146.204 151.331 146.587 151.543 146.836C151.669 146.951 151.827 147.026 151.996 147.049C152.46 147.182 152.882 147.432 153.222 147.774C153.563 148.115 153.811 148.539 153.942 149.003C153.454 148.641 153.037 148.179 152.527 147.817C152.056 147.42 151.45 147.221 150.836 147.262C150.17 147.42 149.584 147.814 149.186 148.371C148.729 148.862 148.35 149.42 148.062 150.026C147.761 150.635 147.671 151.328 147.807 151.994C148.452 151.808 149.13 151.761 149.795 151.859C150.269 151.902 150.718 152.089 151.083 152.392C151.193 152.478 151.273 152.598 151.31 152.733C151.322 152.871 151.283 153.008 151.201 153.119C151.119 153.23 150.999 153.308 150.864 153.337C150.594 153.4 150.314 153.4 150.044 153.337C149.467 153.219 148.883 153.136 148.295 153.089C148.075 153.06 147.852 153.075 147.637 153.131C147.119 153.421 146.837 154.006 146.929 154.595C146.919 154.835 147.009 155.07 147.177 155.242C147.467 155.469 147.885 155.306 148.224 155.163C148.817 154.915 149.451 154.78 150.093 154.766C150.165 154.76 150.238 154.772 150.305 154.801C150.341 154.826 150.371 154.859 150.394 154.896C150.417 154.934 150.431 154.976 150.436 155.019C150.442 155.063 150.438 155.107 150.425 155.149C150.412 155.191 150.391 155.23 150.362 155.263C150.243 155.397 150.084 155.489 149.909 155.526C149.423 155.68 148.926 155.796 148.422 155.874C148.132 155.917 147.792 155.981 147.652 156.244C147.597 156.359 147.57 156.486 147.573 156.613C147.545 157.576 147.822 158.524 148.366 159.32C148.454 159.464 148.569 159.59 148.706 159.69C148.9 159.793 149.116 159.851 149.336 159.86C151.02 160.035 152.722 159.791 154.289 159.15C154.371 159.121 154.442 159.069 154.494 159C154.586 158.837 154.431 158.645 154.31 158.503C153.787 157.856 153.907 156.926 154.056 156.108C154.068 155.949 154.133 155.799 154.24 155.682C154.339 155.615 154.46 155.588 154.578 155.607C154.696 155.625 154.803 155.688 154.877 155.782C155.02 155.976 155.101 156.208 155.11 156.449C155.215 157.29 155.147 158.144 154.912 158.958C155.727 158.767 156.522 158.496 157.282 158.148C157.899 157.908 158.48 157.585 159.01 157.188C159.542 156.784 159.916 156.206 160.064 155.554C160.096 155.433 160.083 155.305 160.029 155.192C159.974 155.114 159.901 155.05 159.816 155.007C159.077 154.527 158.497 153.84 158.146 153.032C158.076 152.862 158.04 152.627 158.196 152.542C158.263 152.521 158.334 152.521 158.401 152.542C159.293 152.691 159.746 153.692 160.481 154.226C160.54 154.274 160.611 154.304 160.687 154.311C160.732 154.311 160.777 154.301 160.818 154.283C160.86 154.264 160.897 154.238 160.927 154.204C161.223 153.928 161.424 153.564 161.501 153.167C161.715 152.385 161.67 151.555 161.373 150.801C161.221 150.428 160.987 150.095 160.688 149.825C160.389 149.556 160.032 149.358 159.646 149.245C159.284 149.161 158.91 149.144 158.542 149.195C158.415 149.195 157.736 149.437 157.644 149.351C157.552 149.266 157.913 148.754 157.998 148.584C158.458 147.532 157.842 146.182 156.986 145.614V145.614ZM167.679 139.184C167.123 139.179 166.574 139.311 166.081 139.567C165.587 139.823 165.164 140.197 164.848 140.654C164.419 141.398 164.245 142.261 164.353 143.113C164.463 143.955 164.667 144.782 164.961 145.578C165.234 145.085 165.623 144.667 166.094 144.358C166.565 144.05 167.104 143.862 167.665 143.809C168.818 143.709 167.474 144.825 167.275 145.059C166.627 145.829 165.997 146.614 165.385 147.412C165.205 147.611 165.085 147.857 165.039 148.122C165.037 148.408 165.121 148.688 165.279 148.925C165.758 149.99 166.486 150.923 167.403 151.646C167.656 151.869 168.013 151.926 168.323 151.796C168.466 151.676 168.573 151.518 168.634 151.341C168.973 150.627 169.414 149.966 169.944 149.38C170.071 149.23 170.276 149.081 170.439 149.188C170.602 149.294 170.573 149.458 170.559 149.614L170.41 151.199C170.311 151.77 170.346 152.356 170.51 152.911C170.885 153.92 172.017 154.424 173.071 154.623C173.359 154.702 173.661 154.702 173.949 154.623C174.515 154.424 174.749 153.749 174.848 153.153C174.959 152.372 175.279 151.635 175.775 151.021C175.904 152.053 176.233 153.05 176.745 153.956C177 154.443 177.355 154.871 177.785 155.213C178.242 155.539 178.767 155.758 179.32 155.853C180.254 156.022 181.205 156.074 182.151 156.009C182.806 156.017 183.459 155.933 184.091 155.76C184.728 155.58 185.274 155.167 185.619 154.602C186.178 153.593 185.746 152.292 185.024 151.398C184.302 150.502 183.326 149.834 182.576 148.961C183.512 149.22 184.383 149.675 185.13 150.296C185.218 150.398 185.327 150.479 185.449 150.536C185.571 150.592 185.704 150.622 185.838 150.623C185.963 150.596 186.077 150.531 186.164 150.438C187.282 149.316 185.994 147.418 185.399 146.41C185.083 145.693 184.521 145.113 183.814 144.776C183.396 144.67 182.958 144.67 182.54 144.776C181.903 144.882 178.747 146.324 180.092 144.427C180.453 144.007 180.904 143.674 181.411 143.451C181.918 143.229 182.469 143.123 183.022 143.141C183.566 143.191 184.394 143.631 184.38 142.608C184.342 142.242 184.2 141.895 183.97 141.607C183.532 140.949 183.06 140.316 182.554 139.709C182.428 139.524 182.24 139.39 182.024 139.333C181.836 139.326 181.65 139.379 181.493 139.483C180.203 140.267 178.777 140.802 177.289 141.059C176.949 141.059 176.475 140.953 176.532 140.619C176.566 140.498 176.644 140.394 176.752 140.328C177.65 139.618 178.995 139.923 179.915 139.268C180.192 139.092 180.376 138.8 180.417 138.473C180.417 137.997 180.028 137.621 179.646 137.329C178.692 136.497 177.521 135.953 176.27 135.759C174.409 135.609 172.732 136.839 171.48 138.239C171.062 138.715 170.771 139.951 170.127 139.873C169.721 139.729 169.324 139.56 168.938 139.368C168.53 139.24 168.105 139.178 167.678 139.184H167.679ZM158.663 129.35C158.584 128.631 158.256 127.963 157.736 127.46C156.787 126.593 155.365 126.55 154.098 126.75C153.148 126.953 152.216 127.231 151.31 127.58C150.397 127.844 150.128 128.05 150.942 128.796C151.515 129.314 153.065 131.169 152.357 132.057C151.65 132.945 150.461 130.679 150.001 130.302C149.401 129.714 148.603 129.371 147.764 129.342C147.029 129.469 146.355 129.828 145.839 130.366C145.288 130.856 144.763 131.376 144.269 131.922C144.188 132 144.125 132.095 144.084 132.199C143.971 132.611 144.53 132.853 144.948 132.909C146.144 133.13 147.481 133.755 147.722 134.949C146.49 135.254 145.33 134.004 144.07 134.139C143.612 134.25 143.188 134.472 142.837 134.786C142.485 135.099 142.216 135.495 142.053 135.937C141.713 136.736 141.608 137.616 141.749 138.473C142.812 138.103 143.951 138.005 145.061 138.189C145.199 138.197 145.33 138.255 145.429 138.352C145.48 138.447 145.491 138.559 145.461 138.663C145.43 138.767 145.36 138.854 145.266 138.907C145.074 139.003 144.856 139.04 144.643 139.013H142.591C142.39 138.992 142.188 139.039 142.018 139.148C141.879 139.292 141.799 139.481 141.791 139.681C141.659 140.623 141.647 141.578 141.756 142.523C141.772 143.11 142.001 143.671 142.4 144.101C142.72 144.343 143.094 144.504 143.49 144.569C144.526 144.819 145.587 144.952 146.653 144.967C146.42 144.638 146.269 144.258 146.213 143.858C146.158 143.459 146.2 143.052 146.335 142.672C146.759 141.678 147.481 142.253 147.517 143.156C147.517 143.582 147.439 144.001 147.425 144.427C147.418 144.508 147.432 144.589 147.467 144.662C147.51 144.717 147.566 144.762 147.63 144.79C148.192 145.095 148.848 145.181 149.47 145.031C149.647 144.996 149.814 144.921 149.958 144.811C150.288 144.417 150.398 143.884 150.255 143.39L149.965 140.825C149.949 140.765 149.947 140.703 149.96 140.643C149.972 140.582 149.998 140.526 150.036 140.477C150.163 140.349 150.39 140.477 150.524 140.577C151.052 141.047 151.334 141.737 151.289 142.445C151.289 142.85 151.119 143.241 151.09 143.639C151.061 143.839 151.085 144.044 151.16 144.232C151.234 144.42 151.357 144.586 151.515 144.712C151.684 144.793 151.867 144.84 152.054 144.85C152.242 144.859 152.429 144.832 152.605 144.768C153.079 144.699 153.515 144.471 153.843 144.122C154.125 143.674 154.21 143.128 154.077 142.616C153.936 142.111 153.837 141.595 153.78 141.074C153.78 140.022 154.855 138.516 155.032 140.364C155.039 140.966 155.004 141.57 154.926 142.168C154.908 142.245 154.908 142.325 154.926 142.402C154.973 142.464 155.034 142.514 155.104 142.548C155.175 142.581 155.252 142.597 155.33 142.594C156.162 142.667 156.999 142.504 157.743 142.125C158.256 141.875 158.706 141.51 159.059 141.059C159.321 140.689 159.541 140.291 159.717 139.873C160.574 138.047 161.939 136.619 160.347 134.665C159.802 133.997 158.79 133.819 158.281 133.137C157.679 132.327 158.606 131.041 158.641 130.025C158.666 129.801 158.673 129.575 158.663 129.35V129.35Z" fill="#231F20"/>
<path d="M153.56 164.237H171.606L170.191 177.837C170.091 178.834 169.624 179.758 168.882 180.43C168.139 181.102 167.173 181.474 166.171 181.474H158.96C157.959 181.472 156.995 181.099 156.254 180.427C155.512 179.755 155.047 178.832 154.947 177.836L153.56 164.236V164.237Z" fill="white"/>
<path d="M166.2 181.85H158.96C157.867 181.85 156.813 181.443 156.004 180.709C155.194 179.975 154.687 178.967 154.58 177.879L153.164 164.279C153.157 164.179 153.19 164.079 153.256 164.002C153.291 163.964 153.334 163.933 153.381 163.912C153.429 163.892 153.48 163.881 153.532 163.882H171.578C171.629 163.881 171.68 163.891 171.726 163.912C171.773 163.932 171.815 163.963 171.848 164.002C171.883 164.038 171.909 164.082 171.925 164.13C171.941 164.178 171.946 164.229 171.939 164.279L170.524 177.879C170.42 178.958 169.921 179.96 169.123 180.693C168.324 181.426 167.284 181.838 166.2 181.851V181.85ZM153.964 164.613L155.308 177.808C155.397 178.715 155.821 179.556 156.496 180.168C157.171 180.78 158.049 181.119 158.96 181.119H166.2C167.111 181.118 167.989 180.779 168.664 180.167C169.338 179.555 169.762 178.714 169.851 177.808L171.203 164.613H153.963H153.964Z" fill="#231F20"/>
<path d="M165.089 164.486C165.089 164.358 163.673 151.341 170.042 140.853L170.652 141.223C164.416 151.497 165.803 164.273 165.818 164.4L165.088 164.486H165.089Z" fill="#231F20"/>
<path d="M148.698 139.795C148.608 139.793 148.523 139.757 148.458 139.695C148.425 139.662 148.399 139.623 148.381 139.579C148.363 139.536 148.353 139.49 148.353 139.443C148.353 139.396 148.363 139.35 148.381 139.307C148.399 139.263 148.425 139.224 148.458 139.191C152.152 135.283 157.969 132.903 158.217 132.796C158.303 132.769 158.396 132.775 158.477 132.814C158.558 132.853 158.622 132.921 158.655 133.004C158.688 133.088 158.688 133.181 158.656 133.265C158.623 133.348 158.56 133.417 158.479 133.456C158.422 133.456 152.555 135.873 148.967 139.674C148.933 139.712 148.892 139.743 148.846 139.763C148.799 139.784 148.749 139.795 148.698 139.794V139.795ZM151.19 157.899C151.129 157.899 151.069 157.883 151.016 157.853C150.963 157.823 150.919 157.78 150.888 157.727C150.856 157.675 150.839 157.616 150.837 157.555C150.836 157.494 150.85 157.434 150.878 157.38C152.219 154.85 153.922 152.528 155.931 150.488C155.963 150.455 156.002 150.429 156.044 150.411C156.087 150.393 156.132 150.384 156.178 150.384C156.225 150.384 156.27 150.393 156.313 150.411C156.355 150.429 156.394 150.455 156.426 150.488C156.491 150.555 156.528 150.644 156.528 150.737C156.528 150.83 156.491 150.919 156.426 150.986C154.475 152.977 152.822 155.238 151.516 157.7C151.486 157.76 151.439 157.811 151.382 157.846C151.324 157.881 151.258 157.9 151.19 157.899V157.899ZM181.28 152.868C181.222 152.867 181.164 152.853 181.113 152.826C181.061 152.799 181.017 152.76 180.983 152.712C180.813 152.449 176.737 146.317 171.903 142.694C171.828 142.637 171.778 142.553 171.765 142.459C171.752 142.366 171.776 142.271 171.833 142.196C171.89 142.122 171.974 142.074 172.066 142.061C172.159 142.048 172.252 142.071 172.328 142.126C177.155 145.784 181.132 151.661 181.571 152.314C181.622 152.392 181.64 152.488 181.622 152.58C181.603 152.671 181.549 152.752 181.471 152.804C181.416 152.845 181.349 152.867 181.281 152.868H181.28ZM136.441 29.45H179.405V59.733H136.441V29.45Z" fill="white"/>
<path d="M179.398 60.088H136.441C136.347 60.0877 136.257 60.0502 136.191 59.9837C136.124 59.9171 136.087 59.827 136.087 59.733V29.45C136.087 29.254 136.246 29.095 136.441 29.095H179.398C179.594 29.095 179.752 29.254 179.752 29.45V59.733C179.752 59.827 179.715 59.9171 179.648 59.9837C179.582 60.0502 179.492 60.0877 179.398 60.088ZM136.795 59.378H179.045V29.804H136.795V59.376V59.378Z" fill="#D1D3D4"/>
<path d="M164.169 88.48C164.084 88.4797 164.003 88.4496 163.938 88.3952C163.873 88.3407 163.83 88.2653 163.815 88.182L162.074 76.842L159.031 78.192C158.988 78.2108 158.942 78.2209 158.895 78.2218C158.849 78.2227 158.802 78.2143 158.759 78.1971C158.715 78.1799 158.676 78.1542 158.642 78.1216C158.609 78.0889 158.582 78.05 158.564 78.007C158.546 77.9647 158.536 77.9191 158.535 77.873C158.535 77.8269 158.543 77.7811 158.56 77.7382C158.577 77.6954 158.603 77.6564 158.635 77.6234C158.667 77.5904 158.706 77.5641 158.748 77.546L162.222 76.039C162.27 76.0146 162.324 76.0018 162.378 76.0018C162.432 76.0018 162.486 76.0146 162.534 76.039C162.582 76.065 162.623 76.1016 162.655 76.1459C162.687 76.1902 162.709 76.2412 162.718 76.295L164.53 88.055C164.538 88.1012 164.536 88.1484 164.525 88.1939C164.514 88.2394 164.494 88.2823 164.466 88.32C164.439 88.3576 164.404 88.3893 164.363 88.4132C164.323 88.4371 164.278 88.4527 164.232 88.459L164.169 88.481V88.48Z" fill="#231F20"/>
<path d="M170.17 100.652H161.31L160.828 81.503H170.651L170.17 100.652Z" fill="white"/>
<path d="M170.17 101H161.31C161.218 101 161.13 100.964 161.064 100.901C160.998 100.837 160.96 100.751 160.956 100.659L160.446 81.517C160.444 81.4211 160.48 81.3283 160.547 81.2589C160.613 81.1896 160.704 81.1494 160.8 81.147H170.623C170.819 81.159 170.973 81.32 170.977 81.517L170.495 100.702C170.482 100.781 170.444 100.854 170.385 100.908C170.326 100.962 170.25 100.994 170.17 101V101ZM161.678 100.29H169.844L170.304 81.851H161.189L161.678 100.289V100.29Z" fill="#231F20"/>
<path d="M159.93 79.563H171.55V81.503H159.93V79.563Z" fill="white"/>
<path d="M171.55 81.858H159.93C159.836 81.8577 159.746 81.8202 159.68 81.7537C159.613 81.6871 159.576 81.597 159.576 81.503V79.563C159.576 79.367 159.734 79.208 159.93 79.208H171.55C171.745 79.208 171.904 79.368 171.904 79.563V81.503C171.904 81.597 171.867 81.6871 171.8 81.7537C171.734 81.8202 171.644 81.8577 171.55 81.858V81.858ZM160.283 81.148H171.196V79.918H160.283V81.148Z" fill="#231F20"/>
<path d="M165.93 94.186C165.077 94.2581 164.223 94.0709 163.479 93.6488C162.735 93.2268 162.136 92.5896 161.76 91.821C161.383 91.0511 161.245 90.1856 161.366 89.3368C161.487 88.488 161.86 87.6951 162.437 87.061C163.012 86.4283 163.766 85.9846 164.598 85.7882C165.43 85.5919 166.303 85.6521 167.1 85.961C167.898 86.2719 168.585 86.8163 169.069 87.523C169.554 88.2298 169.814 89.0661 169.816 89.923C169.864 91.003 169.482 92.058 168.754 92.857C168.026 93.656 167.011 94.1339 165.931 94.186H165.93ZM165.93 86.406C165.218 86.3334 164.502 86.4784 163.874 86.8217C163.247 87.165 162.738 87.6906 162.416 88.329C162.092 88.9686 161.968 89.691 162.061 90.4019C162.154 91.1129 162.459 91.7792 162.937 92.314C163.413 92.8473 164.04 93.2234 164.735 93.3925C165.429 93.5616 166.159 93.5158 166.827 93.261C167.496 93.0047 168.072 92.5521 168.479 91.9626C168.886 91.3731 169.105 90.6744 169.108 89.958C169.156 89.0662 168.848 88.1917 168.253 87.526C167.657 86.8603 166.823 86.4576 165.931 86.406H165.93ZM149.052 53.736C148.185 53.7306 147.324 53.5819 146.505 53.296C145.433 52.9577 144.397 52.5149 143.412 51.974C143.172 51.839 142.938 51.682 142.704 51.526C142.112 51.1413 141.606 50.6396 141.215 50.0518C140.825 49.464 140.558 48.8025 140.433 48.108C140.341 47.5978 140.426 47.0716 140.673 46.616C141.066 46.076 141.607 45.664 142.23 45.43C142.644 45.2578 143.027 45.0179 143.362 44.72C144.07 43.959 143.794 42.85 143.512 41.678C143.433 41.38 143.362 41.088 143.306 40.804C143.128 39.8963 143.156 38.9601 143.388 38.0648C143.621 37.1695 144.052 36.338 144.65 35.632C145.302 34.8992 146.119 34.3311 147.033 33.9742C147.947 33.6172 148.933 33.4814 149.909 33.578C152.654 33.891 154.82 35.219 155.853 37.216C156.305 38.149 156.515 39.1806 156.464 40.216C156.414 41.2514 156.104 42.2575 155.563 43.142C155.18 43.684 154.964 44.3258 154.94 44.989C155.084 45.575 155.391 46.107 155.825 46.524C156.329 47.038 156.685 47.678 156.858 48.378C157.028 49.544 156.264 50.659 154.523 51.788C152.932 52.9639 151.029 53.6418 149.053 53.736H149.052ZM143.766 51.348C144.71 51.87 145.703 52.296 146.731 52.62C149.718 53.643 152.06 52.528 154.148 51.2C155.634 50.226 156.271 49.345 156.165 48.485C156.007 47.9157 155.705 47.3969 155.287 46.979C154.763 46.4558 154.401 45.7916 154.247 45.067C154.238 44.2768 154.472 43.5029 154.919 42.851C155.413 42.0638 155.7 41.1647 155.755 40.2369C155.809 39.3091 155.629 38.3825 155.23 37.543C154.31 35.759 152.343 34.573 149.838 34.282C148.974 34.1958 148.102 34.3157 147.294 34.6319C146.486 34.9481 145.764 35.4516 145.188 36.101C144.662 36.7255 144.282 37.4601 144.078 38.2507C143.873 39.0412 143.849 39.8677 144.006 40.669C144.063 40.939 144.134 41.223 144.205 41.508C144.509 42.751 144.855 44.165 143.886 45.202C143.496 45.572 143.043 45.872 142.549 46.083C142.051 46.2648 141.615 46.5825 141.289 47C141.124 47.3191 141.072 47.6844 141.14 48.037C141.258 48.6336 141.495 49.2004 141.836 49.7035C142.178 50.2066 142.618 50.6356 143.129 50.965C143.334 51.115 143.547 51.255 143.766 51.384V51.348V51.348Z" fill="#D1D3D4"/>
<path d="M168.323 53.53C166.506 53.5052 164.711 53.1311 163.036 52.428L162.682 52.286C161.945 51.8625 161.103 51.6552 160.253 51.688C159.403 51.7207 158.58 51.9921 157.877 52.471C157.103 52.872 156.273 53.1522 155.414 53.302C154.454 53.386 153.488 53.2286 152.604 52.844C151.72 52.4594 150.947 51.8599 150.354 51.1C149.327 49.9479 148.654 48.5245 148.415 47C148.271 46.0832 148.423 45.1444 148.85 44.3201C149.276 43.4958 149.954 42.8291 150.786 42.417C152.428 41.707 154.176 42.197 155.874 42.68C157.092 43.117 158.382 43.315 159.674 43.263C160.666 43.0965 161.623 42.7653 162.506 42.283C163.084 41.993 163.68 41.739 164.289 41.522C167.119 40.577 172.59 41.522 174.742 43.895C175.323 44.5064 175.735 45.2575 175.94 46.0755C176.144 46.8934 176.134 47.7503 175.909 48.563C175.589 49.6245 175.015 50.5921 174.237 51.3819C173.459 52.1718 172.501 52.7601 171.444 53.096C170.433 53.4046 169.38 53.5511 168.323 53.53V53.53ZM160.489 50.972H160.659C161.458 51.0509 162.236 51.2696 162.959 51.618L163.299 51.761C165.771 52.8823 168.558 53.101 171.175 52.379C172.119 52.0817 172.976 51.5598 173.674 50.858C174.372 50.1562 174.888 49.2956 175.18 48.35C175.371 47.6504 175.378 46.9134 175.2 46.2103C175.023 45.5072 174.667 44.8617 174.168 44.336C172.229 42.204 167.056 41.287 164.466 42.161C163.883 42.363 163.314 42.601 162.76 42.871C161.819 43.3944 160.798 43.7573 159.738 43.945C158.353 44.0069 156.968 43.7994 155.662 43.334C154.02 42.864 152.463 42.417 151.055 43.042C150.37 43.3988 149.815 43.9621 149.468 44.6521C149.122 45.342 149.001 46.1236 149.123 46.886C149.351 48.281 149.975 49.581 150.921 50.631C151.671 51.476 153.241 52.869 155.365 52.599C156.149 52.4538 156.908 52.1926 157.615 51.824C158.5 51.336 159.481 51.0454 160.489 50.972V50.972Z" fill="#D1D3D4"/>
<path d="M167.318 48.208C166.846 48.2378 166.373 48.1577 165.937 47.9739C165.502 47.7901 165.114 47.5078 164.806 47.149C164.461 46.8031 164.065 46.513 163.631 46.289C163.112 46.043 162.553 45.8916 161.981 45.842C161.472 45.8273 160.971 45.7057 160.512 45.4852C160.052 45.2647 159.644 44.9502 159.314 44.562C158.945 44.081 158.684 43.5263 158.548 42.9355C158.413 42.3448 158.406 41.7317 158.528 41.138C158.677 40.3603 158.987 39.6222 159.438 38.9713C159.889 38.3204 160.471 37.7709 161.147 37.358C164.877 35.156 171.797 37.451 174.055 40.705C174.855 41.855 175.768 44.137 172.923 46.445C171.429 47.5583 169.626 48.1794 167.763 48.222L167.318 48.208V48.208ZM164.77 37.166C163.634 37.129 162.508 37.394 161.508 37.934C160.92 38.2953 160.414 38.775 160.021 39.3426C159.629 39.9103 159.359 40.5533 159.228 41.231C159.122 41.7231 159.125 42.2324 159.236 42.7233C159.348 43.2142 159.565 43.6748 159.873 44.073C160.148 44.3899 160.487 44.6449 160.867 44.8213C161.248 44.9976 161.662 45.0913 162.081 45.096C163.31 45.1729 164.462 45.7231 165.294 46.631C165.586 46.9766 165.965 47.2375 166.392 47.3861C166.819 47.5348 167.278 47.5658 167.721 47.476C169.432 47.4262 171.089 46.8644 172.477 45.863C174.282 44.393 174.6 42.737 173.475 41.081C171.96 38.893 168.068 37.166 164.77 37.166V37.166Z" fill="#D1D3D4"/>
<path d="M59.317 45.622C59.317 45.622 61.603 43.76 59.317 41.358H55.63C55.63 41.358 56.422 44.463 55.63 45.622H59.317Z" fill="#231F20"/>
<path d="M59.317 45.977H55.63C55.5646 45.9762 55.5005 45.9581 55.4444 45.9243C55.3884 45.8906 55.3423 45.8425 55.311 45.785C55.2779 45.7289 55.2605 45.6651 55.2605 45.6C55.2605 45.5349 55.2779 45.471 55.311 45.415C55.885 44.585 55.467 42.275 55.255 41.458C55.2438 41.4043 55.2436 41.3488 55.2544 41.295C55.2653 41.2412 55.2869 41.1902 55.318 41.145C55.352 41.1025 55.3953 41.0682 55.4445 41.0448C55.4937 41.0215 55.5475 41.0095 55.602 41.01H59.289C59.3839 41.0134 59.4743 41.0514 59.543 41.117C59.9005 41.4441 60.1849 41.843 60.3777 42.2876C60.5706 42.7322 60.6674 43.2124 60.662 43.697C60.5729 44.5499 60.1628 45.3371 59.515 45.899C59.4584 45.9444 59.3894 45.9715 59.317 45.977V45.977ZM56.182 45.267H59.175C59.619 44.837 59.895 44.262 59.954 43.647C59.9557 43.2876 59.8844 42.9316 59.7445 42.6005C59.6046 42.2695 59.3989 41.9702 59.14 41.721H56.054C56.3525 42.8795 56.3961 44.089 56.182 45.266V45.267Z" fill="#231F20"/>
<path d="M57.314 44.215C57.3677 43.8009 57.3232 43.3799 57.1843 42.9861C57.0453 42.5923 56.8157 42.2367 56.514 41.948C56.2438 41.5951 55.9326 41.2755 55.587 40.996C54.924 40.563 54.1805 40.2681 53.401 40.129C51.681 39.71 49.671 40.243 47.916 40.279C46.0302 40.3146 44.1569 39.9662 42.41 39.255C41.8091 39.0512 41.2706 38.6965 40.846 38.225C40.407 40.805 40.464 43.646 41.943 45.813C43.1943 47.4475 44.9271 48.6479 46.897 49.245C48.2052 49.7748 49.6308 49.9468 51.0275 49.7432C52.4241 49.5397 53.7414 48.9681 54.844 48.087C55.8539 47.3208 56.6325 46.2906 57.094 45.11C57.197 44.82 57.271 44.52 57.314 44.215V44.215Z" fill="white"/>
<path d="M49.961 50.169C48.8641 50.1579 47.7773 49.9584 46.748 49.579C44.7125 48.9605 42.9229 47.718 41.632 46.027C40.308 44.087 39.926 41.451 40.485 38.211C40.4974 38.1438 40.5286 38.0814 40.5749 38.0311C40.6213 37.9809 40.681 37.9448 40.747 37.927C40.813 37.9103 40.8824 37.9135 40.9466 37.9361C41.0109 37.9586 41.067 37.9997 41.108 38.054C41.497 38.475 41.983 38.792 42.523 38.978C44.245 39.64 46.08 39.952 47.923 39.895C48.503 39.895 49.105 39.817 49.742 39.745C50.9853 39.5281 52.2567 39.5281 53.5 39.745C54.3278 39.893 55.1171 40.2073 55.82 40.669C56.182 40.971 56.512 41.309 56.805 41.679C57.482 42.341 57.805 43.289 57.675 44.229C57.622 44.559 57.535 44.883 57.413 45.195C56.9258 46.4356 56.1087 47.5194 55.05 48.329C53.614 49.5062 51.8178 50.1557 49.961 50.169V50.169ZM41.08 38.949C40.712 41.721 41.08 43.923 42.22 45.607C43.4221 47.183 45.0911 48.3393 46.989 48.911C48.2423 49.4168 49.6074 49.5814 50.945 49.388C52.2827 49.1946 53.5452 48.6501 54.604 47.81C55.5583 47.0747 56.2927 46.0917 56.727 44.968C56.8313 44.7016 56.9094 44.4256 56.96 44.144C57.0056 43.7801 56.9654 43.4107 56.8426 43.0651C56.7199 42.7196 56.5179 42.4075 56.253 42.154C55.9906 41.8446 55.6963 41.5637 55.375 41.316C54.7479 40.9152 54.0479 40.6423 53.315 40.513C52.1443 40.3109 50.9477 40.3109 49.777 40.513C49.154 40.577 48.503 40.648 47.895 40.663C45.957 40.694 44.0322 40.3388 42.233 39.618C41.823 39.442 41.436 39.218 41.08 38.95V38.949Z" fill="#231F20"/>
<path d="M101 25.691H131.049V45.614H101V25.691Z" fill="white"/>
<path d="M131.049 45.977H101C100.906 45.9767 100.816 45.9392 100.75 45.8727C100.683 45.8061 100.646 45.716 100.646 45.622V25.684C100.646 25.488 100.805 25.329 101 25.329H131.049C131.242 25.333 131.399 25.489 131.402 25.684V45.622C131.4 45.7152 131.363 45.8042 131.297 45.8704C131.231 45.9365 131.142 45.9747 131.049 45.977ZM101.326 45.267H130.723V26.046H101.353L101.326 45.266V45.267Z" fill="#D1D3D4"/>
<path d="M101 45.622H131.049V49.565H101V45.622Z" fill="white"/>
<path d="M131.049 49.92H101C100.906 49.9197 100.816 49.8822 100.75 49.8157C100.683 49.7491 100.646 49.659 100.646 49.565V45.622C100.646 45.425 100.805 45.266 101 45.266H131.049C131.244 45.266 131.402 45.426 131.402 45.622V49.565C131.402 49.6588 131.365 49.7488 131.299 49.8153C131.233 49.8818 131.143 49.9195 131.049 49.92V49.92ZM101.326 49.21H130.723V45.977H101.353L101.326 49.21ZM104.44 40.982C104.373 40.9837 104.306 40.9659 104.248 40.9306C104.191 40.8954 104.145 40.8442 104.116 40.7833C104.086 40.7225 104.075 40.6545 104.084 40.5875C104.093 40.5206 104.12 40.4575 104.164 40.406C104.504 39.98 112.656 29.94 120.256 30.544C123.286 30.786 125.352 32.377 125.79 34.807C125.989 35.8461 125.839 36.9218 125.365 37.8673C124.89 38.8129 124.117 39.5755 123.165 40.037C121.042 41.024 119.075 41.01 117.702 39.994C117.106 39.5153 116.654 38.8809 116.397 38.161C116.139 37.4412 116.087 36.6641 116.244 35.916C116.271 35.2707 116.5 34.65 116.897 34.1406C117.294 33.6311 117.84 33.2583 118.459 33.074C119.1 32.9047 119.774 32.911 120.412 33.0922C121.049 33.2735 121.626 33.6229 122.082 34.104C122.512 34.58 122.605 35.272 122.316 35.844C121.778 36.889 121.141 37.436 120.419 37.464C119.266 37.464 118.416 36.15 118.381 36.094C118.344 36.034 118.326 35.9645 118.329 35.8943C118.332 35.824 118.355 35.7562 118.397 35.6993C118.438 35.6424 118.495 35.599 118.561 35.5746C118.627 35.5501 118.699 35.5458 118.767 35.562C118.857 35.585 118.935 35.643 118.982 35.724C119.166 36.015 119.754 36.79 120.398 36.754C121.042 36.719 121.403 36.044 121.686 35.518C121.764 35.3609 121.791 35.1832 121.763 35.0099C121.735 34.8367 121.654 34.6765 121.53 34.552C121.163 34.1768 120.703 33.9054 120.197 33.7656C119.691 33.6258 119.158 33.6225 118.65 33.756C118.166 33.9066 117.742 34.2046 117.436 34.6085C117.13 35.0123 116.958 35.5016 116.944 36.008C116.808 36.6286 116.845 37.2747 117.053 37.8752C117.26 38.4758 117.629 39.0076 118.119 39.412C119.273 40.272 121.006 40.264 122.868 39.412C123.679 39.0123 124.335 38.3545 124.732 37.5419C125.129 36.7292 125.245 35.8077 125.062 34.922C124.686 32.839 122.861 31.468 120.172 31.255C112.974 30.658 104.793 40.747 104.715 40.854C104.681 40.8942 104.639 40.9265 104.591 40.9486C104.543 40.9707 104.492 40.9821 104.439 40.982H104.44ZM116.173 64.145H104.595C104.501 64.1447 104.411 64.1072 104.345 64.0407C104.278 63.9741 104.241 63.884 104.241 63.79V54.553C104.241 54.357 104.4 54.198 104.595 54.198H116.173C116.368 54.198 116.527 54.357 116.527 54.553V63.79C116.527 63.884 116.49 63.9741 116.423 64.0407C116.357 64.1072 116.267 64.1447 116.173 64.145V64.145ZM104.949 63.435H115.819V54.908H104.95V63.434L104.949 63.435Z" fill="#D1D3D4"/>
<path d="M110.384 56.237C110.29 56.2367 110.2 56.1992 110.134 56.1327C110.067 56.0661 110.03 55.976 110.03 55.882V53.672C110.026 53.6233 110.033 53.5743 110.049 53.5282C110.065 53.4821 110.09 53.4398 110.124 53.4039C110.157 53.3681 110.197 53.3395 110.242 53.32C110.287 53.3005 110.335 53.2904 110.384 53.2904C110.433 53.2904 110.481 53.3005 110.526 53.32C110.571 53.3395 110.611 53.3681 110.644 53.4039C110.677 53.4398 110.703 53.4821 110.719 53.5282C110.735 53.5743 110.742 53.6233 110.738 53.672V55.867C110.74 55.9147 110.732 55.9624 110.715 56.0071C110.698 56.0518 110.673 56.0926 110.639 56.1271C110.606 56.1616 110.567 56.1892 110.523 56.208C110.479 56.2269 110.432 56.2368 110.384 56.237Z" fill="#D1D3D4"/>
</svg>
